<?xml version="1.0" encoding="UTF-8" standalone="no"?>
<!-- Created with Inkscape (http://www.inkscape.org/) -->

<svg
   xmlns:dc="http://purl.org/dc/elements/1.1/"
   xmlns:cc="http://creativecommons.org/ns#"
   xmlns:rdf="http://www.w3.org/1999/02/22-rdf-syntax-ns#"
   xmlns:svg="http://www.w3.org/2000/svg"
   xmlns="http://www.w3.org/2000/svg"
   xmlns:sodipodi="http://sodipodi.sourceforge.net/DTD/sodipodi-0.dtd"
   xmlns:inkscape="http://www.inkscape.org/namespaces/inkscape"
   version="1.1"
   width="180"
   height="180"
   id="svg2"
   inkscape:version="0.48.3.1 r9886"
   sodipodi:docname="psas_Launch_11_2in_round.svg.2015_04_05_19_49_20.0.svg">
  <sodipodi:namedview
     pagecolor="#ffffff"
     bordercolor="#666666"
     borderopacity="1"
     objecttolerance="10"
     gridtolerance="10"
     guidetolerance="10"
     inkscape:pageopacity="0"
     inkscape:pageshadow="2"
     inkscape:window-width="1280"
     inkscape:window-height="749"
     id="namedview80"
     showgrid="true"
     inkscape:document-units="in"
     units="in"
     borderlayer="true"
     inkscape:zoom="2.085965"
     inkscape:cx="90"
     inkscape:cy="90"
     inkscape:window-x="0"
     inkscape:window-y="27"
     inkscape:window-maximized="1"
     inkscape:current-layer="svg2">
    <inkscape:grid
       type="xygrid"
       id="grid3057"
       empspacing="5"
       visible="false"
       enabled="true"
       snapvisiblegridlinesonly="true"
       units="in"
       spacingx="0.25in"
       spacingy="0.25in" />
  </sodipodi:namedview>
  <defs
     id="defs4" />
  <metadata
     id="metadata7">
    <rdf:RDF>
      <cc:Work
         rdf:about="">
        <dc:format>image/svg+xml</dc:format>
        <dc:type
           rdf:resource="http://purl.org/dc/dcmitype/StillImage" />
        <dc:title></dc:title>
      </cc:Work>
    </rdf:RDF>
  </metadata>
  <rect
     style="fill:#6d8f11;stroke:none;stroke-width:0.89999998000000003;stroke-linecap:round;stroke-linejoin:round;stroke-miterlimit:4;stroke-opacity:1;stroke-dasharray:none;stroke-dashoffset:0;fill-opacity:1"
     id="rect3344"
     width="180"
     height="180"
     x="0"
     y="0" />
  <path
     inkscape:connector-curvature="0"
     style="fill:none;fill-opacity:1;stroke:#ff00ff;stroke-opacity:1;stroke-width:0.9;stroke-miterlimit:4;stroke-dasharray:none"
     id="path2997"
     d="m 174.42797,91.071117 -42.18753,73.071013 -84.375049,0 L 5.6779662,91.071117 47.865391,18.000181 l 84.375049,0 z" />
  <path
     inkscape:connector-curvature="0"
     style="fill:#0e194b;fill-opacity:1;stroke:none"
     id="path2997-5-1-0"
     d="m 157.55296,91.071103 -33.75002,58.456807 -67.500037,0 -33.749937,-58.456807 33.749937,-58.456747 67.500037,0 z" />
  <path
     inkscape:connector-curvature="0"
     style="fill:#3e4f76;fill-opacity:1;stroke:none"
     id="path4473-9-8-4"
     d="m 19.849374,87.307451 c 22.623458,-4.903639 46.111916,-7.486344 70.203589,-7.486344 24.586497,0 48.544737,2.689885 71.596487,7.791435 -8.96449,17.261358 -18.15994,41.087108 -26.59648,54.083568 l -90.000005,0 C 48.647789,138.71766 19.322253,87.526255 19.849374,87.307451 z" />
  <path
     inkscape:connector-curvature="0"
     style="fill:#52799e;fill-opacity:1;stroke:none"
     id="path4473-9-8"
     d="m 24.002891,98.794614 c 20.318201,-4.403976 44.413259,-7.723511 66.050072,-7.723511 22.081207,0 44.598187,3.415798 65.301037,7.997513 -8.05104,15.502484 -16.97415,30.955344 -24.55104,42.627494 l -85.499997,0 C 48.531492,139.02116 23.529481,98.991125 24.002891,98.794614 z" />
  <path
     inkscape:connector-curvature="0"
     style="fill:#7699ba;fill-opacity:1;stroke:none"
     id="path4473-9"
     d="m 27.002889,109.65065 c 20.318204,-4.40397 41.413261,-6.72351 63.050074,-6.72351 22.081207,0 43.598187,2.4158 64.301037,6.99751 -8.05104,15.50249 -22.97415,31.95534 -30.55104,43.62762 l -67.499994,0 C 59.531491,150.87732 26.52948,109.84716 27.002889,109.65065 z" />
  <path
     inkscape:connector-curvature="0"
     style="fill:#79b67c;fill-opacity:1;stroke:none"
     id="path4473"
     d="m 31.854726,120.90883 c 18.600789,-4.79003 38.101987,-7.33773 58.198237,-7.33773 20.096247,0 39.597447,2.5477 58.198237,7.33773 l -24.44824,37.66229 -67.499994,0 z" />
  <path
     inkscape:connector-curvature="0"
     style="fill:#ffffff;fill-opacity:1;stroke:none"
     id="path2997-5"
     d="M 49.271717,20.430483 8.4904663,91.071108 49.271717,161.71171 l 81.562493,0 40.78125,-70.640602 -40.78125,-70.640625 -81.562493,0 z m 7.031249,12.187497 67.499994,0 33.75,58.453128 -33.75,58.453122 -67.499994,0 -33.75,-58.453122 33.75,-58.453128 z" />
  <path
     d="m 79.577601,159.89541 6.059507,0 0,-1.58412 -4.17566,0 0,-6.98458 -1.883847,0 0,8.5687"
     id="path3204"
     style="font-size:24px;font-style:normal;font-variant:normal;font-weight:bold;font-stretch:normal;text-align:center;line-height:100%;letter-spacing:0.71697241;writing-mode:lr-tb;text-anchor:middle;fill:#000000;fill-opacity:1;stroke:none;font-family:Helvetica CE 55 Roman;-inkscape-font-specification:'Helvetica CE 55 Roman, Bold'"
     inkscape:connector-curvature="0" />
  <path
     d="m 85.97794,157.35121 3.611706,0 0,-1.46412 -3.611706,0 0,1.46412"
     id="path3206"
     style="font-size:24px;font-style:normal;font-variant:normal;font-weight:bold;font-stretch:normal;text-align:center;line-height:100%;letter-spacing:0.71697241;writing-mode:lr-tb;text-anchor:middle;fill:#000000;fill-opacity:1;stroke:none;font-family:Helvetica CE 55 Roman;-inkscape-font-specification:'Helvetica CE 55 Roman, Bold'"
     inkscape:connector-curvature="0" />
  <path
     d="m 94.361312,151.49473 -1.355889,0 c -0.048,0.32003 -0.147988,0.58805 -0.299976,0.80406 -0.143988,0.21602 -0.327973,0.39204 -0.551955,0.52804 -0.223982,0.12802 -0.475961,0.22003 -0.755939,0.27603 -0.271977,0.048 -0.555954,0.068 -0.85193,0.06 l 0,1.28411 2.111828,0 0,5.44844 1.703861,0 0,-8.40068"
     id="path3208"
     style="font-size:24px;font-style:normal;font-variant:normal;font-weight:bold;font-stretch:normal;text-align:center;line-height:100%;letter-spacing:0.71697241;writing-mode:lr-tb;text-anchor:middle;fill:#000000;fill-opacity:1;stroke:none;font-family:Helvetica CE 55 Roman;-inkscape-font-specification:'Helvetica CE 55 Roman, Bold'"
     inkscape:connector-curvature="0" />
  <path
     d="m 99.380728,151.49473 -1.355889,0 c -0.048,0.32003 -0.147988,0.58805 -0.299976,0.80406 -0.143988,0.21602 -0.327973,0.39204 -0.551955,0.52804 -0.223982,0.12802 -0.475961,0.22003 -0.755938,0.27603 -0.271978,0.048 -0.555955,0.068 -0.851931,0.06 l 0,1.28411 2.111828,0 0,5.44844 1.703861,0 0,-8.40068"
     id="path3210"
     style="font-size:24px;font-style:normal;font-variant:normal;font-weight:bold;font-stretch:normal;text-align:center;line-height:100%;letter-spacing:0.71697241;writing-mode:lr-tb;text-anchor:middle;fill:#000000;fill-opacity:1;stroke:none;font-family:Helvetica CE 55 Roman;-inkscape-font-specification:'Helvetica CE 55 Roman, Bold'"
     inkscape:connector-curvature="0" />
  <path
     style="font-size:20px;font-style:normal;font-variant:normal;font-weight:normal;font-stretch:normal;text-align:center;line-height:125%;letter-spacing:0.80000001px;word-spacing:3px;writing-mode:lr-tb;text-anchor:middle;opacity:0.98999999;fill:#646464;fill-opacity:1;stroke:none;font-family:Futura LT Book;-inkscape-font-specification:'Futura LT Book,'"
     d="m 27.44467,76.6286 -0.419966,0.727403 -5.854808,-3.380275 -0.909926,1.576037 -0.675555,-0.390031 2.249817,-3.896797 0.675555,0.390031 -0.919925,1.593357 5.854808,3.380275"
     id="path4085"
     inkscape:connector-curvature="0" />
  <path
     style="font-size:20px;font-style:normal;font-variant:normal;font-weight:normal;font-stretch:normal;text-align:center;line-height:125%;letter-spacing:0.80000001px;word-spacing:3px;writing-mode:lr-tb;text-anchor:middle;opacity:0.98999999;fill:#646464;fill-opacity:1;stroke:none;font-family:Futura LT Book;-inkscape-font-specification:'Futura LT Book,'"
     d="m 27.647885,70.556156 c -0.157672,-0.06026 -0.321699,-0.08951 -0.492058,-0.08781 -0.172795,-0.0074 -0.338272,0.01253 -0.496426,0.05977 -0.15815,0.04725 -0.303209,0.12514 -0.435168,0.23369 -0.1344,0.09945 -0.244929,0.224214 -0.33159,0.374314 -0.08666,0.1501 -0.141101,0.311101 -0.16337,0.482981 -0.02803,0.168556 -0.02629,0.338899 0.0052,0.511031 0.03483,0.166358 0.09698,0.325403 0.186452,0.477122 0.0837,0.148389 0.191058,0.275797 0.322072,0.382231 l 1.404885,-2.433333 m -0.835939,2.807999 c 0.190541,0.110009 0.387857,0.181613 0.591975,0.21477 0.201667,0.02406 0.396459,0.01337 0.584374,-0.03208 0.187916,-0.04546 0.366064,-0.12734 0.534453,-0.245645 0.165948,-0.127416 0.305583,-0.289265 0.418906,-0.485546 0.169986,-0.294425 0.233691,-0.58478 0.19112,-0.871073 -0.04502,-0.295396 -0.150445,-0.57949 -0.316291,-0.852282 l 0.67775,-0.393834 c 0.250434,0.406303 0.38337,0.829435 0.39881,1.269399 0.01299,0.430862 -0.100495,0.854119 -0.340475,1.269777 -0.176654,0.305972 -0.391495,0.551408 -0.64452,0.736309 -0.249697,0.179127 -0.516923,0.301949 -0.801679,0.368467 -0.290533,0.06318 -0.589493,0.06761 -0.896875,0.01331 -0.307385,-0.05431 -0.608312,-0.166472 -0.902785,-0.336486 -0.300245,-0.173347 -0.55817,-0.37999 -0.77378,-0.619933 -0.221378,-0.243274 -0.381895,-0.505294 -0.481555,-0.786053 -0.105427,-0.284094 -0.14589,-0.58071 -0.121382,-0.889851 0.02784,-0.314909 0.133428,-0.631126 0.316741,-0.948644 0.189989,-0.32906 0.420151,-0.581041 0.6905,-0.755946 0.264579,-0.17823 0.550344,-0.286499 0.857307,-0.324804 0.310297,-0.04407 0.625682,-0.02363 0.946164,0.06133 0.32048,0.08497 0.625844,0.222784 0.916092,0.413446 l -1.84485,3.195373"
     id="path4087"
     inkscape:connector-curvature="0" />
  <path
     style="font-size:20px;font-style:normal;font-variant:normal;font-weight:normal;font-stretch:normal;text-align:center;line-height:125%;letter-spacing:0.80000001px;word-spacing:3px;writing-mode:lr-tb;text-anchor:middle;opacity:0.98999999;fill:#646464;fill-opacity:1;stroke:none;font-family:Futura LT Book;-inkscape-font-specification:'Futura LT Book,'"
     d="m 31.68745,69.279891 -0.399968,0.692764 -7.145291,-4.125336 0.399968,-0.692764 7.145291,4.125336"
     id="path4089"
     inkscape:connector-curvature="0" />
  <path
     style="font-size:20px;font-style:normal;font-variant:normal;font-weight:normal;font-stretch:normal;text-align:center;line-height:125%;letter-spacing:0.80000001px;word-spacing:3px;writing-mode:lr-tb;text-anchor:middle;opacity:0.98999999;fill:#646464;fill-opacity:1;stroke:none;font-family:Futura LT Book;-inkscape-font-specification:'Futura LT Book,'"
     d="m 31.778019,63.402555 c -0.157672,-0.06026 -0.321701,-0.08951 -0.492058,-0.08781 -0.172798,-0.0074 -0.338275,0.01253 -0.496426,0.05977 -0.158153,0.04725 -0.303211,0.125145 -0.435168,0.233691 -0.1344,0.09945 -0.244932,0.224217 -0.33159,0.374313 -0.08666,0.150101 -0.141104,0.311106 -0.16337,0.482982 -0.02803,0.168559 -0.02629,0.338903 0.0052,0.511031 0.03483,0.166362 0.09698,0.325402 0.186451,0.477121 0.0837,0.148394 0.191056,0.275802 0.322072,0.382232 l 1.404886,-2.433333 m -0.835939,2.807999 c 0.190541,0.110009 0.387856,0.181612 0.591975,0.21477 0.201667,0.02406 0.396459,0.01337 0.584374,-0.03209 0.187913,-0.04545 0.366061,-0.127335 0.534453,-0.245644 0.165945,-0.127412 0.30558,-0.289261 0.418906,-0.485547 0.169984,-0.29442 0.233691,-0.584779 0.19112,-0.871073 -0.04502,-0.295395 -0.150448,-0.579485 -0.316291,-0.852282 l 0.677749,-0.393833 c 0.250435,0.406303 0.38337,0.829435 0.398811,1.269399 0.01299,0.430861 -0.100498,0.854122 -0.340476,1.269776 -0.176653,0.305973 -0.391494,0.551408 -0.644519,0.736309 -0.249697,0.179128 -0.516923,0.30195 -0.801679,0.368467 -0.290533,0.06318 -0.589495,0.06762 -0.896875,0.01331 -0.307387,-0.05431 -0.608312,-0.166472 -0.902785,-0.336486 -0.300245,-0.173346 -0.55817,-0.37999 -0.77378,-0.619933 -0.221378,-0.243273 -0.381897,-0.505289 -0.481556,-0.786053 -0.105429,-0.284089 -0.145889,-0.58071 -0.121381,-0.88985 0.02784,-0.31491 0.133425,-0.631122 0.316741,-0.948644 0.189986,-0.329056 0.420151,-0.581041 0.6905,-0.755946 0.264576,-0.178227 0.550344,-0.286499 0.857307,-0.324805 0.310297,-0.04407 0.625682,-0.02363 0.946164,0.06133 0.320477,0.08497 0.625844,0.222784 0.916092,0.413445 l -1.84485,3.195374"
     id="path4091"
     inkscape:connector-curvature="0" />
  <path
     style="font-size:20px;font-style:normal;font-variant:normal;font-weight:normal;font-stretch:normal;text-align:center;line-height:125%;letter-spacing:0.80000001px;word-spacing:3px;writing-mode:lr-tb;text-anchor:middle;opacity:0.98999999;fill:#646464;fill-opacity:1;stroke:none;font-family:Futura LT Book;-inkscape-font-specification:'Futura LT Book,'"
     d="m 32.198638,60.013804 0.01,-0.01732 c -0.104115,-0.206359 -0.156925,-0.421586 -0.158424,-0.645677 -0.0073,-0.227422 0.04909,-0.445047 0.169076,-0.652878 0.139993,-0.242465 0.327275,-0.426835 0.561849,-0.553117 0.232137,-0.135381 0.486688,-0.196245 0.763653,-0.182593 -0.155191,-0.251244 -0.224308,-0.51822 -0.20736,-0.800937 0.01451,-0.291819 0.09343,-0.561845 0.236748,-0.810091 0.14999,-0.25978 0.322392,-0.44505 0.517206,-0.5558 0.194816,-0.110743 0.401392,-0.168518 0.619725,-0.173321 0.212557,-0.0081 0.432767,0.03049 0.660631,0.115856 0.225413,0.07628 0.444948,0.176075 0.658586,0.299413 l 2.477034,1.430116 -0.399967,0.692764 -2.364442,-1.365111 c -0.132801,-0.07667 -0.271815,-0.149254 -0.417064,-0.2177 -0.14525,-0.06845 -0.290602,-0.110043 -0.436078,-0.124763 -0.142142,-0.02049 -0.276193,-0.0017 -0.402141,0.05648 -0.131723,0.05481 -0.249249,0.17169 -0.352573,0.350653 -0.116658,0.202057 -0.165013,0.385819 -0.145063,0.551281 0.01995,0.165466 0.08088,0.319955 0.18279,0.463462 0.09947,0.134407 0.225044,0.256936 0.376714,0.367595 0.151675,0.110662 0.305457,0.210994 0.461354,0.301001 l 2.156579,1.245101 -0.399967,0.692764 -2.312476,-1.335108 c -0.127026,-0.07334 -0.267713,-0.143018 -0.422064,-0.209041 -0.151023,-0.07178 -0.302149,-0.116715 -0.4534,-0.134764 -0.147919,-0.02382 -0.290623,-0.01 -0.428123,0.04147 -0.134161,0.0457 -0.249576,0.152255 -0.346235,0.319674 -0.116658,0.202057 -0.16379,0.390371 -0.141402,0.564941 0.02239,0.174573 0.08743,0.335278 0.195112,0.482122 0.105246,0.137736 0.236593,0.263604 0.394036,0.377596 0.157448,0.113995 0.314118,0.215994 0.470015,0.306002 l 2.104613,1.215098 -0.399967,0.692764 -4.070651,-2.350191 0.399968,-0.692764 0.441708,0.255021"
     id="path4093"
     inkscape:connector-curvature="0" />
  <path
     style="font-size:20px;font-style:normal;font-variant:normal;font-weight:normal;font-stretch:normal;text-align:center;line-height:125%;letter-spacing:0.80000001px;word-spacing:3px;writing-mode:lr-tb;text-anchor:middle;opacity:0.98999999;fill:#646464;fill-opacity:1;stroke:none;font-family:Futura LT Book;-inkscape-font-specification:'Futura LT Book,'"
     d="m 38.61301,51.564003 c -0.157672,-0.06026 -0.321701,-0.08951 -0.492058,-0.08781 -0.172798,-0.0074 -0.338275,0.01253 -0.496426,0.05977 -0.158153,0.04725 -0.303211,0.125145 -0.435168,0.233691 -0.134402,0.09945 -0.244932,0.224218 -0.33159,0.374314 -0.08666,0.150104 -0.141104,0.311105 -0.16337,0.482981 -0.02803,0.16856 -0.02629,0.338904 0.0052,0.511031 0.03483,0.166363 0.09698,0.325403 0.186451,0.477122 0.0837,0.148393 0.191056,0.275801 0.322072,0.382231 l 1.404886,-2.433333 m -0.835939,2.807999 c 0.190539,0.110013 0.387857,0.181613 0.591975,0.21477 0.201664,0.02407 0.396459,0.01337 0.584374,-0.03209 0.187913,-0.04545 0.366061,-0.127336 0.534453,-0.245645 0.165945,-0.127412 0.30558,-0.289261 0.418906,-0.485547 0.169984,-0.29442 0.233691,-0.584779 0.19112,-0.871072 -0.04502,-0.295396 -0.150448,-0.579486 -0.316291,-0.852283 l 0.67775,-0.393833 c 0.250432,0.406307 0.383367,0.82944 0.39881,1.269399 0.01299,0.430862 -0.100498,0.854123 -0.340476,1.269777 -0.176653,0.305972 -0.391494,0.551407 -0.644519,0.736309 -0.249699,0.179131 -0.516926,0.301954 -0.801679,0.368467 -0.290533,0.06318 -0.589495,0.06762 -0.896875,0.01331 -0.307387,-0.05431 -0.608312,-0.166472 -0.902785,-0.336485 -0.300245,-0.173347 -0.55817,-0.379991 -0.77378,-0.619933 -0.221378,-0.243274 -0.381897,-0.50529 -0.481556,-0.786054 -0.105429,-0.284089 -0.145891,-0.580705 -0.121381,-0.88985 0.02784,-0.314909 0.133425,-0.631122 0.316741,-0.948644 0.189986,-0.329056 0.420151,-0.581041 0.6905,-0.755946 0.264576,-0.178226 0.550341,-0.286495 0.857307,-0.324804 0.310294,-0.04407 0.62568,-0.02362 0.946164,0.06133 0.320477,0.08497 0.625844,0.222784 0.916092,0.413445 l -1.84485,3.195374"
     id="path4095"
     inkscape:connector-curvature="0" />
  <path
     style="font-size:20px;font-style:normal;font-variant:normal;font-weight:normal;font-stretch:normal;text-align:center;line-height:125%;letter-spacing:0.80000001px;word-spacing:3px;writing-mode:lr-tb;text-anchor:middle;opacity:0.98999999;fill:#646464;fill-opacity:1;stroke:none;font-family:Futura LT Book;-inkscape-font-specification:'Futura LT Book,'"
     d="m 42.68257,50.235784 -0.399968,0.692764 -3.42974,-1.980161 -0.24498,0.424318 -0.640911,-0.37003 0.244981,-0.424318 -1.463703,-0.845069 0.399968,-0.692763 1.463702,0.845068 0.419966,-0.727402 0.640911,0.37003 -0.419966,0.727402 3.42974,1.980161"
     id="path4097"
     inkscape:connector-curvature="0" />
  <path
     style="font-size:20px;font-style:normal;font-variant:normal;font-weight:normal;font-stretch:normal;text-align:center;line-height:125%;letter-spacing:0.80000001px;word-spacing:3px;writing-mode:lr-tb;text-anchor:middle;opacity:0.98999999;fill:#646464;fill-opacity:1;stroke:none;font-family:Futura LT Book;-inkscape-font-specification:'Futura LT Book,'"
     d="m 40.41469,45.783186 0.01,-0.01732 c -0.09168,-0.21457 -0.152815,-0.415362 -0.183422,-0.602379 -0.0306,-0.187008 0.01909,-0.393085 0.149078,-0.61824 0.06666,-0.115455 0.145644,-0.21226 0.236951,-0.290401 0.09464,-0.08391 0.199157,-0.158266 0.313561,-0.223078 l 0.442265,0.694093 c -0.08619,0.04261 -0.163271,0.08278 -0.231244,0.120504 -0.07374,0.03441 -0.137288,0.09778 -0.190616,0.190146 -0.109994,0.190514 -0.141798,0.37228 -0.09542,0.545304 0.04393,0.163924 0.128852,0.316866 0.254754,0.458826 0.125897,0.141969 0.272125,0.268727 0.438679,0.380278 0.166545,0.111569 0.316229,0.205667 0.449032,0.282341 l 2.035325,1.175095 -0.399967,0.692764 -4.070651,-2.350191 0.399968,-0.692764 0.441709,0.255021"
     id="path4099"
     inkscape:connector-curvature="0" />
  <path
     style="font-size:20px;font-style:normal;font-variant:normal;font-weight:normal;font-stretch:normal;text-align:center;line-height:125%;letter-spacing:0.80000001px;word-spacing:3px;writing-mode:lr-tb;text-anchor:middle;opacity:0.98999999;fill:#646464;fill-opacity:1;stroke:none;font-family:Futura LT Book;-inkscape-font-specification:'Futura LT Book,'"
     d="m 41.277874,43.268023 0.464963,-0.805338 3.748675,0.247652 -2.158805,-3.001389 0.454963,-0.788019 4.622285,6.675163 -0.454963,0.788018 -1.907637,-2.856376 -4.769481,-0.259711"
     id="path4101"
     inkscape:connector-curvature="0" />
  <path
     d="m 70.49718,25.966916 c 0.335968,5e-6 0.607946,-0.072 0.815934,-0.216018 0.215977,-0.152007 0.323968,-0.416029 0.323973,-0.792064 -5e-6,-0.200007 -0.052,-0.36002 -0.155987,-0.480039 -0.096,-0.12 -0.219987,-0.212008 -0.37197,-0.276023 -0.151992,-0.06399 -0.315979,-0.103998 -0.491959,-0.12001 -0.175991,-0.024 -0.339978,-0.036 -0.49196,-0.036 l -0.803935,0 0,1.920156 1.175904,0 m -4.007673,4.704383 0,-8.640704 4.163661,0 c 1.239894,10e-6 2.163813,0.264032 2.771774,0.792065 0.60794,0.528053 0.911916,1.236111 0.911926,2.124173 -10e-6,0.464043 -0.072,0.884077 -0.215983,1.260102 -0.135999,0.376036 -0.351981,0.696062 -0.647947,0.960078 -0.295986,0.264027 -0.667956,0.468044 -1.115909,0.61205 -0.447969,0.136016 -0.983925,0.204022 -1.607869,0.204017 l -1.427884,0 0,2.688219 -2.831769,0"
     id="path3195"
     style="font-size:24px;font-style:normal;font-variant:normal;font-weight:900;font-stretch:normal;text-align:center;line-height:125%;letter-spacing:8.77000046px;writing-mode:lr-tb;text-anchor:middle;fill:#000000;fill-opacity:1;stroke:none;font-family:Helvetica LT Black;-inkscape-font-specification:'Helvetica LT Black, Heavy'"
     inkscape:connector-curvature="0" />
  <path
     d="m 84.200939,24.5388 c -0.024,-0.152003 -0.072,-0.272013 -0.143988,-0.36003 -0.072,-0.096 -0.159992,-0.172004 -0.263978,-0.228018 -0.199989,-0.103999 -0.443969,-0.156003 -0.731941,-0.156013 -0.311979,10e-6 -0.539961,0.044 -0.683944,0.132011 -0.143993,0.08002 -0.215987,0.200026 -0.215982,0.360029 -5e-6,0.160023 0.07199,0.292034 0.215982,0.396032 0.143983,0.104019 0.331968,0.196026 0.563954,0.276023 0.231976,0.08002 0.495955,0.156017 0.791936,0.228018 0.29597,0.06401 0.599946,0.140017 0.911925,0.228019 0.31197,0.08801 0.615945,0.196021 0.911926,0.324026 0.295966,0.120015 0.559944,0.280028 0.791936,0.480039 0.231971,0.192021 0.419955,0.42804 0.563954,0.708058 0.143978,0.272027 0.215972,0.604054 0.215982,0.996081 -1e-5,0.504046 -0.100002,0.944082 -0.299976,1.320107 -0.199993,0.368035 -0.47997,0.67606 -0.839931,0.924076 -0.351981,0.240019 -0.775942,0.420034 -1.271897,0.540044 -0.495964,0.12801 -1.03992,0.192015 -1.631867,0.192015 -0.567958,0 -1.083916,-0.07601 -1.547874,-0.228018 -0.463967,-0.160013 -0.863934,-0.372031 -1.199902,-0.636052 -0.327973,-0.264017 -0.587952,-0.568041 -0.779936,-0.912074 -0.183985,-0.352024 -0.283977,-0.724054 -0.299976,-1.116091 l 2.711779,0 c 0.05599,0.30403 0.211978,0.532048 0.467962,0.684055 0.111986,0.07201 0.239976,0.128016 0.383969,0.168014 0.143983,0.032 0.283972,0.048 0.419966,0.048 0.359965,5e-6 0.643942,-0.052 0.85193,-0.156013 0.215978,-0.112004 0.323969,-0.272017 0.323974,-0.480039 -5e-6,-0.216012 -0.123995,-0.380026 -0.37197,-0.49204 -0.239985,-0.120005 -0.543961,-0.224013 -0.911926,-0.312025 -0.367975,-0.096 -0.767942,-0.196011 -1.199902,-0.300025 -0.43197,-0.112004 -0.831937,-0.268016 -1.199902,-0.468038 -0.36797,-0.200011 -0.675945,-0.468033 -0.923925,-0.804065 -0.23998,-0.336022 -0.359971,-0.780059 -0.359971,-1.332108 0,-0.456028 0.09199,-0.85606 0.275978,-1.200098 0.191984,-0.352019 0.451963,-0.640042 0.779936,-0.86407 0.335968,-0.232009 0.731936,-0.404023 1.187904,-0.516042 0.455958,-0.12 0.955917,-0.180005 1.499878,-0.180015 0.599946,10e-6 1.119903,0.07202 1.559873,0.216017 0.439959,0.144022 0.807924,0.340038 1.10391,0.588048 0.303965,0.248031 0.539946,0.540054 0.707942,0.876072 0.167976,0.328036 0.275968,0.680065 0.323974,1.056086 l -2.687782,0"
     id="path3197"
     style="font-size:24px;font-style:normal;font-variant:normal;font-weight:900;font-stretch:normal;text-align:center;line-height:125%;letter-spacing:8.77000046px;writing-mode:lr-tb;text-anchor:middle;fill:#000000;fill-opacity:1;stroke:none;font-family:Helvetica LT Black;-inkscape-font-specification:'Helvetica LT Black, Heavy'"
     inkscape:connector-curvature="0" />
  <path
     d="m 96.560808,24.634807 -0.875929,3.096252 1.787855,0 -0.911926,-3.096252 m -4.511633,6.036492 3.095748,-8.640704 2.879766,0 3.095751,8.640704 -2.819774,0 -0.335972,-1.140093 -2.819771,0 -0.323973,1.140093 -2.771775,0"
     id="path3199"
     style="font-size:24px;font-style:normal;font-variant:normal;font-weight:900;font-stretch:normal;text-align:center;line-height:125%;letter-spacing:8.77000046px;writing-mode:lr-tb;text-anchor:middle;fill:#000000;fill-opacity:1;stroke:none;font-family:Helvetica LT Black;-inkscape-font-specification:'Helvetica LT Black, Heavy'"
     inkscape:connector-curvature="0" />
  <path
     d="m 110.96876,24.5388 c -0.024,-0.152003 -0.072,-0.272013 -0.14399,-0.36003 -0.072,-0.096 -0.15999,-0.172004 -0.26398,-0.228018 -0.19999,-0.103999 -0.44397,-0.156003 -0.73194,-0.156013 -0.31198,10e-6 -0.53996,0.044 -0.68394,0.132011 -0.14399,0.08002 -0.21599,0.200026 -0.21598,0.360029 -10e-6,0.160023 0.072,0.292034 0.21598,0.396032 0.14398,0.104019 0.33197,0.196026 0.56395,0.276023 0.23198,0.08002 0.49596,0.156017 0.79194,0.228018 0.29596,0.06401 0.59994,0.140017 0.91192,0.228019 0.31197,0.08801 0.61594,0.196021 0.91193,0.324026 0.29597,0.120015 0.55994,0.280028 0.79193,0.480039 0.23198,0.192021 0.41996,0.42804 0.56396,0.708058 0.14398,0.272027 0.21597,0.604054 0.21598,0.996081 -10e-6,0.504046 -0.1,0.944082 -0.29997,1.320107 -0.2,0.368035 -0.47998,0.67606 -0.83994,0.924076 -0.35198,0.240019 -0.77594,0.420034 -1.27189,0.540044 -0.49597,0.12801 -1.03992,0.192015 -1.63187,0.192015 -0.56796,0 -1.08392,-0.07601 -1.54787,-0.228018 -0.46397,-0.160013 -0.86394,-0.372031 -1.19991,-0.636052 -0.32797,-0.264017 -0.58795,-0.568041 -0.77993,-0.912074 -0.18399,-0.352024 -0.28398,-0.724054 -0.29998,-1.116091 l 2.71178,0 c 0.056,0.30403 0.21198,0.532048 0.46796,0.684055 0.11199,0.07201 0.23998,0.128016 0.38397,0.168014 0.14399,0.032 0.28397,0.048 0.41997,0.048 0.35996,5e-6 0.64394,-0.052 0.85193,-0.156013 0.21597,-0.112004 0.32396,-0.272017 0.32397,-0.480039 -1e-5,-0.216012 -0.124,-0.380026 -0.37197,-0.49204 -0.23998,-0.120005 -0.54396,-0.224013 -0.91192,-0.312025 -0.36798,-0.096 -0.76795,-0.196011 -1.19991,-0.300025 -0.43197,-0.112004 -0.83193,-0.268016 -1.1999,-0.468038 -0.36797,-0.200011 -0.67595,-0.468033 -0.92392,-0.804065 -0.23999,-0.336022 -0.35998,-0.780059 -0.35997,-1.332108 -1e-5,-0.456028 0.092,-0.85606 0.27597,-1.200098 0.19198,-0.352019 0.45196,-0.640042 0.77994,-0.86407 0.33597,-0.232009 0.73194,-0.404023 1.1879,-0.516042 0.45596,-0.12 0.95592,-0.180005 1.49988,-0.180015 0.59995,10e-6 1.1199,0.07202 1.55987,0.216017 0.43996,0.144022 0.80793,0.340038 1.10392,0.588048 0.30396,0.248031 0.53994,0.540054 0.70794,0.876072 0.16797,0.328036 0.27596,0.680065 0.32397,1.056086 l -2.68778,0"
     id="path3201"
     style="font-size:24px;font-style:normal;font-variant:normal;font-weight:900;font-stretch:normal;text-align:center;line-height:125%;letter-spacing:8.77000046px;writing-mode:lr-tb;text-anchor:middle;fill:#000000;fill-opacity:1;stroke:none;font-family:Helvetica LT Black;-inkscape-font-specification:'Helvetica LT Black, Heavy'"
     inkscape:connector-curvature="0" />
  <path
     style="font-size:20px;font-style:normal;font-variant:normal;font-weight:normal;font-stretch:normal;text-align:center;line-height:125%;letter-spacing:0.80000001px;writing-mode:lr-tb;text-anchor:middle;fill:#646464;fill-opacity:1;stroke:none;font-family:Futura LT Book;-inkscape-font-specification:'Futura LT Book,'"
     d="m 151.45789,107.85185 c -0.11333,0.19628 -0.21465,0.3918 -0.30399,0.58653 -0.0893,0.19474 -0.15924,0.38915 -0.20971,0.58324 -0.048,0.20319 -0.0737,0.40772 -0.0771,0.61361 -9.4e-4,0.21498 0.0245,0.43752 0.0765,0.66763 0.0974,0.418 0.27233,0.7884 0.52479,1.11121 0.24912,0.32856 0.55556,0.59785 0.91932,0.80788 0.3753,0.21667 0.77496,0.35119 1.19895,0.40356 0.42065,0.0581 0.83678,0.0174 1.24839,-0.12211 0.43892,-0.14686 0.79256,-0.36603 1.06095,-0.65753 0.27081,-0.2824 0.51788,-0.61699 0.7412,-1.00377 l 0.30498,-0.52824 -5.17926,-2.99024 -0.30497,0.52823 m 6.57975,2.12464 -0.70994,1.22966 c -0.14,0.24246 -0.28654,0.4696 -0.43962,0.68142 -0.1473,0.21514 -0.30983,0.40996 -0.48756,0.58446 -0.17773,0.17449 -0.37523,0.32987 -0.59248,0.46616 -0.22059,0.14204 -0.46671,0.26165 -0.73837,0.35883 -0.54,0.18856 -1.07074,0.24776 -1.59223,0.1776 -0.52149,-0.0702 -1.02763,-0.24692 -1.51842,-0.53027 -0.47924,-0.2767 -0.87384,-0.61998 -1.1838,-1.02985 -0.30996,-0.40988 -0.52162,-0.89002 -0.63498,-1.44039 -0.0599,-0.2963 -0.088,-0.57426 -0.0844,-0.83387 0.009,-0.25629 0.044,-0.50957 0.1038,-0.75984 0.0623,-0.24117 0.14849,-0.48388 0.25872,-0.72813 0.11267,-0.23515 0.24233,-0.47974 0.38898,-0.73375 l 0.69994,-1.21233 6.53037,3.7703"
     id="path4065"
     inkscape:connector-curvature="0" />
  <path
     style="font-size:20px;font-style:normal;font-variant:normal;font-weight:normal;font-stretch:normal;text-align:center;line-height:125%;letter-spacing:0.80000001px;writing-mode:lr-tb;text-anchor:middle;fill:#646464;fill-opacity:1;stroke:none;font-family:Futura LT Book;-inkscape-font-specification:'Futura LT Book,'"
     d="m 152.21953,114.3733 -0.48996,0.84863 -2.00071,0.26506 0.77081,1.86519 -0.49996,0.86596 -1.04548,-2.58954 -3.14016,0.43851 0.48496,-0.83997 2.39918,-0.3352 -0.90431,-2.25401 0.49996,-0.86595 1.16533,2.98201 2.76034,-0.38069"
     id="path4067"
     inkscape:connector-curvature="0" />
  <path
     style="font-size:20px;font-style:normal;font-variant:normal;font-weight:normal;font-stretch:normal;text-align:center;line-height:125%;letter-spacing:0.80000001px;writing-mode:lr-tb;text-anchor:middle;fill:#646464;fill-opacity:1;stroke:none;font-family:Futura LT Book;-inkscape-font-specification:'Futura LT Book,'"
     d="m 145.73589,119.98282 4.01132,5.13318 -6.45112,-0.90732 3.90352,4.53982 -0.45496,0.78802 -5.42326,-6.46793 6.4771,0.92232 -4.0373,-5.14818 8.31303,1.46271 -0.45497,0.78802 -5.88336,-1.11064"
     id="path4069"
     inkscape:connector-curvature="0" />
  <path
     style="font-size:20px;font-style:normal;font-variant:normal;font-weight:normal;font-stretch:normal;text-align:center;line-height:125%;letter-spacing:0.80000001px;writing-mode:lr-tb;text-anchor:middle;fill:#646464;fill-opacity:1;stroke:none;font-family:Futura LT Book;-inkscape-font-specification:'Futura LT Book,'"
     d="m 145.49034,130.70897 c -0.0767,0.13277 -0.19241,0.2199 -0.34722,0.26137 -0.15482,0.0415 -0.29864,0.0239 -0.43143,-0.0528 -0.13858,-0.08 -0.22862,-0.19742 -0.27011,-0.35223 -0.0357,-0.15149 -0.0153,-0.29362 0.0614,-0.42639 0.0767,-0.13279 0.18951,-0.22158 0.33856,-0.26637 0.15481,-0.0415 0.30151,-0.0222 0.44009,0.0578 0.1328,0.0767 0.21995,0.19241 0.26145,0.34723 0.0415,0.1548 0.0239,0.2986 -0.0528,0.43139 m -6.2973,-3.17391 0.39997,-0.69276 4.07065,2.35019 -0.39997,0.69276 -4.07065,-2.35019"
     id="path4071"
     inkscape:connector-curvature="0" />
  <path
     style="font-size:20px;font-style:normal;font-variant:normal;font-weight:normal;font-stretch:normal;text-align:center;line-height:125%;letter-spacing:0.80000001px;writing-mode:lr-tb;text-anchor:middle;fill:#646464;fill-opacity:1;stroke:none;font-family:Futura LT Book;-inkscape-font-specification:'Futura LT Book,'"
     d="m 143.59438,133.43283 -1.94006,-1.12009 -1.2549,2.17354 -0.67555,-0.39003 1.2549,-2.17354 -3.2392,-1.87016 0.41996,-0.7274 6.53037,3.77031 -1.71486,2.97022 -0.67556,-0.39003 1.2949,-2.24282"
     id="path4073"
     inkscape:connector-curvature="0" />
  <path
     style="font-size:20px;font-style:normal;font-variant:normal;font-weight:normal;font-stretch:normal;text-align:center;line-height:125%;letter-spacing:0.80000001px;writing-mode:lr-tb;text-anchor:middle;fill:#646464;fill-opacity:1;stroke:none;font-family:Futura LT Book;-inkscape-font-specification:'Futura LT Book,'"
     d="m 141.3895,137.81183 c -0.0767,0.13277 -0.1924,0.2199 -0.34722,0.26137 -0.15482,0.0415 -0.29863,0.0239 -0.43143,-0.0528 -0.13858,-0.08 -0.22862,-0.19742 -0.27011,-0.35223 -0.0357,-0.15148 -0.0153,-0.29362 0.0614,-0.42639 0.0767,-0.13278 0.18951,-0.22158 0.33856,-0.26637 0.15482,-0.0415 0.30151,-0.0222 0.44009,0.0578 0.1328,0.0767 0.21995,0.19241 0.26145,0.34723 0.0415,0.15481 0.0239,0.2986 -0.0528,0.43139 m -6.2973,-3.17391 0.39997,-0.69276 4.07065,2.35019 -0.39997,0.69277 -4.07065,-2.3502"
     id="path4075"
     inkscape:connector-curvature="0" />
  <path
     style="font-size:20px;font-style:normal;font-variant:normal;font-weight:normal;font-stretch:normal;text-align:center;line-height:125%;letter-spacing:0.80000001px;writing-mode:lr-tb;text-anchor:middle;fill:#646464;fill-opacity:1;stroke:none;font-family:Futura LT Book;-inkscape-font-specification:'Futura LT Book,'"
     d="m 39.569641,140.95325 -1.95484,-3.38589 0.675554,-0.39003 1.534875,2.65848 1.940055,-1.12009 -1.489879,-2.58055 0.675555,-0.39003 1.489879,2.58055 2.563644,-1.48012 -1.534875,-2.65848 0.675555,-0.39003 1.95484,3.38588 -6.530363,3.77031"
     id="path4048"
     inkscape:connector-curvature="0" />
  <path
     style="font-size:20px;font-style:normal;font-variant:normal;font-weight:normal;font-stretch:normal;text-align:center;line-height:125%;letter-spacing:0.80000001px;writing-mode:lr-tb;text-anchor:middle;fill:#646464;fill-opacity:1;stroke:none;font-family:Futura LT Book;-inkscape-font-specification:'Futura LT Book,'"
     d="m 42.814257,131.49186 0.399967,0.69276 -3.429739,1.98016 0.24498,0.42432 -0.640911,0.37003 -0.24498,-0.42432 -1.463702,0.84507 -0.399968,-0.69276 1.463702,-0.84507 -0.419966,-0.7274 0.640911,-0.37003 0.419966,0.7274 3.42974,-1.98016"
     id="path4050"
     inkscape:connector-curvature="0" />
  <path
     style="font-size:20px;font-style:normal;font-variant:normal;font-weight:normal;font-stretch:normal;text-align:center;line-height:125%;letter-spacing:0.80000001px;writing-mode:lr-tb;text-anchor:middle;fill:#646464;fill-opacity:1;stroke:none;font-family:Futura LT Book;-inkscape-font-specification:'Futura LT Book,'"
     d="m 34.287906,133.22513 3.550993,-2.05017 0.0073,-0.0273 c -0.27964,-0.031 -0.524752,-0.10884 -0.735347,-0.23357 -0.213916,-0.13051 -0.394206,-0.32277 -0.540866,-0.57678 -0.163315,-0.28288 -0.247559,-0.54214 -0.252731,-0.77777 -0.01094,-0.2323 0.03443,-0.44708 0.136102,-0.64434 0.101682,-0.19725 0.249337,-0.37487 0.442972,-0.53285 0.190317,-0.16375 0.40383,-0.31397 0.640558,-0.45065 l 2.416407,-1.39512 0.399968,0.69277 -2.295154,1.32511 c -0.161668,0.0933 -0.312568,0.192 -0.452693,0.296 -0.149223,0.10156 -0.262031,0.21286 -0.338409,0.33393 -0.08548,0.11863 -0.129535,0.25568 -0.132163,0.41114 -0.0026,0.15547 0.05439,0.33423 0.171046,0.53628 0.136657,0.2367 0.296949,0.39432 0.480871,0.47286 0.17482,0.0761 0.360174,0.1038 0.556068,0.0831 0.192562,-0.0265 0.389112,-0.0861 0.589652,-0.17879 0.20054,-0.0927 0.390308,-0.19071 0.5693,-0.29405 l 1.931394,-1.11509 0.399967,0.69276 -7.145291,4.12534 -0.399967,-0.69276"
     id="path4052"
     inkscape:connector-curvature="0" />
  <path
     style="font-size:20px;font-style:normal;font-variant:normal;font-weight:normal;font-stretch:normal;text-align:center;line-height:125%;letter-spacing:0.80000001px;writing-mode:lr-tb;text-anchor:middle;fill:#646464;fill-opacity:1;stroke:none;font-family:Futura LT Book;-inkscape-font-specification:'Futura LT Book,'"
     d="m 34.894776,123.49538 c -0.131024,0.10642 -0.238371,0.23384 -0.322072,0.38223 -0.0928,0.14595 -0.158287,0.29922 -0.196451,0.4598 -0.03816,0.16059 -0.04323,0.32516 -0.0152,0.49371 0.01892,0.16612 0.07171,0.32423 0.158371,0.47433 0.08666,0.1501 0.19887,0.27775 0.336589,0.38297 0.131959,0.10855 0.28035,0.19222 0.445167,0.25101 0.161486,0.053 0.330298,0.0787 0.506425,0.0771 0.170359,0.002 0.334379,-0.0276 0.492058,-0.0878 l -1.404885,-2.43333 m 2.013829,2.12794 c 0.190541,-0.11001 0.351209,-0.24508 0.481984,-0.40528 0.121673,-0.16261 0.209808,-0.33666 0.2644,-0.52212 0.05459,-0.18547 0.07275,-0.38069 0.05449,-0.58568 -0.02737,-0.20742 -0.09772,-0.40927 -0.211043,-0.60555 -0.169986,-0.29443 -0.389588,-0.49477 -0.658811,-0.60105 -0.27833,-0.10871 -0.577076,-0.15946 -0.896244,-0.15223 l -0.0022,-0.78386 c 0.477086,-0.0137 0.909997,0.0827 1.298738,0.28932 0.379633,0.20417 0.68944,0.51409 0.929421,0.92975 0.176653,0.30597 0.281786,0.61474 0.315402,0.92632 0.03028,0.30581 0.003,0.59864 -0.08174,0.87851 -0.09055,0.2832 -0.236191,0.54432 -0.436912,0.78337 -0.200728,0.23905 -0.448325,0.44358 -0.742798,0.61359 -0.300245,0.17335 -0.608166,0.29339 -0.923768,0.36015 -0.32137,0.0701 -0.628545,0.0781 -0.92152,0.024 -0.298745,-0.0508 -0.575854,-0.16401 -0.831323,-0.33981 -0.258798,-0.18156 -0.479858,-0.43111 -0.66318,-0.74862 -0.18998,-0.32907 -0.293121,-0.65439 -0.309418,-0.97597 -0.02207,-0.31824 0.02706,-0.61986 0.147365,-0.90485 0.116982,-0.29076 0.292379,-0.55367 0.526198,-0.78873 0.233822,-0.23507 0.505858,-0.43061 0.8161,-0.58664 l 1.84485,3.19537"
     id="path4054"
     inkscape:connector-curvature="0" />
  <path
     style="font-size:20px;font-style:normal;font-variant:normal;font-weight:normal;font-stretch:normal;text-align:center;line-height:125%;letter-spacing:0.80000001px;writing-mode:lr-tb;text-anchor:middle;fill:#646464;fill-opacity:1;stroke:none;font-family:Futura LT Book;-inkscape-font-specification:'Futura LT Book,'"
     d="m 32.190337,121.47137 -0.01,-0.0173 c -0.231664,-0.0279 -0.436122,-0.0753 -0.613387,-0.14234 -0.177253,-0.067 -0.330876,-0.21308 -0.460872,-0.43823 -0.06666,-0.11546 -0.111,-0.23226 -0.133019,-0.3504 -0.02535,-0.12391 -0.03749,-0.25161 -0.03641,-0.38309 l 0.822235,-0.036 c -0.0062,0.0959 -0.0099,0.18279 -0.01126,0.26052 -0.0071,0.0811 0.01604,0.16778 0.06936,0.26015 0.109991,0.19051 0.251506,0.30894 0.424537,0.35529 0.163927,0.0439 0.338837,0.0468 0.524732,0.009 0.185895,-0.038 0.368787,-0.10131 0.54867,-0.18977 0.179894,-0.0885 0.336228,-0.17103 0.46903,-0.2477 l 2.035326,-1.1751 0.399967,0.69276 -4.07065,2.3502 -0.399968,-0.69277 0.441709,-0.25502"
     id="path4056"
     inkscape:connector-curvature="0" />
  <path
     style="font-size:20px;font-style:normal;font-variant:normal;font-weight:normal;font-stretch:normal;text-align:center;line-height:125%;letter-spacing:0.80000001px;writing-mode:lr-tb;text-anchor:middle;fill:#646464;fill-opacity:1;stroke:none;font-family:Futura LT Book;-inkscape-font-specification:'Futura LT Book,'"
     d="m 30.303711,118.08363 -0.01,-0.0173 c -0.279639,-0.031 -0.524752,-0.10884 -0.735346,-0.23357 -0.213916,-0.13051 -0.394206,-0.32277 -0.540866,-0.57678 -0.163315,-0.28288 -0.247559,-0.54214 -0.252731,-0.77777 -0.01093,-0.2323 0.03443,-0.44708 0.136102,-0.64434 0.101681,-0.19725 0.249337,-0.37487 0.442972,-0.53285 0.190317,-0.16375 0.40383,-0.31397 0.640558,-0.45065 l 2.416407,-1.39512 0.399968,0.69277 -2.295155,1.32511 c -0.161667,0.0933 -0.312567,0.192 -0.452693,0.296 -0.149222,0.10156 -0.262027,0.21286 -0.338409,0.33393 -0.08548,0.11863 -0.129534,0.25568 -0.132162,0.41114 -0.0026,0.15546 0.05439,0.33423 0.171046,0.53628 0.136656,0.23669 0.296948,0.39432 0.480871,0.47286 0.17482,0.0761 0.360174,0.1038 0.556068,0.0831 0.192562,-0.0265 0.389111,-0.0861 0.589652,-0.17879 0.20054,-0.0927 0.390308,-0.19071 0.5693,-0.29405 l 1.931394,-1.11509 0.399967,0.69276 -4.070651,2.35019 -0.399967,-0.69276 0.493675,-0.28502"
     id="path4058"
     inkscape:connector-curvature="0" />
  <path
     style="font-size:20px;font-style:normal;font-variant:normal;font-weight:normal;font-stretch:normal;text-align:center;line-height:125%;letter-spacing:0.80000001px;writing-mode:lr-tb;text-anchor:middle;fill:#646464;fill-opacity:1;stroke:none;font-family:Futura LT Book;-inkscape-font-specification:'Futura LT Book,'"
     d="m 27.342266,110.41405 c -0.131024,0.10641 -0.238371,0.23384 -0.322072,0.38223 -0.0928,0.14595 -0.158287,0.29922 -0.196451,0.4598 -0.03816,0.16059 -0.04323,0.32516 -0.0152,0.49371 0.01892,0.16612 0.07171,0.32423 0.15837,0.47433 0.08666,0.1501 0.198871,0.27774 0.33659,0.38297 0.131959,0.10855 0.28035,0.19222 0.445167,0.25101 0.161486,0.053 0.330298,0.0787 0.506425,0.0771 0.170359,0.002 0.334379,-0.0276 0.492058,-0.0878 l -1.404885,-2.43333 m 2.013829,2.12794 c 0.190541,-0.11001 0.351209,-0.24509 0.481984,-0.40528 0.121673,-0.16262 0.209808,-0.33666 0.2644,-0.52212 0.05459,-0.18547 0.07275,-0.38069 0.05449,-0.58568 -0.02737,-0.20742 -0.09772,-0.40927 -0.211043,-0.60555 -0.169986,-0.29443 -0.389588,-0.49477 -0.658811,-0.60105 -0.27833,-0.10871 -0.577076,-0.15946 -0.896244,-0.15223 l -0.0022,-0.78386 c 0.477086,-0.0137 0.909997,0.0827 1.298738,0.28932 0.379633,0.20417 0.68944,0.51409 0.92942,0.92974 0.176654,0.30598 0.281786,0.61475 0.315403,0.92633 0.03028,0.30581 0.003,0.59864 -0.08174,0.87851 -0.09055,0.2832 -0.236191,0.54432 -0.436913,0.78337 -0.200728,0.23904 -0.448325,0.44358 -0.742797,0.61359 -0.300245,0.17335 -0.608166,0.29339 -0.923768,0.36015 -0.32137,0.0701 -0.628542,0.0781 -0.92152,0.024 -0.298746,-0.0507 -0.575854,-0.16401 -0.831324,-0.33981 -0.258797,-0.18157 -0.479857,-0.43111 -0.663179,-0.74862 -0.18998,-0.32907 -0.293121,-0.65439 -0.309418,-0.97597 -0.02207,-0.31824 0.02706,-0.61986 0.147364,-0.90485 0.116983,-0.29076 0.29238,-0.55367 0.526199,-0.78874 0.233822,-0.23506 0.505858,-0.4306 0.8161,-0.58663 l 1.84485,3.19537"
     id="path4060"
     inkscape:connector-curvature="0" />
  <path
     style="font-size:20px;font-style:normal;font-variant:normal;font-weight:normal;font-stretch:normal;text-align:center;line-height:125%;letter-spacing:0.80000001px;writing-mode:lr-tb;text-anchor:middle;fill:#646464;fill-opacity:1;stroke:none;font-family:Futura LT Book;-inkscape-font-specification:'Futura LT Book,'"
     d="m 28.226772,106.22559 0.399967,0.69277 -3.429739,1.98016 0.24498,0.42432 -0.640911,0.37003 -0.24498,-0.42432 -1.463702,0.84507 -0.399968,-0.69277 1.463702,-0.84507 -0.419966,-0.7274 0.640911,-0.37003 0.419966,0.7274 3.42974,-1.98016"
     id="path4062"
     inkscape:connector-curvature="0" />
  <path
     style="font-size:20px;font-style:normal;font-variant:normal;font-weight:normal;font-stretch:normal;text-align:center;line-height:125%;letter-spacing:0.80000001px;writing-mode:lr-tb;text-anchor:middle;fill:#646464;fill-opacity:1;stroke:none;font-family:Futura LT Book;-inkscape-font-specification:'Futura LT Book,'"
     d="m 137.01698,51.250733 -0.41997,-0.727402 6.53037,-3.770307 0.54495,0.943891 c 0.17998,0.311744 0.32566,0.624053 0.43701,0.936937 0.12045,0.315321 0.17761,0.621008 0.17148,0.917053 -0.003,0.30182 -0.0843,0.587459 -0.24433,0.856918 -0.15431,0.266125 -0.41622,0.50586 -0.78575,0.719212 -0.50812,0.293354 -1.00883,0.386162 -1.50216,0.278422 -0.49,-0.101971 -0.90475,-0.393634 -1.24424,-0.874992 l -1.7275,3.768429 -0.51496,-0.891933 1.72687,-3.629512 -0.10499,-0.181851 -2.86678,1.655135 m 3.50769,-2.025165 0.12999,0.225148 c 0.11998,0.207832 0.2482,0.403207 0.38461,0.586167 0.14221,0.179605 0.2987,0.324022 0.46954,0.433225 0.17659,0.105866 0.36662,0.161649 0.57008,0.167344 0.21255,0.0081 0.44586,-0.06114 0.69992,-0.207817 0.26559,-0.153347 0.44968,-0.321205 0.55225,-0.503582 0.10834,-0.185709 0.15504,-0.378169 0.14012,-0.577377 -0.006,-0.196767 -0.0555,-0.402848 -0.14908,-0.61824 -0.0902,-0.209612 -0.19867,-0.424117 -0.32532,-0.643489 l -0.12499,-0.216489 -2.34712,1.35511"
     id="path4078"
     inkscape:connector-curvature="0" />
  <path
     style="font-size:20px;font-style:normal;font-variant:normal;font-weight:normal;font-stretch:normal;text-align:center;line-height:125%;letter-spacing:0.80000001px;writing-mode:lr-tb;text-anchor:middle;fill:#646464;fill-opacity:1;stroke:none;font-family:Futura LT Book;-inkscape-font-specification:'Futura LT Book,'"
     d="m 146.34413,51.684553 -2.39539,8.172065 5.058,-2.920237 0.41997,0.727402 -6.82484,3.940321 2.38673,-8.167065 -5.03202,2.905236 -0.41996,-0.727402 6.80751,-3.93032"
     id="path4080"
     inkscape:connector-curvature="0" />
  <path
     style="font-size:20px;font-style:normal;font-variant:normal;font-weight:normal;font-stretch:normal;text-align:center;line-height:125%;letter-spacing:0.80000001px;writing-mode:lr-tb;text-anchor:middle;fill:#646464;fill-opacity:1;stroke:none;font-family:Futura LT Book;-inkscape-font-specification:'Futura LT Book,'"
     d="m 150.1311,65.004331 2.65026,-1.530125 0.41996,0.727402 -6.53036,3.770307 -0.41997,-0.727402 3.20456,-1.850151 -1.92985,-3.342586 -3.20455,1.850151 -0.41997,-0.727402 6.53037,-3.770307 0.41996,0.727402 -2.65025,1.530125 1.92984,3.342586"
     id="path4082"
     inkscape:connector-curvature="0" />
  <path
     inkscape:connector-curvature="0"
     style="fill:#fac673;fill-opacity:1;stroke:none"
     id="path4433-5-2"
     d="m 101.38817,74.51271 c 5.25508,-1.337694 7.89147,-3.33783 7.89147,-5.868826 0,-4.0987 -8.1245,-6.530848 -19.261881,-6.530848 -2.137781,0 -4.197737,0.122784 -6.130966,0.3502 l -0.03363,-2.560195 -3.747279,3.913299 3.892028,3.393919 -0.01017,-2.524644 c 1.772237,-0.221037 3.940283,-0.344735 6.030101,-0.344735 7.563883,0 16.11501,2.100798 16.11948,4.447771 0.003,1.47054 -3.28147,2.400423 -4.7534,2.973439 0.033,1.891546 0.005,-1.109233 0.004,2.75062 z" />
  <path
     d="m 92.376598,144.03879 c 0,0 -0.130298,-66.40711 -0.05854,-75.836032 C 92.433131,53.08155 90.129202,36.122097 90.129202,36.122097 l -0.08558,-0.334977 -0.08556,0.307971 c 0,0 -2.299442,16.959455 -2.184374,32.080663 0.07176,9.428922 -0.05854,75.836026 -0.05854,75.836026 l 0.747621,0 0,4.53309 3.161699,0.027 0,-4.53307 0.75213,0 z"
     id="path2890"
     style="fill:#ffffff;fill-opacity:1;stroke:#646464;stroke-width:0.81033647;stroke-linecap:butt;stroke-linejoin:miter;stroke-miterlimit:4;stroke-opacity:1;stroke-dasharray:none"
     inkscape:connector-curvature="0" />
  <path
     inkscape:connector-curvature="0"
     style="fill:#646464;fill-opacity:1;stroke:none"
     id="rect3731-9"
     d="m 87.837692,112.10304 4.390746,0 0,-1.90801 -4.390746,0 z" />
  <path
     inkscape:connector-curvature="0"
     style="fill:#646464;fill-opacity:1;stroke:none"
     id="rect3733-7"
     d="m 87.964962,108.39934 4.263479,0 0,-2.84718 -4.263479,0 z" />
  <path
     d="m 87.771588,132.34022 -4.775449,2.84599 0.02876,6.41071 4.689159,2.35731"
     id="path2943-2"
     style="fill:#ffffff;fill-opacity:1;stroke:#646464;stroke-width:0.81033647;stroke-linecap:butt;stroke-linejoin:miter;stroke-miterlimit:4;stroke-opacity:1;stroke-dasharray:none;display:inline"
     inkscape:connector-curvature="0" />
  <path
     d="m 92.262919,69.059349 -4.434547,0"
     id="path2971"
     style="fill:none;stroke:#646464;stroke-width:0.81033647;stroke-linecap:butt;stroke-linejoin:miter;stroke-miterlimit:4;stroke-opacity:1;stroke-dasharray:none"
     inkscape:connector-curvature="0" />
  <path
     d="m 92.34568,99.194297 1.293953,2.393913 -1.293953,0.009"
     id="path2917"
     style="fill:#ffffff;fill-opacity:1;stroke:#646464;stroke-width:0.81033647;stroke-linecap:butt;stroke-linejoin:miter;stroke-miterlimit:4;stroke-opacity:1;stroke-dasharray:none"
     inkscape:connector-curvature="0" />
  <path
     d="m 87.785977,99.223045 -1.293953,2.393915 1.293953,0.009"
     id="path2917-0"
     style="fill:#ffffff;fill-opacity:1;stroke:#646464;stroke-width:0.81033647;stroke-linecap:butt;stroke-linejoin:miter;stroke-miterlimit:4;stroke-opacity:1;stroke-dasharray:none;display:inline"
     inkscape:connector-curvature="0" />
  <path
     d="m 90.073011,99.060487 0,2.813143"
     id="path2941"
     style="fill:#ffffff;fill-opacity:1;stroke:#646464;stroke-width:0.81033647;stroke-linecap:butt;stroke-linejoin:miter;stroke-miterlimit:4;stroke-opacity:1;stroke-dasharray:none"
     inkscape:connector-curvature="0" />
  <path
     d="m 92.374458,132.34022 4.775449,2.84599 -0.02876,6.41071 -4.68916,2.35731"
     id="path2943"
     style="fill:#ffffff;fill-opacity:1;stroke:#646464;stroke-width:0.81033647;stroke-linecap:butt;stroke-linejoin:miter;stroke-miterlimit:4;stroke-opacity:1;stroke-dasharray:none"
     inkscape:connector-curvature="0" />
  <path
     d="m 90.10179,132.31148 0,11.67149"
     id="path2967"
     style="fill:#ffffff;fill-opacity:1;stroke:#646464;stroke-width:0.81033647;stroke-linecap:butt;stroke-linejoin:miter;stroke-miterlimit:4;stroke-opacity:1;stroke-dasharray:none"
     inkscape:connector-curvature="0" />
  <path
     d="m 91.631413,144.03204 -3.167643,-0.0137"
     id="path2969"
     style="fill:none;stroke:#646464;stroke-width:0.81033647;stroke-linecap:butt;stroke-linejoin:miter;stroke-miterlimit:4;stroke-opacity:1;stroke-dasharray:none"
     inkscape:connector-curvature="0" />
  <path
     inkscape:connector-curvature="0"
     style="fill:#fac673;fill-opacity:1;fill-rule:nonzero;stroke:none"
     id="path4159-2-9"
     d="m 62.37357,96.239299 c -0.687566,0 -1.36313,0.06083 -2.021659,0.164201 l 6.619126,11.34996 4.494824,-7.778717 C 69.13007,97.664699 65.918257,96.239299 62.37357,96.239299 z m -3.407046,0.461811 c -3.876416,1.056066 -7.021417,3.86964 -8.538137,7.53245 l 12.858518,-0.0615 z m 13.453711,4.3409 -6.677096,11.78363 9.040987,0 c 0.315815,-1.11901 0.51979,-2.43595 0.51979,-3.656 0,-3.08219 -1.083582,-5.90592 -2.883681,-8.12763 z m -22.351021,4.36355 c -0.405218,1.25383 -0.625999,2.37539 -0.625999,3.76408 0,3.01651 1.03937,5.78443 2.770784,7.984 l 6.834617,-11.74808 z m 7.210716,5.59075 -4.091501,7.18355 c 2.349233,2.41534 5.549616,3.92015 9.185141,3.92015 0.442858,0 0.827737,-0.0283 1.259146,-0.0718 z m 17.018296,3.18129 -13.689762,0.0615 4.381966,7.59401 c 4.211864,-0.86528 7.676962,-3.78069 9.307796,-7.65558 z" />
  <path
     d="m 119.64579,109.29979 c 0,-8.5208 -2.93062,-16.065237 -7.43563,-20.700145 l -3.70165,2.759186 c 4.07756,3.373089 7.45626,10.804819 7.45626,18.004669 0,6.66603 -2.9252,13.69556 -6.50994,17.2092 l 3.36637,2.77285 c 4.15816,-4.67394 6.82459,-11.91587 6.82459,-20.04576 z"
     id="path3814"
     style="fill:#fac673;fill-opacity:1;stroke:none"
     inkscape:connector-curvature="0" />
  <path
     d="m 106.79587,108.61539 c 0,-4.84669 -1.63213,-9.271093 -4.31799,-12.637415 l -3.252898,2.352965 c 1.932308,2.53649 3.990568,6.83223 3.990568,10.41186 0,3.36043 -1.72755,7.21728 -3.451829,9.68276 l 2.934139,2.55108 c 2.55667,-3.33093 4.09801,-7.64591 4.09801,-12.36125 z"
     id="path3822"
     style="fill:#fac673;fill-opacity:1;stroke:none"
     inkscape:connector-curvature="0" />
  <path
     d="m 132.42557,109.19113 c 0,-11.198636 -3.92171,-21.25801 -10.15135,-28.186535 l -3.1052,2.281916 c 5.36227,5.119873 9.37434,15.608261 9.37434,25.863939 0,10.1768 -4.22642,20.29343 -9.51971,25.43453 l 3.36463,2.66961 c 6.16395,-6.92634 10.03729,-16.93212 10.03729,-28.06346 z"
     id="path3824"
     style="fill:#fac673;fill-opacity:1;stroke:none"
     inkscape:connector-curvature="0" />
  <path
     inkscape:connector-curvature="0"
     style="opacity:0.98999999;fill:#ffffff;fill-opacity:1;fill-rule:nonzero;stroke:none"
     id="path4106"
     d="m 58.418016,69.487435 -2.118796,0.907636 -0.916328,2.115054 -0.907635,-2.1188 -2.115051,-0.916324 2.118787,-0.907635 0.916333,-2.115055 0.90764,2.118796 z" />
  <path
     inkscape:connector-curvature="0"
     style="opacity:0.98999999;fill:#ffffff;fill-opacity:1;fill-rule:nonzero;stroke:none"
     id="path4106-2"
     d="m 127.74198,69.491176 -2.11879,0.907636 -0.91633,2.115055 -0.90764,-2.118801 -2.11505,-0.916324 2.11879,-0.907635 0.91633,-2.115055 0.90764,2.118791 z" />
  <path
     inkscape:connector-curvature="0"
     style="opacity:0.98999999;fill:#ffffff;fill-opacity:1;fill-rule:nonzero;stroke:none"
     id="path4106-6"
     d="m 114.66801,46.987434 -2.11879,0.907636 -0.91633,2.115054 -0.90764,-2.1188 -2.11505,-0.916324 2.1188,-0.907635 0.91632,-2.115055 0.90764,2.118796 z" />
  <path
     inkscape:connector-curvature="0"
     style="opacity:0.98999999;fill:#ffffff;fill-opacity:1;fill-rule:nonzero;stroke:none"
     id="path4106-7"
     d="m 71.491985,46.991175 -2.118796,0.907636 -0.916328,2.115054 -0.907636,-2.1188 -2.11505,-0.916324 2.118792,-0.907635 0.916328,-2.115055 0.90764,2.118796 z" />
  <path
     inkscape:connector-curvature="0"
     style="fill:#50a8cc;fill-opacity:1;fill-rule:nonzero;stroke:none"
     id="path3991"
     d="m 96.841953,64.557348 0.587508,6.524888" />
  <path
     inkscape:connector-curvature="0"
     style="fill:#fac673;fill-opacity:1;stroke:none"
     id="path4433-5"
     d="m 78.551952,62.569584 c -5.255077,1.337694 -7.796067,3.570405 -7.796067,6.101397 0,4.098704 8.12451,6.530848 19.261883,6.530848 2.13778,0 4.069964,-0.122784 6.003197,-0.350196 l 0.01234,2.794441 3.875056,-4.539032 -3.97064,-3.457805 0.0036,2.882488 c -1.772237,0.221033 -3.833805,0.391316 -5.923622,0.391316 -7.563884,0 -16.223338,-2.011786 -16.187012,-4.460708 0.02323,-1.564927 3.249094,-2.987405 4.757049,-3.344273 0.03651,-1.687399 0.03349,1.2555 -0.03584,-2.512452 z" />
  <rect
     style="fill:none;stroke:#ff00ff;stroke-width:0.89999998;stroke-linecap:round;stroke-linejoin:round;stroke-miterlimit:4;stroke-opacity:1;stroke-dasharray:none;stroke-dashoffset:0"
     id="rect3059"
     width="0"
     height="0"
     x="0"
     y="0" />
</svg>
