<?xml version="1.0" encoding="UTF-8" standalone="no"?>
<!-- Created with Inkscape (http://www.inkscape.org/) -->

<svg
   xmlns:dc="http://purl.org/dc/elements/1.1/"
   xmlns:cc="http://creativecommons.org/ns#"
   xmlns:rdf="http://www.w3.org/1999/02/22-rdf-syntax-ns#"
   xmlns:svg="http://www.w3.org/2000/svg"
   xmlns="http://www.w3.org/2000/svg"
   version="1.1"
   width="360"
   height="360"
   id="svg2">
  <defs
     id="defs4" />
  <metadata
     id="metadata7">
    <rdf:RDF>
      <cc:Work
         rdf:about="">
        <dc:format>image/svg+xml</dc:format>
        <dc:type
           rdf:resource="http://purl.org/dc/dcmitype/StillImage" />
        <dc:title></dc:title>
      </cc:Work>
    </rdf:RDF>
  </metadata>
  <g
     transform="translate(0,-692.36245)"
     id="layer1">
    <path
       d="m 0,692.36245 360,0 0,171 -360,0 z"
       id="rect4003"
       style="fill:#363f09;fill-opacity:1;stroke:none" />
    <path
       d="M 180,117 C 116.13321,117 55.305117,129.99467 0,153.46875 L 0,360 l 360,0 0,-206.53125 C 304.69488,129.99467 243.86679,117 180,117 z"
       transform="translate(0,692.36245)"
       id="path4006"
       style="fill:#6a7f10;fill-opacity:1;stroke:none" />
    <g
       transform="translate(-9.000007,44.784931)"
       id="g3987">
      <g
         transform="translate(-23.598423,-11.409451)"
         id="g3144">
        <path
           d="m 206.95574,694.48843 c -1.82049,3.51919 -1.82049,3.51919 1.77652,7.0625 24.23204,0 47.01262,28.69954 58.65249,77.66425 0,0 0.40902,0.0424 0.90102,0.0852 -12.09361,-53.09894 -33.81453,-84.812 -61.33003,-84.812 z"
           id="path4673-3"
           style="fill:#ffffff;fill-opacity:1;stroke:none" />
        <path
           d="m 371.21875,98 -0.59375,0.15625 c 0,0 -29.05654,14.23055 -51.84375,31.1875 -10.0502,7.47879 -51.50893,37.59402 -80.0625,58.34375 L 224.5,182.46875 208.65625,194.125 l 1.65625,14.21875 c -0.002,0.001 -0.3125,0.21875 -0.3125,0.21875 l 1.15625,1.59375 -171.625,94.5 34.03125,10.28125 -0.625,35.53125 142.46875,-134.4375 1.15625,1.59375 c 0,0 0.34144,-0.24831 0.34375,-0.25 l 13,5.875 15.9375,-11.5 -0.59375,-15.09375 c 28.50258,-20.83126 69.84019,-51.03838 80.03125,-58.3125 23.11898,-16.50175 45.53125,-39.8125 45.53125,-39.8125 L 371.21875,98 z"
           transform="translate(0,627.16561)"
           id="path3404-64"
           style="fill:#a33f1f;fill-opacity:1;stroke:none" />
        <g
           transform="translate(7.2323809e-7,-1.6014947)"
           id="text3825"
           style="font-size:78px;font-style:normal;font-variant:normal;font-weight:900;font-stretch:normal;text-align:center;line-height:125%;letter-spacing:9px;word-spacing:0px;writing-mode:lr-tb;text-anchor:middle;fill:#ffffff;fill-opacity:1;stroke:none;font-family:Orbitron;-inkscape-font-specification:Orbitron Heavy">
          <path
             d="m 74.957462,871.17401 0,43.67908 12.09,0 0,-18.018 c 0.078,0.078 0.234,0.078 0.234,0.078 0,-0.312 -0.078,-0.468 -0.234,-0.468 l 32.447998,-0.078 c 6.396,0 11.622,-5.22601 11.622,-11.544 l 0,-14.508 c 0,-6.318 -5.226,-11.544 -11.622,-11.544 l -32.723184,0 c -6.793433,-0.10386 -12.170503,5.42576 -11.814814,12.40292 z m 12.09,-0.31292 31.823998,0 0,13.338 -31.823998,0 0,-13.338"
             id="path3817" />
          <path
             d="m 201.42668,870.23709 c 0,-6.396 -5.22601,-11.544 -11.544,-11.544 l -33.072,0 c -6.39599,0 -11.544,5.148 -11.544,11.544 l 0,11.076 c 0,6.39599 5.14801,11.544 11.544,11.544 l 32.37,0 0,9.828 -31.824,0 0,-4.602 -12.09,0 0,5.226 c 0,6.39599 5.14801,11.544 11.544,11.544 l 33.072,0 c 6.31799,0 11.544,-5.14801 11.544,-11.544 l 0,-11.076 c 0,-6.396 -5.22601,-11.544 -11.544,-11.544 l -32.526,0 0,-9.828 31.824,0 0,4.602 12.246,0 0,-5.226"
             id="path3819" />
          <path
             d="m 230.4934,858.69309 c -6.39599,0 -11.544,5.148 -11.544,11.544 l 0,44.616 12.09,0 0,-18.096 31.824,0 0,18.096 12.246,0 0,-44.616 c 0,-6.396 -5.22601,-11.544 -11.622,-11.544 l -32.994,0 m 0.546,25.896 0,-13.728 31.824,0 0,13.728 -31.824,0"
             id="path3821" />
          <path
             d="m 348.76652,870.23709 c 0,-6.396 -5.226,-11.544 -11.544,-11.544 l -33.072,0 c -6.39599,0 -11.544,5.148 -11.544,11.544 l 0,11.076 c 0,6.39599 5.14801,11.544 11.544,11.544 l 32.37,0 0,9.828 -31.824,0 0,-4.602 -12.09,0 0,5.226 c 0,6.39599 5.14801,11.544 11.544,11.544 l 33.072,0 c 6.318,0 11.544,-5.14801 11.544,-11.544 l 0,-11.076 c 0,-6.396 -5.226,-11.544 -11.544,-11.544 l -32.526,0 0,-9.828 31.824,0 0,4.602 12.246,0 0,-5.226"
             id="path3823" />
        </g>
        <path
           d="m 206.95574,694.48843 c -33.76287,0 -67.01203,54.33548 -74.85685,127.71753 -0.36878,3.44961 -1.76116,7.02417 -2.94502,10.47145 0.41818,0.70065 3.89864,2.2329 6.8455,2.30215 4.25953,0.10009 6.84284,-1.20112 7.89053,-2.30215 -0.66672,-1.53218 -0.91016,-7.12556 -0.4978,-10.61861 8.23978,-69.79839 35.11053,-120.50787 65.34016,-120.50787 1.82048,-3.51919 1.82048,-3.51919 -1.77652,-7.06253 z"
           id="path4673"
           style="fill:#ffffff;fill-opacity:1;stroke:none" />
      </g>
      <path
         d="m 189,665.36245 c -90.99652,0 -164.75,73.75348 -164.75,164.75 0,27.26301 6.58984,53.00685 18.3125,75.65625 l -26.625,14.65625 34.03125,10.28125 -0.625,35.5312 22,-20.7812 c 29.90333,30.5035 71.56555,49.4375 117.65625,49.4375 90.99651,0 164.75,-73.78474 164.75,-164.78125 0,-34.99105 -10.89953,-67.41257 -29.5,-94.09375 13.23769,-11.61469 22.96875,-21.71875 22.96875,-21.71875 l 0.40625,-0.53125 -0.59375,0.15625 c 0,0 -12.64374,6.20611 -27.78125,15.28125 C 289.10876,690.36012 241.97458,665.36245 189,665.36245 z"
         id="path3887-6"
         style="fill:none;stroke:#ff00ff;stroke-width:0.70866144;stroke-miterlimit:4;stroke-opacity:1;stroke-dasharray:none" />
    </g>
    <g
       id="text3502"
       style="font-size:30px;font-style:normal;font-variant:normal;font-weight:normal;font-stretch:normal;text-align:center;line-height:125%;letter-spacing:0px;word-spacing:0px;writing-mode:lr-tb;text-anchor:middle;fill:#ffffff;fill-opacity:1;stroke:none;font-family:Futura LT Light;-inkscape-font-specification:'Futura LT Light,'">
      <path
         d="m 100.56983,986.07714 0.06,0 c 0.25999,-0.43998 0.57999,-0.82998 0.96,-1.17 0.39999,-0.35998 0.82999,-0.65998 1.29,-0.9 0.47999,-0.23998 0.96999,-0.41998 1.47,-0.54 0.51999,-0.11998 1.03999,-0.17998 1.56,-0.18 1.05999,2e-5 2.00999,0.20002 2.85,0.6 0.83999,0.38002 1.54999,0.90002 2.13,1.56 0.59998,0.66001 1.05998,1.44001 1.38,2.34 0.31998,0.88001 0.47998,1.83001 0.48,2.85 -2e-5,1.02001 -0.16002,1.96001 -0.48,2.82 -0.32002,0.86001 -0.77002,1.61001 -1.35,2.25 -0.58001,0.64 -1.29001,1.14 -2.13,1.5 -0.84001,0.36 -1.78001,0.54 -2.82,0.54 -1.08001,0 -2.10001,-0.22 -3.06,-0.66 -0.94001,-0.46 -1.70001,-1.13999 -2.28,-2.04 l -0.06,0 0,10.49996 -1.350001,0 0,-21.95996 1.350001,0 0,2.49 m 5.37,-1.53 c -0.88001,2e-5 -1.66001,0.17002 -2.34,0.51 -0.68001,0.34002 -1.25001,0.80002 -1.71,1.38 -0.46001,0.58001 -0.81001,1.25001 -1.05,2.01 -0.24,0.74001 -0.36,1.53001 -0.36,2.37 0,0.82001 0.13,1.58001 0.39,2.28 0.25999,0.68001 0.62999,1.27001 1.11,1.77 0.47999,0.50001 1.05999,0.90001 1.74,1.2 0.67999,0.28 1.43999,0.42 2.28,0.42 0.79999,0 1.52999,-0.16 2.19,-0.48 0.67999,-0.31999 1.24999,-0.73999 1.71,-1.26 0.47999,-0.53999 0.84998,-1.15999 1.11,-1.86 0.25998,-0.69999 0.38998,-1.43999 0.39,-2.22 -2e-5,-0.79999 -0.13002,-1.55999 -0.39,-2.28 -0.24002,-0.73999 -0.60001,-1.38999 -1.08,-1.95 -0.46001,-0.57998 -1.03001,-1.03998 -1.71,-1.38 -0.68001,-0.33998 -1.44001,-0.50998 -2.28,-0.51"
         id="path4296"
         style="letter-spacing:0.45197743" />
      <path
         d="m 122.30821,986.10714 c -0.22001,-0.47998 -0.55001,-0.85998 -0.99,-1.14 -0.42,-0.27998 -0.9,-0.41998 -1.44,-0.42 -0.3,2e-5 -0.59,0.06 -0.87,0.18 -0.28,0.10002 -0.53,0.25002 -0.75,0.45 -0.22,0.20002 -0.4,0.43002 -0.54,0.69 -0.14,0.26001 -0.21,0.54001 -0.21,0.84 0,0.56001 0.16,1.00001 0.48,1.32 0.34,0.30001 0.76,0.56001 1.26,0.78 0.5,0.22001 1.04,0.43001 1.62,0.63 0.59999,0.20001 1.14999,0.46001 1.65,0.78 0.49999,0.30001 0.90999,0.70001 1.23,1.2 0.33999,0.50001 0.50999,1.17001 0.51,2.01 -1e-5,0.64001 -0.12001,1.23001 -0.36,1.77 -0.22001,0.52001 -0.54001,0.97 -0.96,1.35 -0.40001,0.38 -0.87001,0.68 -1.41,0.9 -0.54001,0.2 -1.12,0.3 -1.74,0.3 -1.16,0 -2.18,-0.32 -3.06,-0.96 -0.86,-0.66 -1.43,-1.55999 -1.71,-2.7 l 1.32,-0.42 c 0.26,0.84001 0.67,1.52001 1.23,2.04 0.56,0.52 1.3,0.78 2.22,0.78 0.88,0 1.61999,-0.3 2.22,-0.9 0.59999,-0.59999 0.89999,-1.33999 0.9,-2.22 -1e-5,-0.41999 -0.08,-0.77999 -0.24,-1.08 -0.14001,-0.29999 -0.34001,-0.54999 -0.6,-0.75 -0.24001,-0.19999 -0.53001,-0.36999 -0.87,-0.51 -0.32,-0.13999 -0.65,-0.26999 -0.99,-0.39 -0.48,-0.17999 -0.96,-0.36999 -1.44,-0.57 -0.48,-0.19999 -0.92,-0.43999 -1.32,-0.72 -0.38,-0.29999 -0.69,-0.64999 -0.93,-1.05 -0.24,-0.41999 -0.36,-0.91999 -0.36,-1.5 0,-0.51999 0.1,-0.98998 0.3,-1.41 0.22,-0.43998 0.5,-0.80998 0.84,-1.11 0.34,-0.31998 0.74,-0.55998 1.2,-0.72 0.46,-0.17998 0.94,-0.26998 1.44,-0.27 0.7,2e-5 1.38999,0.21002 2.07,0.63 0.67999,0.42002 1.16999,0.95002 1.47,1.59 l -1.17,0.6"
         id="path4298"
         style="letter-spacing:0.45197743" />
      <path
         d="m 140.37019,997.44714 -1.35,0 0,-2.49 -0.06,0 c -0.26001,0.44001 -0.59001,0.84001 -0.99,1.2 -0.38001,0.34 -0.81001,0.63 -1.29,0.87 -0.46001,0.24 -0.95001,0.42 -1.47,0.54 -0.52001,0.12 -1.03001,0.18 -1.53,0.18 -1.06001,0 -2.01001,-0.19 -2.85,-0.57 -0.84,-0.38 -1.56,-0.9 -2.16,-1.56 -0.58,-0.65999 -1.03,-1.42999 -1.35,-2.31 -0.32,-0.89999 -0.48,-1.85999 -0.48,-2.88 0,-1.01999 0.16,-1.95999 0.48,-2.82 0.32,-0.87999 0.77,-1.63998 1.35,-2.28 0.58,-0.63998 1.29,-1.13998 2.13,-1.5 0.83999,-0.35998 1.77999,-0.53998 2.82,-0.54 1.07999,2e-5 2.08999,0.23002 3.03,0.69 0.95999,0.46002 1.72999,1.13002 2.31,2.01 l 0.06,0 0,-2.4 1.35,0 0,13.86 m -6.81,-12.9 c -0.80001,2e-5 -1.53001,0.17002 -2.19,0.51 -0.66,0.32002 -1.23,0.76002 -1.71,1.32 -0.46,0.54001 -0.82,1.17001 -1.08,1.89 -0.26,0.70001 -0.39,1.42001 -0.39,2.16 0,0.80001 0.12,1.57001 0.36,2.31 0.26,0.72001 0.63,1.36001 1.11,1.92 0.48,0.56001 1.05,1.01001 1.71,1.35 0.67999,0.32 1.43999,0.48 2.28,0.48 0.87999,0 1.65999,-0.16 2.34,-0.48 0.67999,-0.33999 1.24999,-0.78999 1.71,-1.35 0.45999,-0.57999 0.80999,-1.23999 1.05,-1.98 0.23999,-0.75999 0.35999,-1.55999 0.36,-2.4 -10e-6,-0.79999 -0.13001,-1.54999 -0.39,-2.25 -0.26001,-0.69999 -0.64001,-1.29999 -1.14,-1.8 -0.48001,-0.51998 -1.06001,-0.92998 -1.74,-1.23 -0.68001,-0.29998 -1.44001,-0.44998 -2.28,-0.45"
         id="path4300"
         style="letter-spacing:0.45197743" />
      <path
         d="m 151.27858,986.10714 c -0.22001,-0.47998 -0.55001,-0.85998 -0.99,-1.14 -0.42001,-0.27998 -0.90001,-0.41998 -1.44,-0.42 -0.30001,2e-5 -0.59001,0.06 -0.87,0.18 -0.28001,0.10002 -0.53001,0.25002 -0.75,0.45 -0.22001,0.20002 -0.40001,0.43002 -0.54,0.69 -0.14001,0.26001 -0.21001,0.54001 -0.21,0.84 -1e-5,0.56001 0.15999,1.00001 0.48,1.32 0.33999,0.30001 0.75999,0.56001 1.26,0.78 0.49999,0.22001 1.03999,0.43001 1.62,0.63 0.59999,0.20001 1.14999,0.46001 1.65,0.78 0.49999,0.30001 0.90999,0.70001 1.23,1.2 0.33999,0.50001 0.50999,1.17001 0.51,2.01 -1e-5,0.64001 -0.12001,1.23001 -0.36,1.77 -0.22001,0.52001 -0.54001,0.97 -0.96,1.35 -0.40001,0.38 -0.87001,0.68 -1.41,0.9 -0.54001,0.2 -1.12001,0.3 -1.74,0.3 -1.16001,0 -2.18001,-0.32 -3.06,-0.96 -0.86001,-0.66 -1.43001,-1.55999 -1.71,-2.7 l 1.32,-0.42 c 0.25999,0.84001 0.66999,1.52001 1.23,2.04 0.55999,0.52 1.29999,0.78 2.22,0.78 0.87999,0 1.61999,-0.3 2.22,-0.9 0.59999,-0.59999 0.89999,-1.33999 0.9,-2.22 -1e-5,-0.41999 -0.08,-0.77999 -0.24,-1.08 -0.14001,-0.29999 -0.34001,-0.54999 -0.6,-0.75 -0.24001,-0.19999 -0.53001,-0.36999 -0.87,-0.51 -0.32001,-0.13999 -0.65001,-0.26999 -0.99,-0.39 -0.48001,-0.17999 -0.96001,-0.36999 -1.44,-0.57 -0.48001,-0.19999 -0.92001,-0.43999 -1.32,-0.72 -0.38001,-0.29999 -0.69001,-0.64999 -0.93,-1.05 -0.24001,-0.41999 -0.36001,-0.91999 -0.36,-1.5 -1e-5,-0.51999 0.1,-0.98998 0.3,-1.41 0.21999,-0.43998 0.49999,-0.80998 0.84,-1.11 0.33999,-0.31998 0.73999,-0.55998 1.2,-0.72 0.45999,-0.17998 0.93999,-0.26998 1.44,-0.27 0.69999,2e-5 1.38999,0.21002 2.07,0.63 0.67999,0.42002 1.16999,0.95002 1.47,1.59 l -1.17,0.6"
         id="path4302"
         style="letter-spacing:0.45197743" />
      <path
         d="m 157.46665,995.28714 c 0.34,10e-6 0.63,0.12001 0.87,0.36 0.24,0.24001 0.36,0.53 0.36,0.87 0,0.34 -0.12,0.63 -0.36,0.87 -0.24,0.24 -0.53,0.36 -0.87,0.36 -0.34,0 -0.63,-0.12 -0.87,-0.36 -0.24,-0.24 -0.36,-0.53 -0.36,-0.87 0,-0.34 0.12,-0.62999 0.36,-0.87 0.24,-0.23999 0.53,-0.35999 0.87,-0.36"
         id="path4304"
         style="letter-spacing:0.45197743" />
      <path
         d="m 162.85521,986.07714 0.06,0 c 0.25999,-0.43998 0.57999,-0.82998 0.96,-1.17 0.39999,-0.35998 0.82999,-0.65998 1.29,-0.9 0.47999,-0.23998 0.96999,-0.41998 1.47,-0.54 0.51999,-0.11998 1.03999,-0.17998 1.56,-0.18 1.05999,2e-5 2.00999,0.20002 2.85,0.6 0.83998,0.38002 1.54998,0.90002 2.13,1.56 0.59998,0.66001 1.05998,1.44001 1.38,2.34 0.31998,0.88001 0.47998,1.83001 0.48,2.85 -2e-5,1.02001 -0.16002,1.96001 -0.48,2.82 -0.32002,0.86001 -0.77002,1.61001 -1.35,2.25 -0.58002,0.64 -1.29002,1.14 -2.13,1.5 -0.84001,0.36 -1.78001,0.54 -2.82,0.54 -1.08001,0 -2.10001,-0.22 -3.06,-0.66 -0.94001,-0.46 -1.70001,-1.13999 -2.28,-2.04 l -0.06,0 0,10.49996 -1.35,0 0,-21.95996 1.35,0 0,2.49 m 5.37,-1.53 c -0.88001,2e-5 -1.66001,0.17002 -2.34,0.51 -0.68001,0.34002 -1.25001,0.80002 -1.71,1.38 -0.46001,0.58001 -0.81001,1.25001 -1.05,2.01 -0.24001,0.74001 -0.36001,1.53001 -0.36,2.37 -1e-5,0.82001 0.12999,1.58001 0.39,2.28 0.25999,0.68001 0.62999,1.27001 1.11,1.77 0.47999,0.50001 1.05999,0.90001 1.74,1.2 0.67999,0.28 1.43999,0.42 2.28,0.42 0.79999,0 1.52999,-0.16 2.19,-0.48 0.67998,-0.31999 1.24998,-0.73999 1.71,-1.26 0.47998,-0.53999 0.84998,-1.15999 1.11,-1.86 0.25998,-0.69999 0.38998,-1.43999 0.39,-2.22 -2e-5,-0.79999 -0.13002,-1.55999 -0.39,-2.28 -0.24002,-0.73999 -0.60002,-1.38999 -1.08,-1.95 -0.46002,-0.57998 -1.03002,-1.03998 -1.71,-1.38 -0.68001,-0.33998 -1.44001,-0.50998 -2.28,-0.51"
         id="path4306"
         style="letter-spacing:0.45197743" />
      <path
         d="m 189.60359,994.95714 -0.06,0 c -0.26001,0.44001 -0.59001,0.84001 -0.99,1.2 -0.38001,0.34 -0.81001,0.63 -1.29,0.87 -0.46001,0.24 -0.95001,0.42 -1.47,0.54 -0.52001,0.12 -1.03001,0.18 -1.53,0.18 -1.06,0 -2.01,-0.19 -2.85,-0.57 -0.84,-0.38 -1.56,-0.9 -2.16,-1.56 -0.58,-0.65999 -1.03,-1.42999 -1.35,-2.31 -0.32,-0.89999 -0.48,-1.85999 -0.48,-2.88 0,-1.01999 0.16,-1.95999 0.48,-2.82 0.32,-0.87999 0.77,-1.63998 1.35,-2.28 0.58,-0.63998 1.29,-1.13998 2.13,-1.5 0.84,-0.35998 1.78,-0.53998 2.82,-0.54 1.07999,2e-5 2.08999,0.23002 3.03,0.69 0.95999,0.46002 1.72999,1.13002 2.31,2.01 l 0.06,0 0,-13.29 1.35,0 0,24.75 -1.35,0 0,-2.49 m -5.37,1.53 c 0.87999,0 1.65999,-0.16 2.34,-0.48 0.67999,-0.33999 1.24999,-0.78999 1.71,-1.35 0.45999,-0.57999 0.80999,-1.23999 1.05,-1.98 0.23999,-0.75999 0.35999,-1.55999 0.36,-2.4 -1e-5,-0.79999 -0.13001,-1.54999 -0.39,-2.25 -0.26001,-0.69999 -0.64001,-1.29999 -1.14,-1.8 -0.48001,-0.51998 -1.06001,-0.92998 -1.74,-1.23 -0.68001,-0.29998 -1.44001,-0.44998 -2.28,-0.45 -0.8,2e-5 -1.53,0.17002 -2.19,0.51 -0.66,0.32002 -1.23,0.76002 -1.71,1.32 -0.46,0.54001 -0.82,1.17001 -1.08,1.89 -0.26,0.70001 -0.39,1.42001 -0.39,2.16 0,0.80001 0.12,1.57001 0.36,2.31 0.26,0.72001 0.63,1.36001 1.11,1.92 0.48,0.56001 1.05,1.01001 1.71,1.35 0.68,0.32 1.44,0.48 2.28,0.48"
         id="path4308"
         style="letter-spacing:0.45197743" />
      <path
         d="m 194.33197,983.58714 1.62,0 4.41,5.61 4.44,-5.61 1.62,0 -5.16,6.54 5.64,7.32 -1.59,0 -4.95,-6.36 -4.92,6.36 -1.59,0 5.64,-7.32 -5.16,-6.54"
         id="path4310"
         style="letter-spacing:0.45197743" />
      <path
         d="m 210.10084,995.28714 c 0.33999,10e-6 0.62999,0.12001 0.87,0.36 0.23999,0.24001 0.35999,0.53 0.36,0.87 -1e-5,0.34 -0.12001,0.63 -0.36,0.87 -0.24001,0.24 -0.53001,0.36 -0.87,0.36 -0.34001,0 -0.63001,-0.12 -0.87,-0.36 -0.24001,-0.24 -0.36001,-0.53 -0.36,-0.87 -10e-6,-0.34 0.11999,-0.62999 0.36,-0.87 0.23999,-0.23999 0.52999,-0.35999 0.87,-0.36"
         id="path4312"
         style="letter-spacing:0.45197743" />
      <path
         d="m 225.49736,989.37714 c -0.08,-0.63999 -0.27002,-1.24999 -0.57,-1.83 -0.28002,-0.57999 -0.66002,-1.08999 -1.14,-1.53 -0.46002,-0.45998 -0.99001,-0.81998 -1.59,-1.08 -0.60001,-0.25998 -1.26001,-0.38998 -1.98,-0.39 -0.70001,2e-5 -1.37001,0.13002 -2.01,0.39 -0.62001,0.26002 -1.17001,0.61002 -1.65,1.05 -0.48001,0.44001 -0.88001,0.95001 -1.2,1.53 -0.30001,0.58001 -0.48001,1.20001 -0.54,1.86 l 10.68,0 m -10.68,1.26 c -0.02,0.88001 0.1,1.68001 0.36,2.4 0.27999,0.72001 0.66999,1.34001 1.17,1.86 0.49999,0.50001 1.08999,0.89001 1.77,1.17 0.69999,0.28 1.44999,0.42 2.25,0.42 1.07999,0 2.03999,-0.29 2.88,-0.87 0.83998,-0.57999 1.50998,-1.33999 2.01,-2.28 l 1.14,0.66 c -0.64002,1.20001 -1.49002,2.13 -2.55,2.79 -1.06001,0.64 -2.28001,0.96 -3.66,0.96 -1.02001,0 -1.95001,-0.19 -2.79,-0.57 -0.82001,-0.4 -1.53001,-0.93 -2.13,-1.59 -0.58001,-0.65999 -1.03001,-1.42999 -1.35,-2.31 -0.30001,-0.87999 -0.45001,-1.80999 -0.45,-2.79 -1e-5,-0.95999 0.15999,-1.86999 0.48,-2.73 0.31999,-0.87999 0.76999,-1.64999 1.35,-2.31 0.59999,-0.65998 1.30999,-1.17998 2.13,-1.56 0.81999,-0.39998 1.73999,-0.59998 2.76,-0.6 1.03999,2e-5 1.96999,0.20002 2.79,0.6 0.83998,0.38002 1.53998,0.91002 2.1,1.59 0.57998,0.66001 1.01998,1.44001 1.32,2.34 0.29998,0.88001 0.44998,1.82001 0.45,2.82 l -12.03,0"
         id="path4314"
         style="letter-spacing:0.45197743" />
      <path
         d="m 241.3923,994.95714 -0.06,0 c -0.26002,0.44001 -0.59002,0.84001 -0.99,1.2 -0.38001,0.34 -0.81001,0.63 -1.29,0.87 -0.46001,0.24 -0.95001,0.42 -1.47,0.54 -0.52001,0.12 -1.03001,0.18 -1.53,0.18 -1.06001,0 -2.01001,-0.19 -2.85,-0.57 -0.84001,-0.38 -1.56001,-0.9 -2.16,-1.56 -0.58001,-0.65999 -1.03,-1.42999 -1.35,-2.31 -0.32,-0.89999 -0.48,-1.85999 -0.48,-2.88 0,-1.01999 0.16,-1.95999 0.48,-2.82 0.32,-0.87999 0.76999,-1.63998 1.35,-2.28 0.57999,-0.63998 1.28999,-1.13998 2.13,-1.5 0.83999,-0.35998 1.77999,-0.53998 2.82,-0.54 1.07999,2e-5 2.08999,0.23002 3.03,0.69 0.95999,0.46002 1.72998,1.13002 2.31,2.01 l 0.06,0 0,-13.29 1.35,0 0,24.75 -1.35,0 0,-2.49 m -5.37,1.53 c 0.87999,0 1.65999,-0.16 2.34,-0.48 0.67999,-0.33999 1.24999,-0.78999 1.71,-1.35 0.45998,-0.57999 0.80998,-1.23999 1.05,-1.98 0.23998,-0.75999 0.35998,-1.55999 0.36,-2.4 -2e-5,-0.79999 -0.13002,-1.54999 -0.39,-2.25 -0.26002,-0.69999 -0.64002,-1.29999 -1.14,-1.8 -0.48001,-0.51998 -1.06001,-0.92998 -1.74,-1.23 -0.68001,-0.29998 -1.44001,-0.44998 -2.28,-0.45 -0.80001,2e-5 -1.53001,0.17002 -2.19,0.51 -0.66001,0.32002 -1.23001,0.76002 -1.71,1.32 -0.46001,0.54001 -0.82001,1.17001 -1.08,1.89 -0.26001,0.70001 -0.39001,1.42001 -0.39,2.16 -1e-5,0.80001 0.11999,1.57001 0.36,2.31 0.25999,0.72001 0.62999,1.36001 1.11,1.92 0.47999,0.56001 1.04999,1.01001 1.71,1.35 0.67999,0.32 1.43999,0.48 2.28,0.48"
         id="path4316"
         style="letter-spacing:0.45197743" />
      <path
         d="m 257.58068,983.58714 0,8.31 c -10e-6,0.70001 -0.03,1.40001 -0.09,2.1 -0.06,0.68001 -0.31001,1.31001 -0.75,1.89 -0.48001,0.64 -1.10001,1.11 -1.86,1.41 -0.74,0.3 -1.5,0.45 -2.28,0.45 -0.78,0 -1.55,-0.15 -2.31,-0.45 -0.74,-0.3 -1.35,-0.77 -1.83,-1.41 -0.44,-0.57999 -0.69,-1.20999 -0.75,-1.89 -0.06,-0.69999 -0.09,-1.39999 -0.09,-2.1 l 0,-8.31 1.35,0 0,7.83 c 0,0.66001 0.03,1.30001 0.09,1.92 0.08,0.62001 0.24,1.16001 0.48,1.62 0.24,0.46001 0.6,0.83001 1.08,1.11 0.48,0.28 1.14,0.42 1.98,0.42 0.84,0 1.5,-0.14 1.98,-0.42 0.47999,-0.27999 0.83999,-0.64999 1.08,-1.11 0.23999,-0.45999 0.38999,-0.99999 0.45,-1.62 0.08,-0.61999 0.11999,-1.25999 0.12,-1.92 l 0,-7.83 1.35,0"
         id="path4318"
         style="letter-spacing:0.45197743" />
    </g>
  </g>
</svg>
