<?xml version="1.0" encoding="UTF-8" standalone="no"?>
<!-- Created with Inkscape (http://www.inkscape.org/) -->

<svg
   xmlns:dc="http://purl.org/dc/elements/1.1/"
   xmlns:cc="http://creativecommons.org/ns#"
   xmlns:rdf="http://www.w3.org/1999/02/22-rdf-syntax-ns#"
   xmlns:svg="http://www.w3.org/2000/svg"
   xmlns="http://www.w3.org/2000/svg"
   xmlns:xlink="http://www.w3.org/1999/xlink"
   xmlns:sodipodi="http://sodipodi.sourceforge.net/DTD/sodipodi-0.dtd"
   xmlns:inkscape="http://www.inkscape.org/namespaces/inkscape"
   width="360"
   height="180"
   id="svg2"
   version="1.1"
   inkscape:version="0.48.3.1 r9886"
   sodipodi:docname="space_hardware.svg">
  <defs
     id="defs4">
    <pattern
       inkscape:collect="always"
       xlink:href="#Packedcircles"
       id="pattern5299"
       patternTransform="matrix(8.067451,-0.60546734,0.65661586,8.7489711,5.8138069,11.449174)" />
    <pattern
       inkscape:stockid="Packed circles"
       id="Packedcircles"
       patternTransform="translate(0,0) scale(10,10)"
       height="1.73205080756"
       width="1"
       patternUnits="userSpaceOnUse"
       inkscape:collect="always">
      <circle
         id="circle4603"
         r="0.5"
         cy="0.5"
         cx="0"
         style="fill:black;stroke:none" />
      <circle
         id="circle4605"
         r="0.5"
         cy="0.5"
         cx="1"
         style="fill:black;stroke:none" />
      <circle
         id="circle4607"
         r="0.5"
         cy="1.36602540378"
         cx="0.5"
         style="fill:black;stroke:none" />
      <circle
         id="circle4609"
         r="0.5"
         cy="-0.366025403784"
         cx="0.5"
         style="fill:black;stroke:none" />
    </pattern>
    <inkscape:perspective
       sodipodi:type="inkscape:persp3d"
       inkscape:vp_x="0 : 0.5 : 1"
       inkscape:vp_y="0 : 1000 : 0"
       inkscape:vp_z="1 : 0.5 : 1"
       inkscape:persp3d-origin="0.5 : 0.33333333 : 1"
       id="perspective3756" />
    <inkscape:perspective
       sodipodi:type="inkscape:persp3d"
       inkscape:vp_x="0 : 0.5 : 1"
       inkscape:vp_y="0 : 1000 : 0"
       inkscape:vp_z="1 : 0.5 : 1"
       inkscape:persp3d-origin="0.5 : 0.33333333 : 1"
       id="perspective3731" />
    <inkscape:perspective
       sodipodi:type="inkscape:persp3d"
       inkscape:vp_x="0 : 0.5 : 1"
       inkscape:vp_y="0 : 1000 : 0"
       inkscape:vp_z="1 : 0.5 : 1"
       inkscape:persp3d-origin="0.5 : 0.33333333 : 1"
       id="perspective3707" />
    <inkscape:perspective
       sodipodi:type="inkscape:persp3d"
       inkscape:vp_x="0 : 0.5 : 1"
       inkscape:vp_y="0 : 1000 : 0"
       inkscape:vp_z="1 : 0.5 : 1"
       inkscape:persp3d-origin="0.5 : 0.33333333 : 1"
       id="perspective3682" />
    <inkscape:perspective
       sodipodi:type="inkscape:persp3d"
       inkscape:vp_x="0 : 0.5 : 1"
       inkscape:vp_y="0 : 1000 : 0"
       inkscape:vp_z="1 : 0.5 : 1"
       inkscape:persp3d-origin="0.5 : 0.33333333 : 1"
       id="perspective2884" />
    <inkscape:perspective
       id="perspective10"
       inkscape:persp3d-origin="372.04724 : 350.78739 : 1"
       inkscape:vp_z="744.09448 : 526.18109 : 1"
       inkscape:vp_y="0 : 1000 : 0"
       inkscape:vp_x="0 : 526.18109 : 1"
       sodipodi:type="inkscape:persp3d" />
  </defs>
  <sodipodi:namedview
     id="base"
     pagecolor="#ffffff"
     bordercolor="#666666"
     borderopacity="1.0"
     inkscape:pageopacity="0"
     inkscape:pageshadow="2"
     inkscape:zoom="1.4004643"
     inkscape:cx="180"
     inkscape:cy="90"
     inkscape:document-units="in"
     inkscape:current-layer="layer1"
     showgrid="true"
     borderlayer="true"
     inkscape:showpageshadow="false"
     units="in"
     inkscape:window-width="1280"
     inkscape:window-height="749"
     inkscape:window-x="0"
     inkscape:window-y="27"
     inkscape:window-maximized="1"
     showguides="false"
     inkscape:guide-bbox="true">
    <inkscape:grid
       type="xygrid"
       id="grid2987"
       empspacing="4"
       visible="true"
       enabled="true"
       snapvisiblegridlinesonly="true"
       units="in"
       spacingx="0.25in"
       spacingy="0.25in"
       color="#ee00ff"
       opacity="0.04705882"
       empcolor="#e100ff"
       empopacity="0.1254902" />
    <sodipodi:guide
       position="28.346457,255.11811"
       orientation="226.77164,0"
       id="guide3804" />
    <sodipodi:guide
       position="28.346457,28.346466"
       orientation="0,403.93702"
       id="guide3806" />
    <sodipodi:guide
       position="432.28348,28.346466"
       orientation="-226.77164,0"
       id="guide3808" />
    <sodipodi:guide
       position="106.29921,219.68504"
       orientation="0,-403.93702"
       id="guide3810" />
    <sodipodi:guide
       orientation="0,1"
       position="343.70079,180.70866"
       id="guide3913" />
    <sodipodi:guide
       orientation="1,0"
       position="180,112.5"
       id="guide3114" />
  </sodipodi:namedview>
  <metadata
     id="metadata7">
    <rdf:RDF>
      <cc:Work
         rdf:about="">
        <dc:format>image/svg+xml</dc:format>
        <dc:type
           rdf:resource="http://purl.org/dc/dcmitype/StillImage" />
        <dc:title />
      </cc:Work>
    </rdf:RDF>
  </metadata>
  <g
     inkscape:label="Color Fill"
     inkscape:groupmode="layer"
     id="layer1"
     transform="translate(0,-872.3621)"
     style="display:inline">
    <rect
       style="fill:#cf0000;fill-opacity:1;stroke:none"
       id="rect2985"
       width="360"
       height="179.99998"
       x="0"
       y="872.36212" />
    <g
       id="g4975"
       transform="matrix(0.75,0,0,0.75,75.5094,224.8273)">
      <path
         d="m 317.85942,897.51146 c -0.27168,0.52596 -0.27168,0.52596 0.26732,1.05627 3.62087,0 7.13524,4.86948 8.87612,12.19162 0,0 -0.2206,0 0.13149,-0.004 -1.80826,-7.94264 -5.1618,-13.24354 -9.27493,-13.24354 z"
         style="fill:#ffffff;fill-opacity:1;fill-rule:nonzero;stroke:none"
         id="path4215"
         inkscape:connector-curvature="0" />
      <path
         d="m 318.70378,909.702 c -8.54902,0 -16.69488,1.70285 -24.12787,4.78036 -0.3347,1.62135 -0.51292,3.30247 -0.51292,5.02596 0,13.60867 11.03212,24.64079 24.64079,24.64079 13.60975,0 24.64622,-11.03212 24.64622,-24.64079 0,-1.72349 -0.17822,-3.40461 -0.51401,-5.02596 -7.43625,-3.08186 -15.58645,-4.78036 -24.13221,-4.78036 z"
         style="fill:#ad0909;fill-opacity:1;fill-rule:nonzero;stroke:none"
         id="path4217"
         inkscape:connector-curvature="0" />
      <path
         d="m 343.34565,919.50398 c 0,13.61301 -11.03212,24.64513 -24.64187,24.64513 -13.60867,0 -24.64514,-11.03212 -24.64514,-24.64513 0,-13.60976 11.03647,-24.64188 24.64514,-24.64188 13.60975,0 24.64187,11.03212 24.64187,24.64188 z"
         style="fill:none;stroke:#ffb2b2;stroke-width:0.45000002;stroke-miterlimit:4;stroke-opacity:1;stroke-dasharray:none"
         id="path4213"
         inkscape:connector-curvature="0" />
      <g
         transform="matrix(1.086694,0,0,-1.086694,136.33479,1149.1485)"
         id="g4956"
         style="fill:#8a0b0b;fill-opacity:1;stroke:none">
        <path
           inkscape:connector-curvature="0"
           id="path4219"
           style="fill:#8a0b0b;fill-opacity:1;fill-rule:nonzero;stroke:none"
           d="M 167.688,211.938 144,198.898 l 4.684,-1.418 -0.086,-4.89 19.664,18.558 -0.574,0.79 z" />
        <path
           inkscape:connector-curvature="0"
           id="path4221"
           style="fill:#8a0b0b;fill-opacity:1;fill-rule:nonzero;stroke:none"
           d="m 171.484,214.973 -2.027,0.742 -2.18,-1.606 0.231,-2.007" />
        <path
           inkscape:connector-curvature="0"
           id="path4223"
           style="fill:#8a0b0b;fill-opacity:1;fill-rule:nonzero;stroke:none"
           d="m 168.363,210.875 c 0,0 12.981,9.496 14.965,10.91 3.184,2.274 6.27,5.481 6.27,5.481 l 0.05,0.074 -0.078,-0.024 c 0,0 -4,-1.957 -7.136,-4.289 -1.957,-1.457 -14.973,-10.906 -14.973,-10.906 l 0.902,-1.246 z" />
        <path
           inkscape:connector-curvature="0"
           id="path4225"
           style="fill:#8a0b0b;fill-opacity:1;fill-rule:nonzero;stroke:none"
           d="m 172.309,213.84 0.086,-2.156 -2.196,-1.582 -1.84,0.832" />
      </g>
      <path
         d="m 298.11636,923.69753 0,6.5332 1.80826,0 0,-2.69608 c 0.013,0.013 0.0337,0.013 0.0337,0.013 0,-0.0467 -0.009,-0.0674 -0.0337,-0.0674 l 4.85209,-0.013 c 0.95955,0 1.73979,-0.78133 1.73979,-1.72784 l 0,-2.16904 c 0,-0.94651 -0.78024,-1.72785 -1.73979,-1.72785 l -4.89447,0 c -1.01498,-0.013 -1.81696,0.81068 -1.76588,1.85499 z m 1.80826,-0.0467 4.75863,0 0,1.99517 -4.75863,0 0,-1.99517"
         style="fill:#ffffff;fill-opacity:1;fill-rule:nonzero;stroke:none"
         id="path4227"
         inkscape:connector-curvature="0" />
      <path
         d="m 317.03136,923.55735 c 0,-0.95521 -0.78134,-1.72785 -1.72785,-1.72785 l -4.94446,0 c -0.9552,0 -1.72784,0.77264 -1.72784,1.72785 l 0,1.65612 c 0,0.95846 0.77264,1.72784 1.72784,1.72784 l 4.8434,0 0,1.46812 -4.76298,0 0,-0.68787 -1.80826,0 0,0.78133 c 0,0.95955 0.77264,1.72784 1.72784,1.72784 l 4.94446,0 c 0.94651,0 1.72785,-0.76829 1.72785,-1.72784 l 0,-1.65503 c 0,-0.95521 -0.78134,-1.72785 -1.72785,-1.72785 l -4.86404,0 0,-1.46921 4.76298,0 0,0.68788 1.82891,0 0,-0.78133"
         style="fill:#ffffff;fill-opacity:1;fill-rule:nonzero;stroke:none"
         id="path4229"
         inkscape:connector-curvature="0" />
      <path
         d="m 321.37813,921.8295 c -0.9552,0 -1.7235,0.77264 -1.7235,1.72785 l 0,6.67338 1.80826,0 0,-2.70369 4.75864,0 0,2.70369 1.82999,0 0,-6.67338 c 0,-0.95521 -0.78133,-1.72785 -1.73654,-1.72785 l -4.93685,0 m 0.0848,3.87624 0,-2.05494 4.75864,0 0,2.05494 -4.75864,0"
         style="fill:#ffffff;fill-opacity:1;fill-rule:nonzero;stroke:none"
         id="path4231"
         inkscape:connector-curvature="0" />
      <path
         d="m 339.0706,923.55735 c 0,-0.95521 -0.7846,-1.72785 -1.72676,-1.72785 l -4.94555,0 c -0.95955,0 -1.72784,0.77264 -1.72784,1.72785 l 0,1.65612 c 0,0.95846 0.76829,1.72784 1.72784,1.72784 l 4.83905,0 0,1.46812 -4.75863,0 0,-0.68787 -1.80826,0 0,0.78133 c 0,0.95955 0.76829,1.72784 1.72784,1.72784 l 4.94555,0 c 0.94216,0 1.72676,-0.76829 1.72676,-1.72784 l 0,-1.65503 c 0,-0.95521 -0.7846,-1.72785 -1.72676,-1.72785 l -4.86513,0 0,-1.46921 4.75863,0 0,0.68788 1.83326,0 0,-0.78133"
         style="fill:#ffffff;fill-opacity:1;fill-rule:nonzero;stroke:none"
         id="path4233"
         inkscape:connector-curvature="0" />
      <path
         d="m 317.85942,897.51146 c -5.05096,0 -10.02258,8.12848 -11.19839,19.10191 -0.0543,0.51727 -0.26298,1.05192 -0.43685,1.56593 0.0598,0.10649 0.58138,0.33579 1.02258,0.34339 0.6368,0.0174 1.02367,-0.17822 1.18015,-0.34339 -0.10106,-0.2293 -0.13583,-1.06496 -0.0761,-1.58766 1.23557,-10.4377 5.25091,-18.02391 9.7759,-18.02391 0.27168,-0.52596 0.27168,-0.52596 -0.26732,-1.05627 z"
         style="fill:#ffffff;fill-opacity:1;fill-rule:nonzero;stroke:none"
         id="path4235"
         inkscape:connector-curvature="0" />
    </g>
  </g>
  <g
     inkscape:groupmode="layer"
     id="layer2"
     inkscape:label="Sticker"
     transform="translate(0,-103.4645)"
     style="display:inline">
    <g
       inkscape:label="Layer 1"
       id="layer1-4"
       transform="matrix(0.12351458,0,0,0.12351458,364.24254,-0.83390671)"
       style="display:none" />
    <path
       style="fill:none;stroke:#ffffff;stroke-width:1.08000004;stroke-linecap:butt;stroke-linejoin:miter;stroke-miterlimit:4;stroke-opacity:1;stroke-dasharray:none;display:inline"
       d="m 36.8,223.0135 286.2,0"
       id="path3853"
       inkscape:connector-curvature="0"
       sodipodi:nodetypes="cc" />
    <text
       xml:space="preserve"
       style="font-size:27px;font-style:normal;font-variant:normal;font-weight:normal;font-stretch:normal;text-align:center;line-height:125%;letter-spacing:0px;word-spacing:0px;writing-mode:lr-tb;text-anchor:middle;fill:#ffffff;fill-opacity:1;stroke:none;font-family:HelveticaNeue LT 65 Medium;-inkscape-font-specification:'HelveticaNeue LT 65 Medium,'"
       x="180"
       y="215.96449"
       id="text3116"
       sodipodi:linespacing="125%"><tspan
         sodipodi:role="line"
         id="tspan3118"
         x="180"
         y="215.96449">CRITICAL SPACE ITEM</tspan></text>
    <text
       xml:space="preserve"
       style="font-size:11px;font-style:normal;font-variant:normal;font-weight:normal;font-stretch:normal;text-align:center;line-height:125%;letter-spacing:0px;word-spacing:0px;writing-mode:lr-tb;text-anchor:middle;fill:#ffffff;fill-opacity:1;stroke:none;font-family:HelveticaNeue LT 55 Roman;-inkscape-font-specification:'HelveticaNeue LT 55 Roman,'"
       x="180"
       y="238.46449"
       id="text3888"
       sodipodi:linespacing="125%"><tspan
         sodipodi:role="line"
         id="tspan3890"
         x="180"
         y="238.46449">HANDLE WITH EXTREME CARE</tspan></text>
    <text
       xml:space="preserve"
       style="font-size:5px;font-style:normal;font-variant:normal;font-weight:normal;font-stretch:normal;text-align:start;line-height:125%;letter-spacing:0.29999999999999999px;word-spacing:2.5px;writing-mode:lr;text-anchor:start;fill:#ffffff;fill-opacity:1;stroke:none;font-family:HelveticaNeue LT 43 LightEx;-inkscape-font-specification:HelveticaNeue LT 43 LightEx"
       x="28.346457"
       y="148.46449"
       id="text3892"
       sodipodi:linespacing="125%"><tspan
         sodipodi:role="line"
         id="tspan3894"
         x="28.346457"
         y="148.46449">PORTLAND STATE AEROSPACE SOCIETY</tspan></text>
  </g>
</svg>
