<?xml version="1.0" encoding="UTF-8" standalone="no"?>
<!-- Created with Inkscape (http://www.inkscape.org/) -->

<svg
   xmlns:dc="http://purl.org/dc/elements/1.1/"
   xmlns:cc="http://creativecommons.org/ns#"
   xmlns:rdf="http://www.w3.org/1999/02/22-rdf-syntax-ns#"
   xmlns:svg="http://www.w3.org/2000/svg"
   xmlns="http://www.w3.org/2000/svg"
   xmlns:xlink="http://www.w3.org/1999/xlink"
   version="1.1"
   width="165.69617"
   height="163.90599"
   id="svg2">
  <defs
     id="defs4">
    <linearGradient
       id="linearGradient3755">
      <stop
         id="stop3757"
         style="stop-color:#ffffff;stop-opacity:1"
         offset="0" />
      <stop
         id="stop3763"
         style="stop-color:#d0d0d0;stop-opacity:1"
         offset="1" />
    </linearGradient>
    <linearGradient
       x1="124.55486"
       y1="30.710981"
       x2="40.377674"
       y2="127.89116"
       id="linearGradient3761"
       xlink:href="#linearGradient3755"
       gradientUnits="userSpaceOnUse" />
  </defs>
  <metadata
     id="metadata7">
    <rdf:RDF>
      <cc:Work
         rdf:about="">
        <dc:format>image/svg+xml</dc:format>
        <dc:type
           rdf:resource="http://purl.org/dc/dcmitype/StillImage" />
        <dc:title></dc:title>
      </cc:Work>
    </rdf:RDF>
  </metadata>
  <path
     d="M 6.8436739,68.607831 13.174072,64.84381 44.997156,13.687348 c 0,0 66.896914,-1.539827 67.752374,-2.053102 0.85546,-0.513276 5.98821,-7.5280416 5.98821,-7.5280416 l 2.56638,0.5132755 36.10038,84.1771891 -38.49567,47.734621 3.76403,17.96465 -0.51328,2.73747 -3.76402,-0.68437 -5.13276,-6.15931 -66.896909,1.36874 L 10.094419,75.109321 6.1593065,71.687484 z"
     id="path3827"
     style="fill:url(#linearGradient3761);fill-opacity:1;stroke:none" />
  <path
     d="m 42.21875,3.53125 -2.5,5.21875 -0.3125,5.8125 -28.0625,47.71875 -1.9375,-0.25 -5.875,7.9375 41.375,90.40625 4.65625,-0.1875 1.59375,-4.3125 -0.6875,-1.96875 61.5625,0.5625 2.3125,4.28125 8.4375,-0.34375 2.125,-4.3125 -2.6875,-5.90625 29.90625,-52.28125 7.34375,-0.34375 2.6875,-5.375 -40.625,-86.65625 -7.34375,0 -1.625,3.40625 -61.21875,0.71875 -0.53125,-4.125 -8.59375,0 z m 78.34375,1.3125 a 0.68606394,0.68606394 0 0 1 0.65625,1.09375 l -40.375,64.84375 40.28125,83.53125 a 0.85757992,0.85757992 0 1 1 -1.53125,0.75 L 79.53125,72 C 78.43852,72.00253 9.36304,72.1875 8.4375,72.1875 a 0.859375,0.859375 0 1 1 0,-1.71875 c 0.6985332,0 69.997186,-0.153835 71.09375,-0.15625 l 40.5,-65.09375 a 0.68606394,0.68606394 0 0 1 0.5,-0.34375 0.68606394,0.68606394 0 0 1 0.0312,-0.03125 z m -59.03125,13.5625 31.75,0.28125 L 99.3125,30.03125 92.6875,40.25 37.875,40.15625 48.53125,23.25 l 13,-4.84375 z m 59.28125,16.46875 9.65625,2.875 16.28125,34 0.1875,16.65625 L 137.75,104.4375 111.21875,50.03125 120.8125,34.875 z m -85.28125,8.78125 54.84375,0.15625 -9.21875,16.375 -14.25,6.0625 -35.25,-0.0625 -6.09375,-6.96875 9.96875,-15.5625 z m 72.84375,10.6875 26.6875,54.9375 -9.59375,17.25 L 114,125.09375 97.875,91.4375 97.84375,72.90625 108.375,54.34375 z M 45.96875,88.75 71.75,144.78125 51.53125,144.59375 40.0625,136.03125 22.875,97.25 29.75,89 45.96875,88.75 z m 24.34375,0.1875 11.8125,9.3125 18.4375,38.46875 -5.09375,8.15625 -19.75,0 L 50.09375,89 70.3125,88.9375 z"
     id="path4395"
     style="fill:#b4b4b4;fill-opacity:1;stroke:none" />
</svg>
