<svg id="Layer_1" data-name="Layer 1" xmlns="http://www.w3.org/2000/svg" xmlns:xlink="http://www.w3.org/1999/xlink" viewBox="0 0 570 600.27"><defs><style>.cls-1,.cls-4,.cls-7{fill:none;}.cls-2{fill:#94d2ba;}.cls-3{clip-path:url(#clip-path);}.cls-4{stroke:#fff;stroke-linecap:round;stroke-linejoin:round;stroke-width:5px;stroke-dasharray:24 24;}.cls-5{clip-path:url(#clip-path-3);}.cls-6{fill:#265b55;}.cls-7{stroke:#255b55;stroke-miterlimit:10;stroke-width:20px;}.cls-8{fill:#fff;}.cls-9{fill:#549d88;}</style><clipPath id="clip-path" transform="translate(-340.04 -342.01)"><path class="cls-1" d="M470.49,358.51A11,11,0,0,1,480,352h4.5a18.85,18.85,0,0,1,11.62,4.62,18.91,18.91,0,0,0,11.63,4.62h1.17c3.85,0,9.05,1.75,11.54,3.88s4.54,7,4.54,10.88v18.33c0,1.68,3,4,6.69,5.09L543.29,403a32.27,32.27,0,0,0,13.55.59l5.3-1.11A54.83,54.83,0,0,0,574.49,398a31,31,0,0,1,12.5-3h15a31,31,0,0,1,12.5,3c3,1.65,8.39,1.75,11.93.24l1.13-.49a24.44,24.44,0,0,1,13.23-1.06l2.42.61a23.48,23.48,0,0,0,13.16-1.2l13.25-6c3.51-1.59,8.4-2.27,10.88-1.5s7.32,0,10.76-1.73l29.48-14.74A35.14,35.14,0,0,1,734,369h82a23.37,23.37,0,0,1,12.48,4.35l1,.79c3,2.4,8.09,6.12,11.28,8.28l2.44,1.65a22.87,22.87,0,0,1,7.8,10.43,20.67,20.67,0,0,1-1,12.83l-11,23.34A37.11,37.11,0,0,0,836,444v3a21.36,21.36,0,0,1-4.65,12.23l-6.7,7.53a28.62,28.62,0,0,0-5.8,12.14l-.7,4.19a34.9,34.9,0,0,0,.85,13.41c1.1,3.57,4.34,6.5,7.2,6.5s6,1.91,7,4.25.42,7.09-1.25,10.56l-.9,1.88A36.59,36.59,0,0,0,828,533V668c0,2.2-3.06,3.25-6.8,2.33l-31.4-7.67a45,45,0,0,0-13.75-.78l-57.11,7.24A135.31,135.31,0,0,1,705,670H483a61.94,61.94,0,0,1-13.75-1.87l-15.5-4.27a34.11,34.11,0,0,1-11.88-6.63l-3.74-3.47a22.44,22.44,0,0,1-6-11.71L427.86,608a37.87,37.87,0,0,1,1.25-13.61l18-56.66c1.17-3.67,3.38-9.56,4.92-13.09l8.62-19.86a45.15,45.15,0,0,0,3.1-13.41l1.38-31A20.64,20.64,0,0,0,460.93,448l-1.4-1.64a13.25,13.25,0,0,1-2.12-11.9l2.16-5.87A67.49,67.49,0,0,0,462.72,415L467.26,372A63.2,63.2,0,0,1,470.49,358.51Z"/></clipPath><clipPath id="clip-path-3" transform="translate(-340.04 -342.01)"><path class="cls-1" d="M470.49,358.51A11,11,0,0,1,480,352h4.5a18.85,18.85,0,0,1,11.62,4.62,18.91,18.91,0,0,0,11.63,4.62h1.17c3.85,0,9.05,1.75,11.54,3.88s4.54,7,4.54,10.88v18.33c0,1.68,3,4,6.69,5.09L543.29,403a32.27,32.27,0,0,0,13.55.59l5.3-1.11A54.83,54.83,0,0,0,574.49,398a31,31,0,0,1,12.5-3h15a31,31,0,0,1,12.5,3c3,1.65,8.39,1.75,11.93.24l1.13-.49a24.44,24.44,0,0,1,13.23-1.06l2.42.61a23.48,23.48,0,0,0,13.16-1.2l13.25-6c3.51-1.59,8.4-2.27,10.88-1.5s7.32,0,10.76-1.73l29.48-14.74A35.14,35.14,0,0,1,734,369h82a23.37,23.37,0,0,1,12.48,4.35l1,.79c3,2.4,8.09,6.12,11.28,8.28l2.44,1.65a22.87,22.87,0,0,1,7.8,10.43,20.67,20.67,0,0,1-1,12.83l-11,23.34A37.11,37.11,0,0,0,836,444v3a21.36,21.36,0,0,1-4.65,12.23l-6.7,7.53a28.62,28.62,0,0,0-5.8,12.14l-.7,4.19a34.9,34.9,0,0,0,.85,13.41c1.1,3.57,4.34,6.5,7.2,6.5s6,1.91,7,4.25.42,7.09-1.25,10.56l-.9,1.88A36.59,36.59,0,0,0,828,533V668c0,2.2-3.06,3.25-6.8,2.33l-31.4-7.67a45,45,0,0,0-13.75-.78l-57.11,7.24A135.31,135.31,0,0,1,705,670H483a61.94,61.94,0,0,1-13.75-1.87l-15.5-4.27a34.11,34.11,0,0,1-11.88-6.63l-3.74-3.47a22.44,22.44,0,0,1-6-11.71L427.86,608a37.87,37.87,0,0,1,1.25-13.61l18-56.66a73.78,73.78,0,0,0,2.7-13.65l1.58-19c.32-3.83.72-10.12.89-14l1.38-31c.17-3.85.53-9.69.81-13a57.81,57.81,0,0,1,2.92-12.57l2.16-5.87A67.49,67.49,0,0,0,462.72,415L467.26,372A63.2,63.2,0,0,1,470.49,358.51Z"/></clipPath></defs><polygon class="cls-2" points="135.2 12.16 153.45 12.16 162.58 21.29 177.55 21.29 186.5 28.93 186.5 50.91 186.5 56.94 211.16 64.45 229.91 60.5 240.76 54.58 269.36 54.58 280.22 60.5 294.03 54.58 309.81 58.53 335.46 46.9 344.34 49.65 385.77 28.93 480.47 28.93 492.27 38.3 506.12 47.68 510.07 60.5 493.3 96.01 493.3 112.78 477.51 130.54 474.55 148.3 478.5 161.12 488.76 161.12 492.27 169.51 485.4 183.81 485.4 319.94 485.4 327.84 441.01 316.99 370.97 325.86 138.16 325.86 109.55 317.97 95.74 305.15 89.83 257.8 111.79 188.74 114.49 156.19 116.46 111.8 117.45 99.96 124.35 81.22 130.27 24.99 135.2 12.16"/><g class="cls-3"><path class="cls-4" d="M663.45,637.23" transform="translate(-340.04 -342.01)"/><path class="cls-4" d="M630.84,655c103.35-43.31,176.66-103.4,163.75-134.21" transform="translate(-340.04 -342.01)"/><g class="cls-5"><ellipse class="cls-6" cx="285" cy="388.27" rx="285" ry="212"/></g><path class="cls-4" d="M430.11,695.22" transform="translate(-340.04 -342.01)"/><path class="cls-4" d="M790.05,507.87c-15.43-29.64-108.51-11.73-207.9,40-55.43,28.85-101.11,62.12-128,91" transform="translate(-340.04 -342.01)"/></g><path class="cls-7" d="M470.83,357.61A9.44,9.44,0,0,1,479,352h6.5a16.7,16.7,0,0,1,10.24,4.24l.77.76a16.64,16.64,0,0,0,10.24,4.24h3.17a18.88,18.88,0,0,1,10.54,3.88A14.8,14.8,0,0,1,525,375v19.33c0,1.68,2.58,3.84,5.74,4.8l13.52,4.12a27.73,27.73,0,0,0,11.61.51l7.26-1.53a49.21,49.21,0,0,0,11.14-4.11l.46-.25A28,28,0,0,1,586,395h17a28,28,0,0,1,11.27,2.87l.46.25a14,14,0,0,0,10.78.51l3-1.27a20.88,20.88,0,0,1,11.34-.91l4.36,1.09a20.12,20.12,0,0,0,11.28-1l15.07-6.84c3-1.36,7.49-1.85,10-1.08s6.91.19,9.86-1.29l31.27-15.63A30.19,30.19,0,0,1,733,369h84a20.05,20.05,0,0,1,10.7,3.73l2.56,2c2.59,2.06,6.94,5.25,9.67,7.1l4.1,2.77a19.93,19.93,0,0,1,6.73,9.1l.47,1.53a17.93,17.93,0,0,1-.79,11.16l-11.88,25.15A31.9,31.9,0,0,0,836,443v5a18.34,18.34,0,0,1-4,10.48l-8,9a24.61,24.61,0,0,0-5,10.4l-1,6.17a30.31,30.31,0,0,0,.78,11.65l.47,1.53c1,3.16,4.11,5.74,7,5.74s6,1.91,7,4.25.61,6.68-.81,9.65l-1.77,3.69A31.38,31.38,0,0,0,828,532V668c0,2.2-2.62,3.35-5.83,2.57l-33.34-8.15a39.17,39.17,0,0,0-11.78-.67l-59.1,7.49a113.59,113.59,0,0,1-12,.76H482a53.38,53.38,0,0,1-11.79-1.6l-17.43-4.81a29.21,29.21,0,0,1-10.18-5.68l-5.2-4.83a19.21,19.21,0,0,1-5.15-10L427.73,607a32.58,32.58,0,0,1,1.08-11.67l18.63-58.57c1-3.14,2.89-8.19,4.21-11.22l9.42-21.68a39,39,0,0,0,2.66-11.5l1.47-33a93.62,93.62,0,0,0-.4-12L462.65,428a67,67,0,0,1,0-11.93L467.36,371a55.35,55.35,0,0,1,2.78-11.56Z" transform="translate(-340.04 -342.01)"/><path class="cls-8" d="M593.75,568.6a4.35,4.35,0,0,1-3.89-2.86l-20.07-64.48a4.77,4.77,0,0,1,1.45-4.75l46.5-37.3a9.6,9.6,0,0,1,5.34-1.81l61.67,1.28a4.69,4.69,0,0,1,4,2.9l22.69,64.22a4.25,4.25,0,0,1-1.43,4.58l-50.5,36.55a10.75,10.75,0,0,1-5.43,1.75Z" transform="translate(-340.04 -342.01)"/><rect class="cls-8" x="628.08" y="444.38" width="8.39" height="95.07" rx="3" transform="translate(-462.9 -117.54) rotate(-18.38)"/><path class="cls-9" d="M631.39,461.7a26.28,26.28,0,0,0-14.33,4.7l-34.23,26.43c-3.49,2.69-2.74,4.86,1.66,4.82l42.83-.34a28.63,28.63,0,0,0,14.41-4.86l33.17-24.77c3.53-2.63,2.81-4.87-1.59-5Z" transform="translate(-340.04 -342.01)"/><path class="cls-9" d="M688.07,477.6c-1.44-4.16-5.55-5.48-9.14-2.93L646,498.07a11.35,11.35,0,0,0-3.91,12.2l14.66,42.34c1.44,4.16,5.55,5.48,9.13,2.93l32.91-23.41a11.35,11.35,0,0,0,3.9-12.19Z" transform="translate(-340.04 -342.01)"/><path class="cls-9" d="M649.4,554.79c1.34,4.19-1.17,7.71-5.57,7.81l-40.36.94A11.35,11.35,0,0,1,593,556.11l-13.6-42.69c-1.33-4.2,1.17-7.71,5.57-7.81l40.37-.95a11.35,11.35,0,0,1,10.42,7.44Z" transform="translate(-340.04 -342.01)"/><rect class="cls-8" x="640.86" y="482.85" width="8.39" height="95.07" rx="3" transform="translate(-474.38 -111.55) rotate(-18.38)"/><rect class="cls-8" x="578.08" y="484.56" width="8.39" height="95.07" rx="3" transform="translate(-478.12 -131.26) rotate(-18.38)"/><rect class="cls-8" x="693.51" y="446.21" width="8.39" height="95.07" rx="3" transform="translate(-460.14 -96.81) rotate(-18.38)"/></svg>