<?xml version="1.0" encoding="UTF-8" standalone="no"?>
<!-- Created with Inkscape (http://www.inkscape.org/) -->

<svg
   xmlns:dc="http://purl.org/dc/elements/1.1/"
   xmlns:cc="http://creativecommons.org/ns#"
   xmlns:rdf="http://www.w3.org/1999/02/22-rdf-syntax-ns#"
   xmlns:svg="http://www.w3.org/2000/svg"
   xmlns="http://www.w3.org/2000/svg"
   xmlns:xlink="http://www.w3.org/1999/xlink"
   xmlns:sodipodi="http://sodipodi.sourceforge.net/DTD/sodipodi-0.dtd"
   xmlns:inkscape="http://www.inkscape.org/namespaces/inkscape"
   id="svg3004"
   version="1.1"
   inkscape:version="0.48.1 r9760"
   width="6480.6421"
   height="2700.022"
   xml:space="preserve"
   sodipodi:docname="PSAS_Banner.pdf"><metadata
     id="metadata3010"><rdf:RDF><cc:Work
         rdf:about=""><dc:format>image/svg+xml</dc:format><dc:type
           rdf:resource="http://purl.org/dc/dcmitype/StillImage" /><dc:title></dc:title></cc:Work></rdf:RDF></metadata><defs
     id="defs3008"><clipPath
       clipPathUnits="userSpaceOnUse"
       id="clipPath3018"><path
         d="m 5599,8964.6465 c 100.8418,-26.416 307.7227,-83.5928 397.0596,-100.5039 81.0986,-15.3555 302.2846,-60.9707 390.7485,-75.8135 251.876,-42.2685 216.9448,-36.7598 421.6772,-59.8867 269.7242,-30.4492 590.6573,-49.8779 813.9317,-60.9404 219.2134,-10.9825 399.7627,-10.6426 627.7715,-15.4766 228.0566,-4.8184 453.4248,6.7988 684.6865,19.9766 231.2324,13.1816 618.1397,55.916 846.3799,88.8652 228.1411,32.9492 67.5381,3.3271 289.5661,45.8994 150.231,28.7637 209.664,35.2891 376.601,75.8662 81.192,19.7227 259.463,76.3926 335.578,93.3399 0,-88.0977 0,-340.0079 0,-447.6934 0,-111.1133 0,-190.1543 0,-300.0039 -0.02,-60.7969 0.02,-368.5601 0,-425.2735 0,-24.2519 0,-324.8769 0,-353.4467 -0.04,-20.6514 0,-313.4302 0,-338.5552 -26.165,0 -20.332,0 -39.404,0 -40.976,5e-4 -142.06,-0.03 -301.66,0 -183.934,0 -191.269,-0.038 -395.845,0 -228.091,0 -707.758,0.014 -945.3429,0 -231.7481,0 -537.7481,0 -791.8516,0 -228.0698,-0.02 -502.896,0 -739.6494,0 -219.4844,0.014 -563.5801,0 -920.6656,0 -205.7241,0 -446.748,0 -557.4692,0 -77.4917,-0.01 -489.8623,0 -492.1123,0 0,0 0,133 0,238.2534 0,3.7466 0.021,176.666 0,197.4902 -0.027,24.399 0,221.5064 0,240.9615 -0.023,57.3379 0,358.9199 0,394.9375 -5e-4,105.6748 -0.011,281.2324 0,311.2812 0,167.5762 0,344.6328 0,470.7227 z"
         id="path3020" /></clipPath><clipPath
       clipPathUnits="userSpaceOnUse"
       id="clipPath3026"><path
         d="m 5598.9873,7110.9624 5184.0187,0 0,1865.0103 -5184.0187,0 0,-1865.0103 z"
         id="path3028" /></clipPath><clipPath
       clipPathUnits="userSpaceOnUse"
       id="clipPath3346"><path
         d="m 5599,9271 c 200.8027,0 461.1582,0 661.9609,0 244.9063,0 429.8243,0 674.7305,0 417.377,0 1250.1777,0 1255.3887,0 393.0371,0 612.4502,0 1005.4873,0 209.374,0 456.3642,-0.019 707.0068,-0.01 199.4938,0.01 622.0778,0.01 879.4258,0.01 0,-58.4287 0.08,-96.7324 0.08,-155.1611 0,-39.8213 0,-99.7676 0,-139.5889 -27.678,-8.293 -55.687,-16.4121 -84.01,-24.3584 -217.793,-61.1055 -368.192,-100.6103 -607.78,-142.6006 -194.8368,-34.1474 -475.0683,-74.001 -685.0546,-95.6162 -394.1875,-40.5771 -835.2158,-61.7041 -1218.2378,-63.8418 -4.0596,-0.022 3.8823,3.083 -0.1729,3.0645 -329.5249,-1.5157 -933.9897,26.1201 -1344.645,72.1855 -240.4926,26.9776 -373.1513,48.4082 -628.6675,95.0889 -209.5019,38.2744 -327.7543,59.6484 -540.9633,120.6582 -27.4888,7.8662 -47.4839,15.9443 -74.9825,24.2353 0,42.0694 0.4356,84.2637 0.4356,126.333 0,67.1016 0,98.5391 0,179.6016 z"
         id="path3348" /></clipPath><clipPath
       clipPathUnits="userSpaceOnUse"
       id="clipPath3354"><path
         d="m 5598.5644,8649.8106 5184.5136,0 0,621.1904 -5184.5136,0 0,-621.1904 z"
         id="path3356" /></clipPath><linearGradient
       x1="0"
       y1="0"
       x2="1"
       y2="0"
       gradientUnits="userSpaceOnUse"
       gradientTransform="matrix(40.75926,14.3848,-14.3848,40.75926,2561.0093,-1264.7988)"
       spreadMethod="pad"
       id="linearGradient3654"><stop
         style="stop-opacity:1;stop-color:#ffffff"
         offset="0"
         id="stop3656" /><stop
         style="stop-opacity:1;stop-color:#231f20"
         offset="1"
         id="stop3658" /></linearGradient><linearGradient
       x1="0"
       y1="0"
       x2="1"
       y2="0"
       gradientUnits="userSpaceOnUse"
       gradientTransform="matrix(44.37498,15.59026,-15.59026,44.37498,2740.3057,-1753.3262)"
       spreadMethod="pad"
       id="linearGradient3676"><stop
         style="stop-opacity:1;stop-color:#ffffff"
         offset="0"
         id="stop3678" /><stop
         style="stop-opacity:1;stop-color:#231f20"
         offset="1"
         id="stop3680" /></linearGradient><linearGradient
       inkscape:collect="always"
       xlink:href="#linearGradient3654"
       id="linearGradient3762"
       gradientUnits="userSpaceOnUse"
       gradientTransform="matrix(40.75926,14.3848,-14.3848,40.75926,2561.0093,-1264.7988)"
       spreadMethod="pad"
       x1="0"
       y1="0"
       x2="1"
       y2="0" /><linearGradient
       inkscape:collect="always"
       xlink:href="#linearGradient3676"
       id="linearGradient3764"
       gradientUnits="userSpaceOnUse"
       gradientTransform="matrix(44.37498,15.59026,-15.59026,44.37498,2740.3057,-1753.3262)"
       spreadMethod="pad"
       x1="0"
       y1="0"
       x2="1"
       y2="0" /></defs><sodipodi:namedview
     pagecolor="#ffffff"
     bordercolor="#666666"
     borderopacity="1"
     objecttolerance="10"
     gridtolerance="10"
     guidetolerance="10"
     inkscape:pageopacity="0"
     inkscape:pageshadow="2"
     inkscape:window-width="1280"
     inkscape:window-height="723"
     id="namedview3006"
     showgrid="false"
     inkscape:zoom="0.13254859"
     inkscape:cx="3240.321"
     inkscape:cy="1350.011"
     inkscape:window-x="0"
     inkscape:window-y="25"
     inkscape:window-maximized="1"
     inkscape:current-layer="g3012" /><g
     id="g3012"
     inkscape:groupmode="layer"
     inkscape:label="PSAS_Banner"
     transform="matrix(1.25,0,0,-1.25,0,2700.022)"><path
       inkscape:connector-curvature="0"
       id="path3570"
       style="fill:#231f20;fill-opacity:1;fill-rule:nonzero;stroke:none"
       d="m 294.4707,541.41895 c 0,0 -66.78906,-15.87696 -66.78906,-15.87696 0,0 8.81055,-30.33594 8.81055,-30.33594 0,0 66.7959,15.82227 66.7959,15.82227 5.1499,1.26367 8.49511,2.78125 9.99023,4.58008 1.49609,1.76953 1.77051,4.3418 0.76563,7.72851 0,0 -3.55469,12.25 -3.55469,12.25 -0.94824,3.34571 -2.57813,5.42383 -4.86817,6.31055 -2.27636,0.90039 -6,0.73047 -11.15039,-0.47851 z M 226.396,423.16699 c 0,0 -33.5669,115.45508 -33.5669,115.45508 0,0 108.99072,25.86914 108.99072,25.86914 10.17334,2.44336 18.03467,2.38867 23.59815,-0.0293 5.58594,-2.45703 9.51953,-7.58593 11.79639,-15.45507 0,0 7.43994,-25.57227 7.43994,-25.57227 2.27539,-7.82617 1.63574,-14.03711 -1.88379,-18.64648 -3.52735,-4.59375 -10.34766,-8.16211 -20.50684,-10.57813 0,0 -79.94092,-19.04101 -79.94092,-19.04101 0,0 13.09424,-45.10157 13.09424,-45.10157 0,0 -29.02099,-6.90039 -29.02099,-6.90039 z" /><path
       inkscape:connector-curvature="0"
       id="path3572"
       style="fill:#231f20;fill-opacity:1;fill-rule:nonzero;stroke:none"
       d="m 413.896,485.44238 c 0,0 84.66943,17.46485 84.66943,17.46485 0,0 -15.02734,59.54492 -15.02734,59.54492 0,0 -84.68262,-17.46485 -84.68262,-17.46485 0,0 15.04053,-59.54492 15.04053,-59.54492 z m -39.55323,49.27539 c -2.16406,8.58594 -1.78418,14.86524 1.15186,18.74219 2.97217,3.91992 9.84326,6.99805 20.68213,9.24609 0,0 81.26318,16.79102 81.26318,16.79102 10.90283,2.26172 18.60938,2.17773 23.09912,-0.22461 4.50342,-2.34766 7.83399,-7.86914 10.01123,-16.41211 0,0 12.7085,-50.3164 12.7085,-50.3164 2.17236,-8.72461 1.76465,-14.97657 -1.21484,-18.92383 -2.99317,-3.87891 -9.85547,-6.99805 -20.60645,-9.17578 0,0 -81.25342,-16.80469 -81.25342,-16.80469 -10.85498,-2.23633 -18.51269,-2.20508 -23.0581,0.21094 -4.54493,2.35937 -7.87549,7.88281 -10.08057,16.53711 0,0 -12.70264,50.33007 -12.70264,50.33007 z" /><path
       inkscape:connector-curvature="0"
       id="path3574"
       style="fill:#231f20;fill-opacity:1;fill-rule:nonzero;stroke:none"
       d="m 634.79346,591.97363 c 0,0 -58.97705,-10.73437 -58.97705,-10.73437 0,0 5.83007,-26.23438 5.83007,-26.23438 0,0 58.99903,10.69336 58.99903,10.69336 4.47461,0.84375 7.44678,1.96875 8.8457,3.40039 1.41797,1.50391 1.8125,3.65235 1.20166,6.41992 0,0 -2.4458,10.91993 -2.4458,10.91993 -0.61816,2.78125 -1.89062,4.55273 -3.81543,5.46484 -1.9248,0.83008 -5.13428,0.88477 -9.63818,0.0703 z m -66.76221,-94.44922 c 0,0 -21.27881,95.72657 -21.27881,95.72657 0,0 95.36182,17.36718 95.36182,17.36718 8.73926,1.54493 15.39258,1.25 19.95215,-0.99609 4.5791,-2.17969 7.60107,-6.61719 9.083,-13.17969 0,0 4.94483,-22.36914 4.94483,-22.36914 1.45508,-6.50586 0.55517,-11.62109 -2.73194,-15.18945 -3.26757,-3.63867 -9.25927,-6.21094 -18.01269,-7.8125 0,0 -14.55664,-2.62695 -14.55664,-2.62695 0,0 58.48047,-27.06055 58.48047,-27.06055 0,0 -37.09522,-6.75781 -37.09522,-6.75781 0,0 -52.47851,28.1289 -52.47851,28.1289 0,0 -24.35108,-4.37109 -24.35108,-4.37109 0,0 8.0376,-36.23633 8.0376,-36.23633 0,0 -25.35498,-4.62305 -25.35498,-4.62305 z" /><path
       inkscape:connector-curvature="0"
       id="path3576"
       style="fill:#231f20;fill-opacity:1;fill-rule:nonzero;stroke:none"
       d="m 763.53906,613.10645 c 0,0 15.71729,-78.76758 15.71729,-78.76758 0,0 -25.7627,-4.20313 -25.7627,-4.20313 0,0 -15.70801,78.74024 -15.70801,78.74024 0,0 -51.11718,-8.34571 -51.11718,-8.34571 0,0 -3.44239,17.35352 -3.44239,17.35352 0,0 128.37452,20.97851 128.37452,20.97851 0,0 3.46337,-17.33984 3.46337,-17.33984 0,0 -51.5249,-8.41601 -51.5249,-8.41601 z" /><path
       inkscape:connector-curvature="0"
       id="path3578"
       style="fill:#231f20;fill-opacity:1;fill-rule:nonzero;stroke:none"
       d="m 859.08496,546.96973 c 0,0 -17.31006,96.5 -17.31006,96.5 0,0 26.1626,3.82031 26.1626,3.82031 0,0 14.06396,-78.38867 14.06396,-78.38867 0,0 83.38428,12.26758 83.38428,12.26758 0,0 3.25879,-18.09766 3.25879,-18.09766 0,0 -109.55957,-16.10156 -109.55957,-16.10156 z" /><path
       inkscape:connector-curvature="0"
       id="path3580"
       style="fill:#231f20;fill-opacity:1;fill-rule:nonzero;stroke:none"
       d="m 1020.7661,609.60645 c 0,0 48.98,6.42187 48.98,6.42187 0,0 -31.3384,36.89844 -31.3384,36.89844 0,0 -17.6416,-43.32031 -17.6416,-43.32031 z m -44.37938,-45.42579 c 0,0 47.99068,104.77539 47.99068,104.77539 0,0 25.0381,3.26172 25.0381,3.26172 0,0 79.8355,-88 79.8355,-88 0,0 -29.2461,-3.89257 -29.2461,-3.89257 0,0 -16.791,19.33398 -16.791,19.33398 0,0 -70.7241,-9.25977 -70.7241,-9.25977 0,0 -10.0743,-22.79101 -10.0743,-22.79101 0,0 -26.02878,-3.42774 -26.02878,-3.42774 z" /><path
       inkscape:connector-curvature="0"
       id="path3582"
       style="fill:#231f20;fill-opacity:1;fill-rule:nonzero;stroke:none"
       d="m 1150.335,586.64941 c 0,0 -13.5108,96.79493 -13.5108,96.79493 0,0 17.9229,2.02343 17.9229,2.02343 0,0 99.7514,-53.89843 99.7514,-53.89843 0,0 -8.9497,64.26757 -8.9497,64.26757 0,0 23.6831,2.74024 23.6831,2.74024 0,0 13.5015,-96.85156 13.5015,-96.85156 0,0 -18.0542,-2.06641 -18.0542,-2.06641 0,0 -99.7607,54.95117 -99.7607,54.95117 0,0 9.1191,-65.26367 9.1191,-65.26367 0,0 -23.7026,-2.69727 -23.7026,-2.69727 z" /><path
       inkscape:connector-curvature="0"
       id="path3584"
       style="fill:#231f20;fill-opacity:1;fill-rule:nonzero;stroke:none"
       d="m 1349.707,626.91699 c 0,0 33.7012,3.30274 33.7012,3.30274 18.4062,1.75586 31.0088,5.48047 37.7744,11.05859 6.7578,5.60547 9.4634,14.15039 8.0796,25.66992 -1.2007,10.03321 -5.1489,17.25391 -11.8442,21.52539 -6.6885,4.32813 -16.3628,5.87305 -29.001,4.63867 0,0 -46.0591,-4.51171 -46.0591,-4.51171 0,0 7.3491,-61.6836 7.3491,-61.6836 z m -24.3711,-20.69531 c 0,0 -11.6132,97.11914 -11.6132,97.11914 0,0 72.3818,7.08008 72.3818,7.08008 20.7544,2.05078 37.1719,-0.57617 49.3047,-7.81055 12.1055,-7.28125 19.1011,-18.61914 20.9492,-34.11719 1.9678,-16.27148 -2.4805,-29.11132 -13.2847,-38.38476 -10.8042,-9.3457 -28.1235,-15.16016 -51.9174,-17.48047 0,0 -65.8204,-6.40625 -65.8204,-6.40625 z" /><path
       inkscape:connector-curvature="0"
       id="path3586"
       style="fill:#231f20;fill-opacity:1;fill-rule:nonzero;stroke:none"
       d="m 1703.3623,737.70801 c 0,0 -85.7871,-6.26758 -85.7871,-6.26758 0,0 2.3345,-25.86719 2.3345,-25.86719 0,0 81.7046,5.98633 81.7046,5.98633 12.7651,0.94141 21.603,-0.4082 26.4638,-4.00391 4.8257,-3.625 7.7417,-10.79101 8.6968,-21.52734 0,0 1.4692,-16.19922 1.4692,-16.19922 0.9546,-10.84765 -0.6254,-18.41992 -4.7636,-22.73437 -4.1304,-4.36914 -12.6104,-6.95508 -25.3897,-7.91016 0,0 -80.9604,-5.94531 -80.9604,-5.94531 -12.9268,-0.95508 -21.835,0.42187 -26.7241,4.0625 -4.9112,3.69531 -7.854,10.91601 -8.8238,21.79297 0,0 -0.2881,3.21679 -0.2881,3.21679 0,0 26.4991,7.05469 26.4991,7.05469 0,0 1.2583,-14.03906 1.2583,-14.03906 0,0 92.7212,6.81445 92.7212,6.81445 0,0 -2.3824,26.97852 -2.3824,26.97852 0,0 -81.6054,-6.01367 -81.6054,-6.01367 -12.709,-0.94141 -21.4424,0.39257 -26.2403,4.01757 -4.8193,3.6543 -7.6933,10.89063 -8.6631,21.6543 0,0 -1.1855,13.33398 -1.1855,13.33398 -0.9766,10.74805 0.582,18.26368 4.6782,22.57813 4.0943,4.27148 12.4844,6.92773 25.1787,7.82812 0,0 74.3692,5.49219 74.3692,5.49219 12.3315,0.85547 21.0141,-0.3789 26.0371,-3.87695 5.0151,-3.44336 7.9731,-10.07422 8.852,-19.78516 0,0 0.211,-2.47265 0.211,-2.47265 0,0 -26.4292,-7.83985 -26.4292,-7.83985 0,0 -1.231,13.67188 -1.231,13.67188 z" /><path
       inkscape:connector-curvature="0"
       id="path3588"
       style="fill:#231f20;fill-opacity:1;fill-rule:nonzero;stroke:none"
       d="m 1847.4736,728.5459 c 0,0 5.7959,-80.14453 5.7959,-80.14453 0,0 -26.1484,-1.51758 -26.1484,-1.51758 0,0 -5.7886,80.13086 -5.7886,80.13086 0,0 -51.8476,-3.0918 -51.8476,-3.0918 0,0 -1.2559,17.35352 -1.2559,17.35352 0,0 130.292,7.68554 130.292,7.68554 0,0 1.2437,-17.33789 1.2437,-17.33789 0,0 -52.2911,-3.07812 -52.2911,-3.07812 z" /><path
       inkscape:connector-curvature="0"
       id="path3590"
       style="fill:#231f20;fill-opacity:1;fill-rule:nonzero;stroke:none"
       d="m 1947.957,692.80176 c 0,0 49.438,2.36133 49.438,2.36133 0,0 -27.5464,39.46875 -27.5464,39.46875 0,0 -21.8916,-41.83008 -21.8916,-41.83008 z m -48.7978,-41.63281 c 0,0 58.31,100.61718 58.31,100.61718 0,0 25.2925,1.19336 25.2925,1.19336 0,0 70.7793,-94.36328 70.7793,-94.36328 0,0 -29.5346,-1.40625 -29.5346,-1.40625 0,0 -14.8306,20.76758 -14.8306,20.76758 0,0 -71.3906,-3.42774 -71.3906,-3.42774 0,0 -12.316,-22.08789 -12.316,-22.08789 0,0 -26.31,-1.29296 -26.31,-1.29296 z" /><path
       inkscape:connector-curvature="0"
       id="path3592"
       style="fill:#231f20;fill-opacity:1;fill-rule:nonzero;stroke:none"
       d="m 2121.2661,741.27637 c 0,0 3.6382,-80.13086 3.6382,-80.13086 0,0 -26.1338,-0.95508 -26.1338,-0.95508 0,0 -3.6113,80.13086 -3.6113,80.13086 0,0 -52.2749,-1.95313 -52.2749,-1.95313 0,0 -0.7949,17.39454 -0.7949,17.39454 0,0 130.6582,4.79101 130.6582,4.79101 0,0 0.7949,-17.35156 0.7949,-17.35156 0,0 -52.2764,-1.92578 -52.2764,-1.92578 z" /><path
       inkscape:connector-curvature="0"
       id="path3594"
       style="fill:#231f20;fill-opacity:1;fill-rule:nonzero;stroke:none"
       d="m 2205.3315,663.92676 c 0,0 -3.0566,97.4414 -3.0566,97.4414 0,0 115.9531,2.92383 115.9531,2.92383 0,0 0.5699,-17.32422 0.5699,-17.32422 0,0 -89.4395,-2.27734 -89.4395,-2.27734 0,0 0.689,-21.39844 0.689,-21.39844 0,0 51.852,1.30469 51.852,1.30469 0,0 0.4995,-16.57813 0.4995,-16.57813 0,0 -51.8476,-1.3496 -51.8476,-1.3496 0,0 0.7802,-23.99805 0.7802,-23.99805 0,0 90.6202,2.31836 90.6202,2.31836 0,0 0.5337,-18.125 0.5337,-18.125 0,0 -117.1539,-2.9375 -117.1539,-2.9375 z" /><path
       inkscape:connector-curvature="0"
       id="path3596"
       style="fill:#231f20;fill-opacity:1;fill-rule:nonzero;stroke:none"
       d="m 2491.2832,716.75879 c 0,0 57.7212,0.26562 57.7212,0.26562 0,0 -28.6909,48.34961 -28.6909,48.34961 0,0 -29.0303,-48.61523 -29.0303,-48.61523 z m -58.6548,-47.92774 c 0,0 73.8164,119.57227 73.8164,119.57227 0,0 29.5542,0.125 29.5542,0.125 0,0 76.2403,-118.8125 76.2403,-118.8125 0,0 -34.3819,-0.19727 -34.3819,-0.19727 0,0 -15.9966,26.1211 -15.9966,26.1211 0,0 -83.5395,-0.39258 -83.5395,-0.39258 0,0 -15.1455,-26.26172 -15.1455,-26.26172 0,0 -30.5474,-0.1543 -30.5474,-0.1543 z" /><path
       inkscape:connector-curvature="0"
       id="path3598"
       style="fill:#231f20;fill-opacity:1;fill-rule:nonzero;stroke:none"
       d="m 2633.8203,669.46387 c 0,0 0.9561,97.76367 0.9561,97.76367 0,0 115.9043,-0.94141 115.9043,-0.94141 0,0 -0.169,-17.32422 -0.169,-17.32422 0,0 -89.4179,0.68946 -89.4179,0.68946 0,0 -0.1973,-20.97852 -0.1973,-20.97852 0,0 51.8486,-0.44922 51.8486,-0.44922 0,0 -0.1699,-16.96093 -0.1699,-16.96093 0,0 -51.8467,0.41015 -51.8467,0.41015 0,0 -0.2392,-24.3789 -0.2392,-24.3789 0,0 90.6543,-0.70313 90.6543,-0.70313 0,0 -0.21,-18.09766 -0.21,-18.09766 0,0 -117.1133,0.97071 -117.1133,0.97071 z" /><path
       inkscape:connector-curvature="0"
       id="path3600"
       style="fill:#231f20;fill-opacity:1;fill-rule:nonzero;stroke:none"
       d="m 2871.6982,747.05176 c 0,0 -59.9111,1.25 -59.9111,1.25 0,0 -0.6602,-26.59766 -0.6602,-26.59766 0,0 59.9405,-1.25195 59.9405,-1.25195 4.5098,-0.082 7.6572,0.42187 9.3867,1.60351 1.6856,1.16602 2.5986,3.11914 2.6963,5.92969 0,0 0.2803,11.07031 0.2803,11.07031 0.058,2.76954 -0.7149,4.82032 -2.4014,6.01563 -1.6855,1.20703 -4.7783,1.85351 -9.3311,1.98047 z m -88.0546,-79.07617 c 0,0 2.4453,97.79101 2.4453,97.79101 0,0 97.2158,-1.98047 97.2158,-1.98047 8.8935,-0.18359 15.2041,-1.80078 19.1934,-4.91992 3.8652,-3.0332 5.7187,-7.92187 5.5507,-14.69531 0,0 -0.5341,-22.56445 -0.5341,-22.56445 -0.211,-6.64649 -2.3047,-11.45118 -6.3516,-14.29102 -4.0459,-2.9082 -10.5371,-4.24219 -19.3897,-4.03125 0,0 -14.7822,0.26562 -14.7822,0.26562 0,0 50.3447,-38.32812 50.3447,-38.32812 0,0 -37.6982,0.78516 -37.6982,0.78516 0,0 -44.2031,38.20312 -44.2031,38.20312 0,0 -24.7432,0.53516 -24.7432,0.53516 0,0 -0.9004,-37.30664 -0.9004,-37.30664 0,0 -26.1474,0.53711 -26.1474,0.53711 z" /><path
       inkscape:connector-curvature="0"
       id="path3602"
       style="fill:#231f20;fill-opacity:1;fill-rule:nonzero;stroke:none"
       d="m 2968.2832,682.44629 c 0,0 87.3272,-2.93555 87.3272,-2.93555 0,0 2.4853,60.48633 2.4853,60.48633 0,0 -87.3389,3.02148 -87.3389,3.02148 0,0 -2.4736,-60.57226 -2.4736,-60.57226 z m -23.8008,56.39844 c 0.3633,8.9375 2.5293,14.92382 6.4776,18.06836 3.9062,3.10546 11.3515,4.49804 22.3398,4.08984 0,0 83.8135,-2.86719 83.8135,-2.86719 11.1133,-0.36328 18.4062,-2.25976 22.0586,-5.61719 3.626,-3.38867 5.2402,-9.5 4.8476,-18.39257 0,0 -2.0791,-51.14649 -2.0791,-51.14649 -0.4228,-8.97851 -2.5722,-15.01953 -6.5615,-18.10937 -3.9912,-3.13477 -11.3955,-4.54102 -22.2998,-4.07617 0,0 -83.8535,2.81054 -83.8535,2.81054 -10.9746,0.39258 -18.2656,2.21875 -21.9483,5.61914 -3.6816,3.34571 -5.3388,9.55469 -4.9306,18.51953 0,0 2.1357,51.10157 2.1357,51.10157 z" /><path
       inkscape:connector-curvature="0"
       id="path3604"
       style="fill:#231f20;fill-opacity:1;fill-rule:nonzero;stroke:none"
       d="m 3225.1035,733.39355 c 0,0 -74.2578,3.55469 -74.2578,3.55469 0,0 -1.2236,-20.68164 -1.2236,-20.68164 0,0 70.2812,-3.41601 70.2812,-3.41601 11.0157,-0.46289 18.4073,-2.45704 22.0742,-5.78711 3.5547,-3.37305 5.1416,-9.47071 4.6231,-18.34961 0,0 -0.7734,-13.53321 -0.7734,-13.53321 -0.5469,-8.91992 -2.8526,-14.86523 -6.9405,-17.9414 -4.1035,-2.99219 -11.6074,-4.25781 -22.4677,-3.75196 0,0 -70.0577,3.35743 -70.0577,3.35743 -11.0566,0.5625 -18.5029,2.54492 -22.2285,5.97265 -3.708,3.41407 -5.3379,9.58399 -4.789,18.47657 0,0 0.1396,2.78125 0.1396,2.78125 0,0 23.5059,2.9082 23.5059,2.9082 0,0 -0.6885,-11.80274 -0.6885,-11.80274 0,0 79.5557,-3.80664 79.5557,-3.80664 0,0 1.3085,22.52344 1.3085,22.52344 0,0 -70.0576,3.35938 -70.0576,3.35938 -11.0439,0.56054 -18.4345,2.51171 -22.0869,5.92773 -3.7236,3.40039 -5.3262,9.54102 -4.8076,18.35156 0,0 0.6201,10.91602 0.6201,10.91602 0.5488,8.78125 2.8223,14.71289 6.9268,17.80273 4.1025,3.07617 11.6758,4.32813 22.7197,3.79492 0,0 64.043,-3.06445 64.043,-3.06445 10.8886,-0.52148 18.2509,-2.44531 22.1015,-5.77539 3.8506,-3.28711 5.5342,-8.85156 5.1153,-16.74805 0,0 -0.1846,-2.40234 -0.1846,-2.40234 0,0 -23.084,-3.35937 -23.084,-3.35937 0,0 0.6328,10.69335 0.6328,10.69335 z" /><path
       inkscape:connector-curvature="0"
       id="path3606"
       style="fill:#231f20;fill-opacity:1;fill-rule:nonzero;stroke:none"
       d="m 3376.2471,725.37207 c 0,0 -60.2227,3.72266 -60.2227,3.72266 0,0 -1.9951,-26.18946 -1.9951,-26.18946 0,0 60.2637,-3.69726 60.2637,-3.69726 4.5244,-0.28125 7.7275,0.0996 9.583,1.19531 1.7568,1.13672 2.7676,3.14648 2.9922,6.0293 0,0 0.7451,10.29687 0.7451,10.29687 0.2373,2.83985 -0.4629,4.95899 -2.0791,6.26563 -1.6026,1.29297 -4.6797,2.0957 -9.2871,2.37695 z m -92.0332,-75.45312 c 0,0 7.3906,97.39843 7.3906,97.39843 0,0 97.1318,-6.04101 97.1318,-6.04101 8.9512,-0.54688 15.2588,-2.38867 18.9971,-5.60742 3.6807,-3.16016 5.3252,-8.03711 4.8193,-14.72461 0,0 -1.6582,-21.82032 -1.6582,-21.82032 -0.5195,-6.64648 -2.8379,-11.31054 -7.0527,-13.98047 -4.1738,-2.7539 -10.7354,-3.75195 -19.6006,-3.24609 0,0 -71.4482,4.41211 -71.4482,4.41211 0,0 -2.8662,-37.99219 -2.8662,-37.99219 0,0 -25.7129,1.60157 -25.7129,1.60157 z" /><path
       inkscape:connector-curvature="0"
       id="path3608"
       style="fill:#231f20;fill-opacity:1;fill-rule:nonzero;stroke:none"
       d="m 3462.7002,677.6123 c 0,0 49.2891,-3.66601 49.2891,-3.66601 0,0 -21.4121,42.45898 -21.4121,42.45898 0,0 -27.877,-38.79297 -27.877,-38.79297 z m -54.3916,-35.33789 c 0,0 72.6016,92.65235 72.6016,92.65235 0,0 25.207,-1.89649 25.207,-1.89649 0,0 55.9492,-102.12109 55.9492,-102.12109 0,0 -29.4228,2.12109 -29.4228,2.12109 0,0 -11.5772,22.42383 -11.5772,22.42383 0,0 -71.0967,5.29688 -71.0967,5.29688 0,0 -15.5263,-20.41407 -15.5263,-20.41407 0,0 -26.1348,1.9375 -26.1348,1.9375 z" /><path
       inkscape:connector-curvature="0"
       id="path3610"
       style="fill:#231f20;fill-opacity:1;fill-rule:nonzero;stroke:none"
       d="m 3685.8252,700.33301 c 0,0 -70.5498,6.22461 -70.5498,6.22461 0,0 -6.5752,-60.83985 -6.5752,-60.83985 0,0 70.5762,-6.23828 70.5762,-6.23828 0,0 2.1797,20.61133 2.1797,20.61133 0,0 26.0351,-7.16406 26.0351,-7.16406 0,0 -1.2353,-11.4668 -1.2353,-11.4668 -0.9844,-8.83789 -3.5967,-14.78125 -7.8536,-17.70312 -4.246,-2.97852 -11.8876,-3.90625 -22.9462,-2.97852 0,0 -67.0928,5.98438 -67.0928,5.98438 -10.792,1.01171 -17.9297,3.23242 -21.4844,6.82812 -3.498,3.58398 -4.834,9.87891 -3.8086,18.83008 0,0 5.5947,51.39648 5.5947,51.39648 0.9405,8.72461 3.5127,14.625 7.7139,17.46485 4.1445,2.89453 11.6768,3.78125 22.5801,2.85156 0,0 67.1035,-5.9707 67.1035,-5.9707 11.0732,-1.01172 18.3936,-3.23243 21.9209,-6.81446 3.5264,-3.52734 4.7754,-9.69531 3.8496,-18.44726 0,0 -1.04,-9.47071 -1.04,-9.47071 0,0 -26.9063,-1.19531 -26.9063,-1.19531 0,0 1.9385,18.09766 1.9385,18.09766 z" /><path
       inkscape:connector-curvature="0"
       id="path3612"
       style="fill:#231f20;fill-opacity:1;fill-rule:nonzero;stroke:none"
       d="m 3741.6338,614.6084 c 0,0 12.2539,96.95117 12.2539,96.95117 0,0 115.4521,-11.95703 115.4521,-11.95703 0,0 -2.1484,-16.93164 -2.1484,-16.93164 0,0 -88.9131,9.20312 -88.9131,9.20312 0,0 -2.7256,-21.37109 -2.7256,-21.37109 0,0 51.8194,-5.35352 51.8194,-5.35352 0,0 -2.1084,-16.59179 -2.1084,-16.59179 0,0 -51.8047,5.33789 -51.8047,5.33789 0,0 -3.0068,-23.91406 -3.0068,-23.91406 0,0 90.1347,-9.3711 90.1347,-9.3711 0,0 -2.291,-18.04297 -2.291,-18.04297 0,0 -116.6621,12.04102 -116.6621,12.04102 z" /><path
       inkscape:connector-curvature="0"
       id="path3614"
       style="fill:#231f20;fill-opacity:1;fill-rule:nonzero;stroke:none"
       d="m 4120.7363,669.60449 c 0,0 -85.6386,11.1836 -85.6386,11.1836 0,0 -4.0479,-25.46094 -4.0479,-25.46094 0,0 81.5371,-10.60547 81.5371,-10.60547 12.7441,-1.73047 21.0742,-4.7793 24.9258,-9.30469 3.8769,-4.50781 4.9746,-12.13867 3.2451,-22.8164 0,0 -2.5566,-16.15821 -2.5566,-16.15821 -1.7422,-10.75 -5.1289,-17.71875 -10.2559,-21.11718 -5.0879,-3.28907 -14.0791,-4.16211 -26.7803,-2.50196 0,0 -80.8349,10.55078 -80.8349,10.55078 -12.7432,1.67188 -21.0205,4.73633 -24.8965,9.2461 -3.8369,4.53906 -4.9063,12.11328 -3.248,22.80468 0,0 0.5468,3.25977 0.5468,3.25977 0,0 27.7246,1.53125 27.7246,1.53125 0,0 -2.248,-13.99414 -2.248,-13.99414 0,0 92.1426,-12 92.1426,-12 0,0 4.3007,26.89258 4.3007,26.89258 0,0 -81.4384,10.60937 -81.4384,10.60937 -12.6455,1.64258 -20.8662,4.76172 -24.7012,9.28711 -3.7783,4.50977 -4.8613,12.11133 -3.1602,22.91602 0,0 2.1065,13.125 2.1065,13.125 1.7002,10.64844 5.0996,17.67578 10.1738,21.06054 5.0566,3.34375 13.9385,4.1875 26.583,2.55665 0,0 74.2305,-9.72266 74.2305,-9.72266 12.2939,-1.54492 20.4707,-4.59375 24.5742,-8.97852 4.0322,-4.39648 5.3115,-11.45117 3.793,-21.06054 0,0 -0.3936,-2.44532 -0.3936,-2.44532 0,0 -27.833,-2.15039 -27.833,-2.15039 0,0 2.1494,13.29297 2.1494,13.29297 z" /><path
       inkscape:connector-curvature="0"
       id="path3616"
       style="fill:#231f20;fill-opacity:1;fill-rule:nonzero;stroke:none"
       d="m 4208.2305,576.72754 c 0,0 85.583,-12.89649 85.583,-12.89649 0,0 11.1133,59.9961 11.1133,59.9961 0,0 -85.6104,12.95508 -85.6104,12.95508 0,0 -11.0859,-60.05469 -11.0859,-60.05469 z m -15.919,58.98633 c 1.6572,8.78125 4.6367,14.45898 8.9483,17.05664 4.4121,2.61328 12.0996,3.09179 23.0722,1.43359 0,0 82.1397,-12.3789 82.1397,-12.3789 11.0312,-1.68555 18.1123,-4.38477 21.2578,-8.11915 3.2334,-3.7246 3.9639,-10.03515 2.3349,-18.80273 0,0 -9.3447,-50.72266 -9.3447,-50.72266 -1.6435,-8.78125 -4.6377,-14.48437 -9.0762,-17.11328 -4.455,-2.58593 -12.083,-3.09179 -22.9599,-1.44531 0,0 -82.1826,12.41992 -82.1826,12.41992 -10.9297,1.64453 -17.9981,4.35547 -21.1885,8.09375 -3.2168,3.76367 -4.0039,10.03125 -2.3877,18.86914 0,0 9.3867,50.70899 9.3867,50.70899 z" /><path
       inkscape:connector-curvature="0"
       id="path3618"
       style="fill:#231f20;fill-opacity:1;fill-rule:nonzero;stroke:none"
       d="m 4465.6953,597.17285 c 0,0 -70.1269,11.95508 -70.1269,11.95508 0,0 -12.4493,-59.68555 -12.4493,-59.68555 0,0 70.1133,-11.95703 70.1133,-11.95703 0,0 4.2012,20.23242 4.2012,20.23242 0,0 25.1211,-9.18945 25.1211,-9.18945 0,0 -2.3731,-11.22656 -2.3731,-11.22656 -1.8125,-8.69727 -4.9472,-14.33203 -9.4843,-16.90235 -4.5118,-2.55664 -12.1817,-2.9082 -23.0166,-1.04101 0,0 -66.6973,11.35547 -66.6973,11.35547 -10.6221,1.83789 -17.5352,4.63476 -20.6553,8.5 -3.1465,3.82226 -3.8066,10.08789 -1.9795,18.92578 0,0 10.5069,50.41406 10.5069,50.41406 1.8281,8.74024 4.9472,14.37305 9.4297,16.88867 4.3984,2.55664 12.0136,2.92383 22.7207,1.08203 0,0 66.6259,-11.36718 66.6259,-11.36718 10.9473,-1.85352 18.0147,-4.69336 21.1065,-8.54297 3.1318,-3.86328 3.7929,-10.10156 2.0215,-18.85547 0,0 -1.9942,-9.28711 -1.9942,-9.28711 0,0 -26.7949,1.02539 -26.7949,1.02539 0,0 3.7246,17.67578 3.7246,17.67578 z" /><path
       inkscape:connector-curvature="0"
       id="path3620"
       style="fill:#231f20;fill-opacity:1;fill-rule:nonzero;stroke:none"
       d="m 4512.1191,507.76855 c 0,0 21.6241,95.75586 21.6241,95.75586 0,0 25.6826,-4.73632 25.6826,-4.73632 0,0 -21.6651,-95.8125 -21.6651,-95.8125 0,0 -25.6416,4.79296 -25.6416,4.79296 z" /><path
       inkscape:connector-curvature="0"
       id="path3622"
       style="fill:#231f20;fill-opacity:1;fill-rule:nonzero;stroke:none"
       d="m 4579.5049,495.29004 c 0,0 23.2412,95.4043 23.2412,95.4043 0,0 113.2334,-22.54883 113.2334,-22.54883 0,0 -4.1172,-16.93164 -4.1172,-16.93164 0,0 -87.1973,17.35156 -87.1973,17.35156 0,0 -5.0029,-20.62695 -5.0029,-20.62695 0,0 50.9063,-10.13086 50.9063,-10.13086 0,0 -4.0332,-16.58008 -4.0332,-16.58008 0,0 -50.92,10.14648 -50.92,10.14648 0,0 -5.7324,-23.56445 -5.7324,-23.56445 0,0 88.3789,-17.60547 88.3789,-17.60547 0,0 -4.2851,-17.68945 -4.2851,-17.68945 0,0 -114.4717,22.77539 -114.4717,22.77539 z" /><path
       inkscape:connector-curvature="0"
       id="path3624"
       style="fill:#231f20;fill-opacity:1;fill-rule:nonzero;stroke:none"
       d="m 4808.7002,530.23535 c 0,0 -21.0049,-78.08008 -21.0049,-78.08008 0,0 -25.6699,5.64844 -25.6699,5.64844 0,0 21.0039,78.03711 21.0039,78.03711 0,0 -50.5547,11.11523 -50.5547,11.11523 0,0 4.5664,16.94336 4.5664,16.94336 0,0 127.1035,-27.84765 127.1035,-27.84765 0,0 -4.5801,-16.94531 -4.5801,-16.94531 0,0 -50.8642,11.1289 -50.8642,11.1289 z" /><path
       inkscape:connector-curvature="0"
       id="path3626"
       style="fill:#231f20;fill-opacity:1;fill-rule:nonzero;stroke:none"
       d="m 4905.3682,425.05176 c 0,0 12.5205,42.34765 12.5205,42.34765 0,0 -41.7305,65.70118 -41.7305,65.70118 0,0 34.3115,-8.26172 34.3115,-8.26172 0,0 26.8369,-44.17578 26.8369,-44.17578 0,0 47.9551,26.12109 47.9551,26.12109 0,0 29.8008,-7.16602 29.8008,-7.16602 0,0 -71.8262,-37.85351 -71.8262,-37.85351 0,0 -12.5908,-42.8125 -12.5908,-42.8125 0,0 -25.2773,6.09961 -25.2773,6.09961 z" /><path
       inkscape:connector-curvature="0"
       id="path3628"
       style="fill:#231f20;fill-opacity:1;fill-rule:nonzero;stroke:none"
       d="m 0.43555,282.25488 c 1204.42775,363.16016 3574.45505,482.01172 5183.99995,-0.2539 0,0 0,20.5 0,31.5 C 3574.9248,794.95801 1204.2871,674.46387 0.43555,311.47754 c 0,0 0,-29.22266 0,-29.22266 z" /><path
       inkscape:connector-curvature="0"
       id="path3630"
       style="fill:#ffffff;fill-opacity:1;fill-rule:nonzero;stroke:none"
       d="m 2159.98,197.0127 c 40.8105,0.39453 74.5317,1.69921 74.5317,1.69921 0,0 353.7129,1060.98389 353.7129,1060.98389 0,0 -428.2446,-1062.6831 -428.2446,-1062.6831 z" /><path
       inkscape:connector-curvature="0"
       id="path3632"
       style="fill:#ffffff;stroke:#231f20;stroke-width:4.8;stroke-linecap:butt;stroke-linejoin:miter;stroke-miterlimit:4;stroke-opacity:1;stroke-dasharray:none;fill-opacity:1"
       d="m 2159.98,197.0127 c 40.8105,0.39453 74.5317,1.69921 74.5317,1.69921 0,0 353.7129,1060.98389 353.7129,1060.98389 0,0 -428.2446,-1062.6831 -428.2446,-1062.6831 z" /><path
       inkscape:connector-curvature="0"
       id="path3634"
       style="fill:#231f20;fill-opacity:1;fill-rule:nonzero;stroke:none"
       d="m 2530.6592,1032.833 c 0,0 22.875,-52.28124 22.875,-52.28124 0,0 -9.3789,-25.9668 -9.3789,-25.9668 0,0 -51.2578,-25.44531 -51.2578,-25.44531 0,0 37.7617,103.69335 37.7617,103.69335 z" /><path
       inkscape:connector-curvature="0"
       id="path3636"
       style="fill:#ffffff;stroke:#231f20;stroke-width:6.40000000000000036;stroke-linecap:butt;stroke-linejoin:miter;stroke-miterlimit:4;stroke-opacity:1;stroke-dasharray:none;fill-opacity:1"
       d="m 2530.6592,1032.833 c 0,0 22.875,-52.28124 22.875,-52.28124 0,0 -9.3789,-25.9668 -9.3789,-25.9668 0,0 -51.2578,-25.44531 -51.2578,-25.44531 0,0 37.7617,103.69335 37.7617,103.69335 z" /><path
       inkscape:connector-curvature="0"
       id="path3638"
       style="fill:#231f20;fill-opacity:1;fill-rule:nonzero;stroke:none"
       d="m 2486.0972,1048.9775 c 0,0 -51.0328,-25.4033 -51.0328,-25.4033 0,0 -9.4975,-25.95213 -9.4975,-25.95213 0,0 22.98,-52.36719 22.98,-52.36719 0,0 37.5503,103.72262 37.5503,103.72262 z" /><path
       inkscape:connector-curvature="0"
       id="path3640"
       style="fill:#ffffff;stroke:#231f20;stroke-width:6.4;stroke-linecap:butt;stroke-linejoin:miter;stroke-miterlimit:4;stroke-opacity:1;stroke-dasharray:none;fill-opacity:1"
       d="m 2486.0972,1048.9775 c 0,0 -51.0328,-25.4033 -51.0328,-25.4033 0,0 -9.4975,-25.95213 -9.4975,-25.95213 0,0 22.98,-52.36719 22.98,-52.36719 0,0 37.5503,103.72262 37.5503,103.72262 z" /><g
       id="g3642"
       transform="scale(1,-1)"
       style="fill:#ffffff;stroke:#000000;stroke-opacity:1;stroke-width:6.40000000000000036;stroke-miterlimit:4;stroke-dasharray:none;fill-opacity:1"><g
         id="g3644"
         style="fill:#ffffff;stroke:#000000;stroke-opacity:1;stroke-width:6.40000000000000036;stroke-miterlimit:4;stroke-dasharray:none;fill-opacity:1"><g
           id="g3650"
           style="fill:#ffffff;stroke:#000000;stroke-opacity:1;stroke-width:6.40000000000000036;stroke-miterlimit:4;stroke-dasharray:none;fill-opacity:1"><g
             id="g3652"
             style="fill:#ffffff;stroke:#000000;stroke-opacity:1;stroke-width:6.40000000000000036;stroke-miterlimit:4;stroke-dasharray:none;fill-opacity:1"><path
               inkscape:connector-curvature="0"
               id="path3660"
               style="fill:#ffffff;stroke:#000000;stroke-opacity:1;stroke-width:6.40000000000000036;stroke-miterlimit:4;stroke-dasharray:none;fill-opacity:1"
               d="m 2482.0859,-899.40723 c 0,0 -44.3086,-16.21484 -44.3086,-16.21484 0,0 252.5958,-696.76763 252.5958,-696.76763 0,0 44.5976,16.1309 44.5976,16.1309 0,0 -252.8848,696.85157 -252.8848,696.85157 z" /></g></g></g></g><path
       inkscape:connector-curvature="0"
       id="path3662"
       style="fill:none;stroke:#231f20;stroke-width:0.25;stroke-linecap:butt;stroke-linejoin:miter;stroke-miterlimit:4;stroke-opacity:1;stroke-dasharray:none"
       d="m 2482.0859,899.40723 c 0,0 -44.3086,16.21484 -44.3086,16.21484 0,0 252.5958,696.76763 252.5958,696.76763 0,0 44.5976,-16.1309 44.5976,-16.1309 0,0 -252.8848,-696.85157 -252.8848,-696.85157 z" /><g
       id="g3664"
       transform="scale(1,-1)"><g
         id="g3666"><g
           id="g3672"><g
             id="g3674"><path
               inkscape:connector-curvature="0"
               id="path3682"
               style="fill:url(#linearGradient3764);stroke:none"
               d="m 2690.3731,-1612.3897 c 0,0 124.5449,-273.665 124.5449,-273.665 0,0 -79.9473,289.7959 -79.9473,289.7959 0,0 -44.5976,-16.1309 -44.5976,-16.1309 z" /></g></g></g></g><path
       inkscape:connector-curvature="0"
       id="path3684"
       style="fill:#ffffff;stroke:#231f20;stroke-width:6.4;stroke-linecap:butt;stroke-linejoin:miter;stroke-miterlimit:4;stroke-opacity:1;stroke-dasharray:none;fill-opacity:1"
       d="m 2690.3731,1612.3897 c 0,0 124.5449,273.665 124.5449,273.665 0,0 -79.9473,-289.7959 -79.9473,-289.7959 0,0 -44.5976,16.1309 -44.5976,16.1309 z" /></g></svg>