<?xml version="1.0" encoding="UTF-8" standalone="no"?>
<!-- Created with Inkscape (http://www.inkscape.org/) -->

<svg
   xmlns:dc="http://purl.org/dc/elements/1.1/"
   xmlns:cc="http://creativecommons.org/ns#"
   xmlns:rdf="http://www.w3.org/1999/02/22-rdf-syntax-ns#"
   xmlns:svg="http://www.w3.org/2000/svg"
   xmlns="http://www.w3.org/2000/svg"
   xmlns:sodipodi="http://sodipodi.sourceforge.net/DTD/sodipodi-0.dtd"
   xmlns:inkscape="http://www.inkscape.org/namespaces/inkscape"
   version="1.1"
   width="202.5"
   height="202.5"
   id="svg3002"
   inkscape:version="0.48.4 r9939"
   sodipodi:docname="psas_laser.svg">
  <sodipodi:namedview
     pagecolor="#ffffff"
     bordercolor="#666666"
     borderopacity="1"
     objecttolerance="10"
     gridtolerance="10"
     guidetolerance="10"
     inkscape:pageopacity="0"
     inkscape:pageshadow="2"
     inkscape:window-width="1239"
     inkscape:window-height="776"
     id="namedview17"
     showgrid="false"
     inkscape:zoom="2.4234128"
     inkscape:cx="87.162583"
     inkscape:cy="83.006236"
     inkscape:window-x="41"
     inkscape:window-y="24"
     inkscape:window-maximized="1"
     inkscape:current-layer="svg3002"
     units="in"
     inkscape:document-units="in" />
  <defs
     id="defs3004" />
  <metadata
     id="metadata3007">
    <rdf:RDF>
      <cc:Work
         rdf:about="">
        <dc:format>image/svg+xml</dc:format>
        <dc:type
           rdf:resource="http://purl.org/dc/dcmitype/StillImage" />
        <dc:title />
      </cc:Work>
    </rdf:RDF>
  </metadata>
  <g
     id="g2986"
     transform="matrix(3.8310603,0,0,3.8310603,5.4136322,5.1143306)">
    <path
       id="path3887"
       d="M 25.59375,1.625 C 14.268595,1.625 4.8399431,9.644207 2.625,20.3125 6.6035902,18.663654 10.807217,17.454269 15.15625,16.6875 17.0797,9.210026 20.919574,4.125 24.8125,4.125 c 3.83716,0 6.970356,4.8585136 8.71875,12.15625 0.741896,0.09957 1.485828,0.218822 2.21875,0.34375 1.819239,-1.325097 4.371342,-3.188438 5,-3.65625 1.113067,-0.828281 2.285951,-1.579 3.40625,-2.25 C 39.857713,5.1891163 33.137958,1.625 25.59375,1.625 z M 25.0625,5.15625 c -3.390274,0 -6.481867,4.469604 -8.21875,11.21875 2.857884,-0.419545 5.77199,-0.625 8.75,-0.625 2.649563,0 5.252265,0.192813 7.8125,0.53125 -1.696073,-6.7125865 -4.968947,-11.125 -8.34375,-11.125 z m 19.78125,6.53125 c -0.982207,0.862393 -2.056437,1.755176 -3.1875,2.5625 -0.485668,0.346658 -2.56855,1.875878 -3.8125,2.78125 3.721147,0.771666 7.316143,1.857882 10.75,3.28125 -0.655897,-3.159133 -1.963188,-6.069904 -3.75,-8.625 z"
       style="fill:none;stroke:#0000ff;stroke-width:0.04698439;stroke-linejoin:round;stroke-miterlimit:4;stroke-opacity:1;stroke-dasharray:none"
       inkscape:connector-curvature="0" />
    <path
       id="path4673-3"
       d="m 24.8125,4.125 c -4.812153,0 -9.569394,7.759756 -10.6875,18.21875 -0.05256,0.491666 -0.237517,1.008666 -0.40625,1.5 0.0596,0.09986 0.54874,0.30263 0.96875,0.3125 0.607102,0.01427 0.975675,-0.155573 1.125,-0.3125 -0.09503,-0.218379 -0.121273,-1.033393 -0.0625,-1.53125 1.174399,-9.948222 5.003933,-17.15625 9.3125,-17.15625 3.453744,0 6.809743,4.6149096 8.46875,11.59375 0,0 -0.210854,0.006 0.125,0 C 31.932573,9.1819443 28.734228,4.125 24.8125,4.125 z"
       style="fill:none;stroke:#0000ff;stroke-width:0.04698439;stroke-linejoin:round;stroke-miterlimit:4;stroke-opacity:1;stroke-dasharray:none"
       inkscape:connector-curvature="0" />
    <path
       d="m 25.59375,15.75 c -2.97801,0 -5.892116,0.205455 -8.75,0.625 -0.470454,1.828079 -0.843448,3.817218 -1.09375,5.9375 -0.05877,0.497857 -0.03253,1.312871 0.0625,1.53125 -0.149325,0.156927 -0.517898,0.32677 -1.125,0.3125 -0.42001,-0.0099 -0.90915,-0.21264 -0.96875,-0.3125 0.168733,-0.491334 0.35369,-1.008334 0.40625,-1.5 0.213583,-1.997898 0.577071,-3.890613 1.03125,-5.65625 -4.349033,0.766769 -8.5526598,1.976154 -12.53125,3.625 -0.3200537,1.545453 -0.5,3.140934 -0.5,4.78125 0,3.88784 0.9527529,7.552053 2.625,10.78125 L 6,35.1875 6,29.09375 C 5.9493044,28.09931 6.7192458,27.2977 7.6875,27.3125 l 4.65625,0 C 13.255359,27.3125 14,28.068259 14,28.96875 l 0,1.8125 2,-1.09375 0,-0.71875 c 0,-0.911609 0.744642,-1.65625 1.65625,-1.65625 l 2.65625,0 L 25.40625,24.5 25.25,24.28125 c 0,0 0.03096,-0.03111 0.03125,-0.03125 l -0.25,-2.03125 2.28125,-1.65625 2.03125,0.71875 c 2.283604,-1.659482 4.080249,-2.962038 6.40625,-4.65625 -0.732737,-0.124649 -1.476902,-0.244253 -2.21875,-0.34375 0.03853,0.160836 0.08783,0.305553 0.125,0.46875 -0.335854,0.006 -0.125,0 -0.125,0 -0.03792,-0.159512 -0.08533,-0.311735 -0.125,-0.46875 C 30.84616,15.943032 28.243313,15.75 25.59375,15.75 z M 37.875,17.03125 c -2.477438,1.803075 -4.913643,3.549641 -7.625,5.53125 L 30.34375,24.71875 28.0625,26.375 26.21875,25.53125 26.1875,25.5625 26,25.34375 23.46875,27.75 c 0.337087,0.303561 0.5625,0.732693 0.5625,1.21875 l 0,0.71875 -1.75,0 0,-0.65625 -0.1875,0 -1.5,1.40625 1.78125,0 c 0.900491,0 1.65625,0.744641 1.65625,1.65625 l 0,1.5625 c 0,0.911607 -0.755759,1.65625 -1.65625,1.65625 l -4.71875,0 c -0.59448,0 -1.113983,-0.308115 -1.40625,-0.78125 l -7.40625,7 c 4.260871,4.341285 10.185786,7.03125 16.75,7.03125 12.969548,0 23.5,-10.499201 23.5,-23.46875 0,-1.640022 -0.180057,-3.236054 -0.5,-4.78125 C 45.168152,18.892555 41.585625,17.801246 37.875,17.03125 z m -9.71875,10.28125 4.71875,0 c 0.911607,0 1.65625,0.744641 1.65625,1.65625 l 0,6.34375 -1.75,0 0,-2.5625 -4.53125,0 0,2.5625 -1.75,0 0,-6.34375 c 0,-0.911609 0.744643,-1.65625 1.65625,-1.65625 z m 10.5,0 4.71875,0 c 0.900492,0 1.65625,0.744641 1.65625,1.65625 l 0,0.71875 -1.75,0 0,-0.65625 -4.53125,0 0,1.40625 4.625,0 c 0.900492,0 1.65625,0.744641 1.65625,1.65625 l 0,1.5625 c 0,0.911607 -0.755758,1.65625 -1.65625,1.65625 l -4.71875,0 C 37.744643,35.3125 37,34.567857 37,33.65625 l 0,-0.71875 1.75,0 0,0.65625 4.53125,0 0,-1.40625 -4.625,0 C 37.744643,32.1875 37,31.442857 37,30.53125 l 0,-1.5625 c 0,-0.911609 0.744643,-1.65625 1.65625,-1.65625 z m -30.9375,1.71875 0,1.90625 4.53125,0 0,-1.90625 -4.53125,0 z m 20.53125,0 0,1.96875 4.53125,0 0,-1.96875 -4.53125,0 z m -9.5,3.15625 -1,0.9375 0,0.46875 4.53125,0 0,-1.40625 -3.53125,0 z m -11.03125,0.5 c 0.022235,0 0.03125,0.01803 0.03125,0.0625 0,0 -0.020133,0.01112 -0.03125,0 l 0,1.5 2.8125,-1.5625 -2.8125,0 z"
       style="fill:none;stroke:#0000ff;stroke-width:0.04698439;stroke-linejoin:round;stroke-miterlimit:4;stroke-opacity:1;stroke-dasharray:none"
       id="path3889"
       inkscape:connector-curvature="0" />
    <path
       id="path3404-64"
       d="M 48.21875,8.5 48.125,8.53125 c 0,0 -4.127185,2.02066 -7.375,4.4375 -1.432434,1.065937 -7.336568,5.355084 -11.40625,8.3125 l -2.03125,-0.71875 -2.28125,1.65625 0.25,2.03125 C 25.280965,24.250142 25.25,24.28125 25.25,24.28125 l 0.15625,0.21875 -5.125,2.8125 2.09375,0 c 0.420362,0 0.798624,0.171727 1.09375,0.4375 L 26,25.34375 26.1875,25.5625 26.21875,25.53125 28.0625,26.375 30.34375,24.71875 30.25,22.5625 c 4.062415,-2.969037 9.953739,-7.275734 11.40625,-8.3125 3.295101,-2.35196 6.5,-5.65625 6.5,-5.65625 L 48.21875,8.5 z M 17.75,29.03125 l 0,1.40625 2.84375,0 1.5,-1.40625 -4.34375,0 z M 16,29.6875 l -2,1.09375 0,0.25 c 0,0.90049 -0.744641,1.65625 -1.65625,1.65625 l -1.8125,0 -2.8125,1.5625 0,1.0625 L 6,35.3125 6,35.1875 0.9375,37.96875 5.78125,39.4375 5.6875,44.5 16.25,34.53125 C 16.094089,34.278854 16,33.973377 16,33.65625 l 0,-0.71875 1.75,0 0,0.1875 1,-0.9375 -1.09375,0 C 16.744642,32.1875 16,31.442857 16,30.53125 l 0,-0.84375 z"
       style="fill:none;stroke:#0000ff;stroke-width:0.04698439;stroke-linejoin:round;stroke-miterlimit:4;stroke-opacity:1;stroke-dasharray:none"
       inkscape:connector-curvature="0" />
    <path
       id="path3817"
       d="M 7.6875,27.3125 C 6.7192458,27.2977 5.9493044,28.09931 6,29.09375 l 0,6.21875 1.71875,0 0,-2.5625 c 0.011117,0.01112 0.03125,0 0.03125,0 0,-0.04447 -0.00901,-0.0625 -0.03125,-0.0625 l 4.625,0 C 13.255359,32.6875 14,31.93174 14,31.03125 l 0,-2.0625 C 14,28.068259 13.255359,27.3125 12.34375,27.3125 l -4.65625,0 z m 9.96875,0 C 16.744642,27.3125 16,28.057141 16,28.96875 l 0,1.5625 c 0,0.911607 0.744642,1.65625 1.65625,1.65625 l 4.625,0 0,1.40625 -4.53125,0 0,-0.65625 -1.75,0 0,0.71875 c 0,0.911607 0.744642,1.65625 1.65625,1.65625 l 4.71875,0 c 0.900491,0 1.65625,-0.744643 1.65625,-1.65625 l 0,-1.5625 c 0,-0.911609 -0.755759,-1.65625 -1.65625,-1.65625 l -4.625,0 0,-1.40625 4.53125,0 0,0.65625 1.75,0 0,-0.71875 c 0,-0.911609 -0.755759,-1.65625 -1.65625,-1.65625 l -4.71875,0 z m 10.5,0 c -0.911607,0 -1.65625,0.744641 -1.65625,1.65625 l 0,6.34375 1.75,0 0,-2.5625 4.53125,0 0,2.5625 1.75,0 0,-6.34375 c 0,-0.911609 -0.744643,-1.65625 -1.65625,-1.65625 l -4.71875,0 z m 10.5,0 C 37.744643,27.3125 37,28.057141 37,28.96875 l 0,1.5625 c 0,0.911607 0.744643,1.65625 1.65625,1.65625 l 4.625,0 0,1.40625 -4.53125,0 0,-0.65625 -1.75,0 0,0.71875 c 0,0.911607 0.744643,1.65625 1.65625,1.65625 l 4.71875,0 c 0.900492,0 1.65625,-0.744643 1.65625,-1.65625 l 0,-1.5625 c 0,-0.911609 -0.755758,-1.65625 -1.65625,-1.65625 l -4.625,0 0,-1.40625 4.53125,0 0,0.65625 1.75,0 0,-0.71875 c 0,-0.911609 -0.755758,-1.65625 -1.65625,-1.65625 l -4.71875,0 z m -30.9375,1.71875 4.53125,0 0,1.90625 -4.53125,0 0,-1.90625 z m 20.53125,0 4.53125,0 0,1.96875 -4.53125,0 0,-1.96875 z"
       style="font-size:78px;font-style:normal;font-variant:normal;font-weight:900;font-stretch:normal;text-align:center;line-height:125%;letter-spacing:9px;word-spacing:0px;writing-mode:lr-tb;text-anchor:middle;fill:#000000;fill-opacity:1;stroke:#0000ff;stroke-width:0.04698439;stroke-linejoin:round;stroke-miterlimit:4;stroke-opacity:1;stroke-dasharray:none;font-family:Orbitron;-inkscape-font-specification:Orbitron Heavy"
       inkscape:connector-curvature="0" />
  </g>
</svg>
