<?xml version="1.0" encoding="UTF-8" standalone="no"?>
<!-- Created with Inkscape (http://www.inkscape.org/) -->

<svg
   xmlns:dc="http://purl.org/dc/elements/1.1/"
   xmlns:cc="http://creativecommons.org/ns#"
   xmlns:rdf="http://www.w3.org/1999/02/22-rdf-syntax-ns#"
   xmlns:svg="http://www.w3.org/2000/svg"
   xmlns="http://www.w3.org/2000/svg"
   xmlns:sodipodi="http://sodipodi.sourceforge.net/DTD/sodipodi-0.dtd"
   xmlns:inkscape="http://www.inkscape.org/namespaces/inkscape"
   width="425.19684"
   height="425.19684"
   id="svg2"
   version="1.1"
   inkscape:version="0.48.3.1 r9886"
   sodipodi:docname="psas_insignia.svg">
  <sodipodi:namedview
     id="base"
     pagecolor="#ffffff"
     bordercolor="#666666"
     borderopacity="1.0"
     inkscape:pageopacity="0.0"
     inkscape:pageshadow="2"
     inkscape:zoom="1.1535834"
     inkscape:cx="212.59842"
     inkscape:cy="212.59842"
     inkscape:document-units="mm"
     inkscape:current-layer="layer1"
     showgrid="true"
     units="cm"
     borderlayer="true"
     inkscape:showpageshadow="false"
     showguides="true"
     inkscape:guide-bbox="true"
     guidecolor="#ff0096"
     guideopacity="0.23529412"
     inkscape:window-width="1920"
     inkscape:window-height="1148"
     inkscape:window-x="0"
     inkscape:window-y="27"
     inkscape:window-maximized="1">
    <inkscape:grid
       type="xygrid"
       id="grid2985"
       empspacing="2"
       visible="true"
       enabled="true"
       snapvisiblegridlinesonly="true"
       units="mm"
       spacingx="10mm"
       spacingy="10mm"
       color="#f000ff"
       opacity="0.03921569"
       empcolor="#f000ff"
       empopacity="0.11764706" />
    <sodipodi:guide
       position="35.433071,389.76378"
       orientation="354.33073,0"
       id="guide2989" />
    <sodipodi:guide
       position="35.433071,35.433044"
       orientation="0,354.33072"
       id="guide2991" />
    <sodipodi:guide
       position="389.76379,35.433044"
       orientation="-354.33073,0"
       id="guide2993" />
    <sodipodi:guide
       position="0,389.76378"
       orientation="0,-354.33072"
       id="guide2995" />
    <inkscape:grid
       type="xygrid"
       id="grid2997"
       empspacing="5"
       visible="true"
       enabled="false"
       snapvisiblegridlinesonly="true"
       units="mm"
       spacingx="1mm"
       spacingy="1mm"
       color="#f000ff"
       opacity="0.00392157"
       empcolor="#f000ff"
       empopacity="0.00392157"
       dotted="true" />
    <sodipodi:guide
       orientation="1,0"
       position="212.59843,212.59843"
       id="guide3003" />
    <inkscape:grid
       type="axonomgrid"
       id="grid3005"
       units="mm"
       empspacing="5"
       visible="true"
       enabled="false"
       snapvisiblegridlinesonly="true"
       spacingy="8.6603mm"
       color="#b400ff"
       opacity="0.1254902"
       empcolor="#b401ff"
       empopacity="0.11764706" />
    <sodipodi:guide
       orientation="0,1"
       position="212.59843,212.59843"
       id="guide3195" />
  </sodipodi:namedview>
  <defs
     id="defs4" />
  <metadata
     id="metadata7">
    <rdf:RDF>
      <cc:Work
         rdf:about="">
        <dc:format>image/svg+xml</dc:format>
        <dc:type
           rdf:resource="http://purl.org/dc/dcmitype/StillImage" />
        <dc:title />
      </cc:Work>
    </rdf:RDF>
  </metadata>
  <g
     inkscape:label="Layer 1"
     inkscape:groupmode="layer"
     id="layer1"
     transform="translate(0,-627.16561)">
    <path
       transform="matrix(1.0333333,0,0,1.0333333,47.834648,640.15774)"
       style="fill:#363f09;fill-opacity:1;stroke:none"
       d="m 318.89764,194.88188 c 0,88.06115 -71.38767,159.44882 -159.44882,159.44882 C 71.387669,354.3307 0,282.94303 0,194.88188 0,106.82073 71.387669,35.43306 159.44882,35.43306 c 88.06115,0 159.44882,71.38767 159.44882,159.44882 z"
       id="path3887" />
    <path
       style="fill:#ffffff;fill-opacity:1;stroke:none"
       d="m 206.95574,694.48843 c -1.82049,3.51919 -1.82049,3.51919 1.77652,7.0625 24.23204,0 47.73296,32.55547 59.37283,81.52018 0,0 -1.49776,0 0.85865,-0.0419 -12.09361,-53.09894 -34.4925,-88.54081 -62.008,-88.54081 z"
       id="path4673-3"
       inkscape:connector-curvature="0"
       sodipodi:nodetypes="ccccsc" />
    <path
       style="fill:#6a7f10;fill-opacity:1;stroke:none"
       d="m 212.59843,775.98697 c -57.14053,0 -111.61885,11.37423 -161.3125,31.96875 -2.24555,10.84316 -3.4375,22.08502 -3.4375,33.59375 0,90.99652 73.75348,164.75003 164.75,164.75003 90.99652,0 164.78125,-73.75351 164.78125,-164.75003 0,-11.50667 -1.19273,-22.75239 -3.4375,-33.59375 -49.70079,-20.60147 -104.19306,-31.96875 -161.34375,-31.96875 z"
       id="path3889"
       inkscape:connector-curvature="0" />
    <path
       style="fill:#a33f1f;fill-opacity:1;stroke:none"
       d="M 371.21875 98 L 370.625 98.15625 C 370.625 98.15625 341.56846 112.3868 318.78125 129.34375 C 308.73105 136.82254 267.27232 166.93777 238.71875 187.6875 L 224.5 182.46875 L 208.65625 194.125 L 210.3125 208.34375 C 210.31064 208.3451 210 208.5625 210 208.5625 L 211.15625 210.15625 L 39.53125 304.65625 L 73.5625 314.9375 L 72.9375 350.46875 L 215.40625 216.03125 L 216.5625 217.625 C 216.5625 217.625 216.90394 217.37669 216.90625 217.375 L 229.90625 223.25 L 245.84375 211.75 L 245.25 196.65625 C 273.75258 175.82499 315.09019 145.61787 325.28125 138.34375 C 348.40023 121.842 370.8125 98.53125 370.8125 98.53125 L 371.21875 98 z "
       transform="translate(0,627.16561)"
       id="path3404-64" />
    <g
       style="font-size:78px;font-style:normal;font-variant:normal;font-weight:900;font-stretch:normal;text-align:center;line-height:125%;letter-spacing:9px;word-spacing:0px;writing-mode:lr-tb;text-anchor:middle;fill:#ffffff;fill-opacity:1;stroke:none;font-family:Orbitron;-inkscape-font-specification:Orbitron Heavy"
       id="text3825"
       transform="translate(7.2323809e-7,-1.6014947)">
      <path
         d="m 74.957462,871.17401 0,43.67908 12.09,0 0,-18.018 c 0.078,0.078 0.234,0.078 0.234,0.078 0,-0.312 -0.078,-0.468 -0.234,-0.468 l 32.447998,-0.078 c 6.396,0 11.622,-5.22601 11.622,-11.544 l 0,-14.508 c 0,-6.318 -5.226,-11.544 -11.622,-11.544 l -32.723184,0 c -6.793433,-0.10386 -12.170503,5.42576 -11.814814,12.40292 z m 12.09,-0.31292 31.823998,0 0,13.338 -31.823998,0 0,-13.338"
         id="path3817"
         inkscape:connector-curvature="0"
         sodipodi:nodetypes="cccccccsssccccccc" />
      <path
         d="m 201.42668,870.23709 c 0,-6.396 -5.22601,-11.544 -11.544,-11.544 l -33.072,0 c -6.39599,0 -11.544,5.148 -11.544,11.544 l 0,11.076 c 0,6.39599 5.14801,11.544 11.544,11.544 l 32.37,0 0,9.828 -31.824,0 0,-4.602 -12.09,0 0,5.226 c 0,6.39599 5.14801,11.544 11.544,11.544 l 33.072,0 c 6.31799,0 11.544,-5.14801 11.544,-11.544 l 0,-11.076 c 0,-6.396 -5.22601,-11.544 -11.544,-11.544 l -32.526,0 0,-9.828 31.824,0 0,4.602 12.246,0 0,-5.226"
         id="path3819"
         inkscape:connector-curvature="0" />
      <path
         d="m 230.4934,858.69309 c -6.39599,0 -11.544,5.148 -11.544,11.544 l 0,44.616 12.09,0 0,-18.096 31.824,0 0,18.096 12.246,0 0,-44.616 c 0,-6.396 -5.22601,-11.544 -11.622,-11.544 l -32.994,0 m 0.546,25.896 0,-13.728 31.824,0 0,13.728 -31.824,0"
         id="path3821"
         inkscape:connector-curvature="0" />
      <path
         d="m 348.76652,870.23709 c 0,-6.396 -5.226,-11.544 -11.544,-11.544 l -33.072,0 c -6.39599,0 -11.544,5.148 -11.544,11.544 l 0,11.076 c 0,6.39599 5.14801,11.544 11.544,11.544 l 32.37,0 0,9.828 -31.824,0 0,-4.602 -12.09,0 0,5.226 c 0,6.39599 5.14801,11.544 11.544,11.544 l 33.072,0 c 6.318,0 11.544,-5.14801 11.544,-11.544 l 0,-11.076 c 0,-6.396 -5.226,-11.544 -11.544,-11.544 l -32.526,0 0,-9.828 31.824,0 0,4.602 12.246,0 0,-5.226"
         id="path3823"
         inkscape:connector-curvature="0" />
    </g>
    <path
       style="fill:#a33f1f;fill-opacity:1;stroke:none"
       d="m -35.620571,661.97367 -0.21875,0.5625 c 0,0 -5.62539,31.87851 -5.34375,60.28125 0.12418,12.52341 0.04972,63.72945 0,99.03125 l -12.59375,8.4375 0.09375,19.65625 12.46875,7.09375 c 0,0.002 0,0.34375 0,0.34375 l 1.96875,0 -24.75,194.34378 28.375,-21.4375 28.3437501,21.4375 -24.7500001,-194.31253 1.96875,0 c 0,0 0,-0.40363 0,-0.40625 l 12.40625,-7.0625 0.09375,-19.65625 -12.53125,-8.375 c -0.04621,-35.29603 -0.09295,-86.5372 0.03125,-99.0625 0.28164,-28.40274 -5.375,-60.25 -5.375,-60.25 l -0.1875,-0.625 z"
       id="path3404"
       inkscape:connector-curvature="0" />
    <path
       style="fill:#ffffff;fill-opacity:1;stroke:none"
       d="m 206.95574,694.48843 c -33.76287,0 -67.01203,54.33548 -74.85685,127.71753 -0.36878,3.44961 -1.76116,7.02417 -2.94502,10.47145 0.41818,0.70065 3.89864,2.2329 6.8455,2.30215 4.25953,0.10009 6.84284,-1.20112 7.89053,-2.30215 -0.66672,-1.53218 -0.91016,-7.12556 -0.4978,-10.61861 8.23978,-69.79839 35.11053,-120.50787 65.34016,-120.50787 1.82048,-3.51919 1.82048,-3.51919 -1.77652,-7.06253 z"
       id="path4673"
       inkscape:connector-curvature="0"
       sodipodi:nodetypes="cscscsccc" />
  </g>
</svg>
