<?xml version="1.0" encoding="UTF-8" standalone="no"?>
<!-- Created with Inkscape (http://www.inkscape.org/) -->

<svg
   xmlns:dc="http://purl.org/dc/elements/1.1/"
   xmlns:cc="http://creativecommons.org/ns#"
   xmlns:rdf="http://www.w3.org/1999/02/22-rdf-syntax-ns#"
   xmlns:svg="http://www.w3.org/2000/svg"
   xmlns="http://www.w3.org/2000/svg"
   xmlns:sodipodi="http://sodipodi.sourceforge.net/DTD/sodipodi-0.dtd"
   xmlns:inkscape="http://www.inkscape.org/namespaces/inkscape"
   width="450"
   height="180"
   id="svg2"
   version="1.1"
   inkscape:version="0.48.3.1 r9886">
  <defs
     id="defs4">
    <clipPath
       id="clipPath3037"
       clipPathUnits="userSpaceOnUse">
      <path
         id="path3039"
         d="m 254,-144.09961 c 0,0 -252,0 -252,0 C 2,-144.09961 2,0 2,0 c 0,0 252,0 252,0 0,0 0,-144.09961 0,-144.09961 z"
         inkscape:connector-curvature="0" />
    </clipPath>
  </defs>
  <sodipodi:namedview
     id="base"
     pagecolor="#ffffff"
     bordercolor="#666666"
     borderopacity="1.0"
     inkscape:pageopacity="0.0"
     inkscape:pageshadow="2"
     inkscape:zoom="1.0429825"
     inkscape:cx="281.56854"
     inkscape:cy="165.61817"
     inkscape:document-units="in"
     inkscape:current-layer="layer1"
     showgrid="false"
     units="in"
     borderlayer="true"
     inkscape:showpageshadow="false"
     inkscape:window-width="1280"
     inkscape:window-height="749"
     inkscape:window-x="0"
     inkscape:window-y="27"
     inkscape:window-maximized="1" />
  <metadata
     id="metadata7">
    <rdf:RDF>
      <cc:Work
         rdf:about="">
        <dc:format>image/svg+xml</dc:format>
        <dc:type
           rdf:resource="http://purl.org/dc/dcmitype/StillImage" />
        <dc:title></dc:title>
      </cc:Work>
    </rdf:RDF>
  </metadata>
  <g
     inkscape:label="Layer 1"
     inkscape:groupmode="layer"
     id="layer1"
     transform="translate(0,-872.35975)">
    <path
       inkscape:connector-curvature="0"
       d="M 11.112493,1018.9817 C 111.3329,988.76397 307.51619,979.70528 441.44466,1019.8355"
       style="fill:none;stroke:#231f20;stroke-width:5;stroke-linecap:round;stroke-linejoin:miter;stroke-miterlimit:4;stroke-opacity:1;stroke-dasharray:none"
       id="path3041" />
    <path
       inkscape:connector-curvature="0"
       d="m 189.05094,1027.9969 c 3.39697,-0.033 6.20363,-0.14 6.20363,-0.14 0,0 29.44141,-88.31431 29.44141,-88.31431 0,0 -35.64504,88.45431 -35.64504,88.45431 z"
       style="fill:#ffffff;fill-opacity:1;fill-rule:nonzero;stroke:none"
       id="path3043" />
    <path
       inkscape:connector-curvature="0"
       d="m 189.05094,1027.9969 c 3.39697,-0.033 6.20363,-0.14 6.20363,-0.14 0,0 29.44141,-88.31431 29.44141,-88.31431 0,0 -35.64504,88.45431 -35.64504,88.45431 z"
       style="fill:none;stroke:#231f20;stroke-width:1.25;stroke-linecap:butt;stroke-linejoin:miter;stroke-miterlimit:4;stroke-opacity:1;stroke-dasharray:none"
       id="path3045" />
    <path
       inkscape:connector-curvature="0"
       d="m 34.687968,995.75137 c 0,0 -5.559089,1.3207 -5.559089,1.3207 0,0 0.732931,2.5249 0.732931,2.5249 0,0 5.559925,-1.3175 5.559925,-1.3175 0.429427,-0.1034 0.706257,-0.2318 0.831327,-0.3802 0.12507,-0.1467 0.147577,-0.3635 0.06421,-0.6437 0,0 -0.296007,-1.0206 -0.296007,-1.0206 -0.07922,-0.2768 -0.215132,-0.4503 -0.405246,-0.5236 -0.190115,-0.077 -0.499459,-0.06 -0.928049,0.04 z m -5.666655,9.84073 c 0,0 -2.7933,-9.60893 -2.7933,-9.60893 0,0 9.071983,-2.153 9.071983,-2.153 0.846337,-0.2034 1.500886,-0.2001 1.963646,0 0.465289,0.2052 0.792973,0.6321 0.982251,1.2858 0,0 0.618688,2.1279 0.618688,2.1279 0.189277,0.6537 0.13675,1.1707 -0.156747,1.5543 -0.292677,0.3835 -0.861348,0.6804 -1.706831,0.8805 0,0 -6.653908,1.58263 -6.653908,1.58263 0,0 1.090636,3.7555 1.090636,3.7555 0,0 -2.416418,0.5737 -2.416418,0.5737 z"
       style="fill:#231f20;fill-opacity:1;fill-rule:nonzero;stroke:none"
       id="path3047" />
    <path
       inkscape:connector-curvature="0"
       d="m 44.627958,1000.4108 c 0,0 7.048311,-1.45423 7.048311,-1.45423 0,0 -1.251566,-4.9579 -1.251566,-4.9579 0,0 -7.048312,1.4525 -7.048312,1.4525 0,0 1.251567,4.95963 1.251567,4.95963 z m -3.291922,-4.10243 c -0.180107,-0.7154 -0.148413,-1.2374 0.09672,-1.5626 0.24681,-0.3252 0.81881,-0.5804 1.721005,-0.7671 0,0 6.763967,-1.3958 6.763967,-1.3958 0.908035,-0.1902 1.549247,-0.1835 1.9228,0.015 0.374389,0.1984 0.652038,0.657 0.832983,1.3691 0,0 1.058121,4.1874 1.058121,4.1874 0.180945,0.7255 0.146757,1.2458 -0.101725,1.576 -0.24932,0.32013 -0.820483,0.58033 -1.715181,0.76373 0,0 -6.763114,1.3959 -6.763114,1.3959 -0.903032,0.1867 -1.540914,0.1851 -1.919469,-0.017 -0.377719,-0.1952 -0.655386,-0.6554 -0.838824,-1.3775 0,0 -1.057285,-4.18753 -1.057285,-4.18753 z"
       style="fill:#231f20;fill-opacity:1;fill-rule:nonzero;stroke:none"
       id="path3049" />
    <path
       inkscape:connector-curvature="0"
       d="m 63.015402,991.54217 c 0,0 -4.909544,0.8939 -4.909544,0.8939 0,0 0.485285,2.183 0.485285,2.183 0,0 4.911217,-0.8906 4.911217,-0.8906 0.372716,-0.068 0.619525,-0.1634 0.736261,-0.2835 0.117573,-0.125 0.150924,-0.3018 0.100069,-0.5319 0,0 -0.203468,-0.9106 -0.203468,-0.9106 -0.05169,-0.2301 -0.157584,-0.3802 -0.317678,-0.4536 -0.160093,-0.072 -0.427753,-0.075 -0.802142,-0.01 z m -5.556579,7.8613 c 0,0 -1.771875,-7.9697 -1.771875,-7.9697 0,0 7.937152,-1.4425 7.937152,-1.4425 0.727927,-0.1317 1.281587,-0.1067 1.661799,0.08 0.381066,0.1835 0.632042,0.5537 0.754618,1.1007 0,0 0.412744,1.8594 0.412744,1.8594 0.120902,0.542 0.04585,0.9673 -0.227632,1.2658 -0.271827,0.3018 -0.771285,0.5169 -1.499213,0.6503 0,0 -1.211556,0.2168 -1.211556,0.2168 0,0 4.867023,2.2547 4.867023,2.2547 0,0 -3.086814,0.5603 -3.086814,0.5603 0,0 -4.368383,-2.3413 -4.368383,-2.3413 0,0 -2.027018,0.3652 -2.027018,0.3652 0,0 0.669559,3.0151 0.669559,3.0151 0,0 -2.110404,0.3852 -2.110404,0.3852 z"
       style="fill:#231f20;fill-opacity:1;fill-rule:nonzero;stroke:none"
       id="path3051" />
    <path
       inkscape:connector-curvature="0"
       d="m 73.73168,989.78447 c 0,0 1.308278,6.5539 1.308278,6.5539 0,0 -2.144591,0.3502 -2.144591,0.3502 0,0 -1.307441,-6.5538 -1.307441,-6.5538 0,0 -4.254995,0.697 -4.254995,0.697 0,0 -0.286,-1.4475 -0.286,-1.4475 0,0 10.684601,-1.7443 10.684601,-1.7443 0,0 0.288494,1.4441 0.288494,1.4441 0,0 -4.288346,0.7004 -4.288346,0.7004 z"
       style="fill:#231f20;fill-opacity:1;fill-rule:nonzero;stroke:none"
       id="path3053" />
    <path
       inkscape:connector-curvature="0"
       d="m 81.68468,995.28777 c 0,0 -1.440845,-8.0314 -1.440845,-8.0314 0,0 2.177105,-0.3168 2.177105,-0.3168 0,0 1.170692,6.5221 1.170692,6.5221 0,0 6.940728,-1.0189 6.940728,-1.0189 0,0 0.271827,1.5075 0.271827,1.5075 0,0 -9.119507,1.3375 -9.119507,1.3375 z"
       style="fill:#231f20;fill-opacity:1;fill-rule:nonzero;stroke:none"
       id="path3055" />
    <path
       inkscape:connector-curvature="0"
       d="m 95.142567,990.07467 c 0,0 4.07656,-0.5336 4.07656,-0.5336 0,0 -2.609042,-3.0735 -2.609042,-3.0735 0,0 -1.467518,3.6071 -1.467518,3.6071 z m -3.693839,3.7806 c 0,0 3.994012,-8.72013 3.994012,-8.72013 0,0 2.08455,-0.27017 2.08455,-0.27017 0,0 6.64474,7.3243 6.64474,7.3243 0,0 -2.43476,0.3218 -2.43476,0.3218 0,0 -1.39749,-1.6092 -1.39749,-1.6092 0,0 -5.88595,0.7704 -5.88595,0.7704 0,0 -0.83966,1.8978 -0.83966,1.8978 0,0 -2.165442,0.2852 -2.165442,0.2852 z"
       style="fill:#231f20;fill-opacity:1;fill-rule:nonzero;stroke:none"
       id="path3057" />
    <path
       inkscape:connector-curvature="0"
       d="m 105.92722,991.98577 c 0,0 -1.12482,-8.058 -1.12482,-8.058 0,0 1.4917,-0.16845 1.4917,-0.16845 0,0 8.30321,4.48595 8.30321,4.48595 0,0 -0.74545,-5.34812 -0.74545,-5.34812 0,0 1.972,-0.22679 1.972,-0.22679 0,0 1.12398,8.05971 1.12398,8.05971 0,0 -1.50338,0.1718 -1.50338,0.1718 0,0 -8.30319,-4.5744 -8.30319,-4.5744 0,0 0.75877,5.4332 0.75877,5.4332 0,0 -1.97282,0.2251 -1.97282,0.2251 z"
       style="fill:#231f20;fill-opacity:1;fill-rule:nonzero;stroke:none"
       id="path3059" />
    <path
       inkscape:connector-curvature="0"
       d="m 122.52278,988.63387 c 0,0 2.80498,-0.2735 2.80498,-0.2735 1.53173,-0.1501 2.58068,-0.457 3.14434,-0.9222 0.562,-0.4653 0.78714,-1.1774 0.67206,-2.13628 -0.10006,-0.83715 -0.42941,-1.4375 -0.9864,-1.79103 -0.55617,-0.36022 -1.36165,-0.49029 -2.41393,-0.38691 0,0 -3.83392,0.3769 -3.83392,0.3769 0,0 0.61287,5.13302 0.61287,5.13302 z m -2.02953,1.721 c 0,0 -0.96638,-8.08308 -0.96638,-8.08308 0,0 6.02519,-0.58868 6.02519,-0.58868 1.72685,-0.17011 3.09431,0.0467 4.10324,0.65038 1.00808,0.60369 1.59093,1.54924 1.74434,2.83833 0.16344,1.35745 -0.20678,2.42475 -1.10564,3.19685 -0.89969,0.7755 -2.34053,1.2624 -4.3217,1.4542 0,0 -5.47905,0.532 -5.47905,0.532 z"
       style="fill:#231f20;fill-opacity:1;fill-rule:nonzero;stroke:none"
       id="path3061" />
    <path
       inkscape:connector-curvature="0"
       d="m 151.96003,979.41011 c 0,0 -7.14169,0.52197 -7.14169,0.52197 0,0 0.19428,2.1546 0.19428,2.1546 0,0 6.80149,-0.49862 6.80149,-0.49862 1.06229,-0.0801 1.79773,0.0334 2.20212,0.33186 0.40192,0.30183 0.64456,0.90053 0.7246,1.79439 0,0 0.12174,1.34745 0.12174,1.34745 0.08,0.90391 -0.0517,1.53421 -0.39606,1.89441 -0.34437,0.3619 -1.04979,0.577 -2.11375,0.6571 0,0 -6.73895,0.4936 -6.73895,0.4936 -1.07563,0.078 -1.81689,-0.033 -2.22463,-0.3385 -0.40858,-0.3052 -0.65288,-0.9089 -0.73377,-1.8128 0,0 -0.0242,-0.2701 -0.0242,-0.2701 0,0 2.20629,-0.58368 2.20629,-0.58368 0,0 0.10423,1.16738 0.10423,1.16738 0,0 7.71786,-0.567 7.71786,-0.567 0,0 -0.19845,-2.24468 -0.19845,-2.24468 0,0 -6.79232,0.50028 -6.79232,0.50028 -1.05812,0.0767 -1.78521,-0.0334 -2.18462,-0.33686 -0.40106,-0.30352 -0.64037,-0.90386 -0.72041,-1.80105 0,0 -0.0992,-1.10732 -0.0992,-1.10732 -0.0809,-0.8972 0.0484,-1.52422 0.3894,-1.88276 0.34104,-0.35521 1.03894,-0.57535 2.09623,-0.65205 0,0 6.19029,-0.45694 6.19029,-0.45694 1.02643,-0.0717 1.74853,0.0317 2.16626,0.32186 0.41859,0.28849 0.66374,0.83882 0.7371,1.6493 0,0 0.0184,0.20678 0.0184,0.20678 0,0 -2.20047,0.64871 -2.20047,0.64871 0,0 -0.10172,-1.13733 -0.10172,-1.13733 z"
       style="fill:#231f20;fill-opacity:1;fill-rule:nonzero;stroke:none"
       id="path3063" />
    <path
       inkscape:connector-curvature="0"
       d="m 163.95373,980.17556 c 0,0 0.48277,6.67061 0.48277,6.67061 0,0 -2.17627,0.1267 -2.17627,0.1267 0,0 -0.48112,-6.67224 -0.48112,-6.67224 0,0 -4.31669,0.25849 -4.31669,0.25849 0,0 -0.10422,-1.44418 -0.10422,-1.44418 0,0 10.84552,-0.64037 10.84552,-0.64037 0,0 0.1034,1.44417 0.1034,1.44417 0,0 -4.35339,0.25682 -4.35339,0.25682 z"
       style="fill:#231f20;fill-opacity:1;fill-rule:nonzero;stroke:none"
       id="path3065" />
    <path
       inkscape:connector-curvature="0"
       d="m 172.31863,983.15064 c 0,0 4.11492,-0.19845 4.11492,-0.19845 0,0 -2.29219,-3.28359 -2.29219,-3.28359 0,0 -1.82273,3.48204 -1.82273,3.48204 z m -4.06155,3.46373 c 0,0 4.85367,-8.37327 4.85367,-8.37327 0,0 2.10458,-0.10007 2.10458,-0.10007 0,0 5.89178,7.85294 5.89178,7.85294 0,0 -2.4581,0.1184 -2.4581,0.1184 0,0 -1.2349,-1.72934 -1.2349,-1.72934 0,0 -5.94265,0.28516 -5.94265,0.28516 0,0 -1.02476,1.83938 -1.02476,1.83938 0,0 -2.18962,0.1068 -2.18962,0.1068 z"
       style="fill:#231f20;fill-opacity:1;fill-rule:nonzero;stroke:none"
       id="path3067" />
    <path
       inkscape:connector-curvature="0"
       d="m 186.74458,979.11494 c 0,0 0.30268,6.67053 0.30268,6.67053 0,0 -2.17545,0.08 -2.17545,0.08 0,0 -0.30101,-6.67053 -0.30101,-6.67053 0,0 -4.35088,0.1601 -4.35088,0.1601 0,0 -0.0659,-1.44418 -0.0659,-1.44418 0,0 10.87553,-0.4019 10.87553,-0.4019 0,0 0.0659,1.44585 0.0659,1.44585 0,0 -4.35088,0.16009 -4.35088,0.16009 z"
       style="fill:#231f20;fill-opacity:1;fill-rule:nonzero;stroke:none"
       id="path3069" />
    <path
       inkscape:connector-curvature="0"
       d="m 193.74118,985.55538 c 0,0 -0.25349,-8.11308 -0.25349,-8.11308 0,0 9.6515,-0.24348 9.6515,-0.24348 0,0 0.0466,1.4425 0.0466,1.4425 0,0 -7.44435,0.18846 -7.44435,0.18846 0,0 0.0575,1.78103 0.0575,1.78103 0,0 4.31585,-0.10839 4.31585,-0.10839 0,0 0.0417,1.38081 0.0417,1.38081 0,0 -4.31587,0.1134 -4.31587,0.1134 0,0 0.0651,1.99451 0.0651,1.99451 0,0 7.54275,-0.19012 7.54275,-0.19012 0,0 0.0451,1.50755 0.0451,1.50755 0,0 -9.75239,0.24681 -9.75239,0.24681 z"
       style="fill:#231f20;fill-opacity:1;fill-rule:nonzero;stroke:none"
       id="path3071" />
    <path
       inkscape:connector-curvature="0"
       d="m 217.54347,981.15614 c 0,0 4.80447,-0.0233 4.80447,-0.0233 0,0 -2.38807,-4.02236 -2.38807,-4.02236 0,0 -2.4164,4.04571 -2.4164,4.04571 z m -4.88204,3.98733 c 0,0 6.14443,-9.95249 6.14443,-9.95249 0,0 2.45978,-0.0116 2.45978,-0.0116 0,0 6.34538,9.89246 6.34538,9.89246 0,0 -2.86167,0.015 -2.86167,0.015 0,0 -1.33161,-2.17461 -1.33161,-2.17461 0,0 -6.95325,0.035 -6.95325,0.035 0,0 -1.26157,2.18461 -1.26157,2.18461 0,0 -2.54149,0.0116 -2.54149,0.0116 z"
       style="fill:#231f20;fill-opacity:1;fill-rule:nonzero;stroke:none"
       id="path3073" />
    <path
       inkscape:connector-curvature="0"
       d="m 229.40708,985.09178 c 0,0 0.0801,-8.13811 0.0801,-8.13811 0,0 9.64731,0.0784 9.64731,0.0784 0,0 -0.0137,1.44252 -0.0137,1.44252 0,0 -7.4427,-0.0584 -7.4427,-0.0584 0,0 -0.0171,1.74935 -0.0171,1.74935 0,0 4.3142,0.035 4.3142,0.035 0,0 -0.0137,1.41249 -0.0137,1.41249 0,0 -4.3142,-0.0334 -4.3142,-0.0334 0,0 -0.02,2.02786 -0.02,2.02786 0,0 7.54443,0.06 7.54443,0.06 0,0 -0.0183,1.50422 -0.0183,1.50422 0,0 -9.74738,-0.08 -9.74738,-0.08 z"
       style="fill:#231f20;fill-opacity:1;fill-rule:nonzero;stroke:none"
       id="path3075" />
    <path
       inkscape:connector-curvature="0"
       d="m 249.20702,978.63466 c 0,0 -4.9846,-0.1034 -4.9846,-0.1034 0,0 -0.0567,2.2113 -0.0567,2.2113 0,0 4.98792,0.10673 4.98792,0.10673 0.37689,0.007 0.6387,-0.0367 0.78213,-0.13508 0.14174,-0.0951 0.21679,-0.25849 0.22512,-0.49362 0,0 0.0234,-0.91888 0.0234,-0.91888 0.005,-0.23347 -0.0601,-0.40357 -0.20011,-0.50362 -0.14002,-0.10006 -0.39691,-0.15509 -0.77712,-0.16343 z m -7.32929,6.58052 c 0,0 0.20345,-8.13977 0.20345,-8.13977 0,0 8.09306,0.1651 8.09306,0.1651 0.73877,0.0167 1.26576,0.15008 1.59593,0.40857 0.32354,0.25349 0.47696,0.66205 0.46362,1.22406 0,0 -0.0451,1.87942 -0.0451,1.87942 -0.0171,0.55366 -0.19177,0.95391 -0.52865,1.18736 -0.33685,0.24348 -0.8755,0.35356 -1.6126,0.33687 0,0 -1.23239,-0.0233 -1.23239,-0.0233 0,0 4.19079,3.19187 4.19079,3.19187 0,0 -3.1385,-0.0667 -3.1385,-0.0667 0,0 -3.67883,-3.17854 -3.67883,-3.17854 0,0 -2.05788,-0.0434 -2.05788,-0.0434 0,0 -0.0767,3.10515 -0.0767,3.10515 0,0 -2.17627,-0.0467 -2.17627,-0.0467 z"
       style="fill:#231f20;fill-opacity:1;fill-rule:nonzero;stroke:none"
       id="path3077" />
    <path
       inkscape:connector-curvature="0"
       d="m 257.24673,984.00948 c 0,0 7.2676,0.24513 7.2676,0.24513 0,0 0.21011,-5.03461 0.21011,-5.03461 0,0 -7.27093,-0.24848 -7.27093,-0.24848 0,0 -0.20678,5.03796 -0.20678,5.03796 z m -1.98117,-4.69108 c 0.0316,-0.74378 0.21013,-1.24407 0.53865,-1.50422 0.32687,-0.26016 0.94723,-0.37355 1.85943,-0.34353 0,0 6.97741,0.24013 6.97741,0.24013 0.92388,0.03 1.53256,0.19012 1.83609,0.46695 0.30184,0.28349 0.43692,0.79379 0.40357,1.53423 0,0 -0.17345,4.25416 -0.17345,4.25416 -0.035,0.7471 -0.21346,1.2524 -0.54698,1.50922 -0.3302,0.26013 -0.94889,0.37523 -1.85608,0.34023 0,0 -6.9791,-0.23518 -6.9791,-0.23518 -0.9122,-0.0317 -1.52089,-0.18676 -1.82774,-0.4686 -0.30517,-0.2785 -0.44192,-0.79381 -0.41023,-1.54257 0,0 0.17843,-4.25082 0.17843,-4.25082 z"
       style="fill:#231f20;fill-opacity:1;fill-rule:nonzero;stroke:none"
       id="path3079" />
    <path
       inkscape:connector-curvature="0"
       d="m 278.62425,979.77199 c 0,0 -6.18196,-0.2985 -6.18196,-0.2985 0,0 -0.10178,1.721 -0.10178,1.721 0,0 5.8501,0.28516 5.8501,0.28516 0.91887,0.0384 1.53258,0.2068 1.83775,0.48196 0.29683,0.28016 0.42858,0.78879 0.38522,1.52756 0,0 -0.0651,1.12566 -0.0651,1.12566 -0.0451,0.74377 -0.23682,1.23734 -0.57701,1.49424 -0.34187,0.2501 -0.96724,0.3568 -1.87111,0.3135 0,0 -5.83007,-0.2818 -5.83007,-0.2818 -0.92221,-0.045 -1.5409,-0.2102 -1.85108,-0.4953 -0.30853,-0.28354 -0.4436,-0.79717 -0.39857,-1.5376 0,0 0.012,-0.23014 0.012,-0.23014 0,0 1.95615,-0.24513 1.95615,-0.24513 0,0 -0.0567,0.98223 -0.0567,0.98223 0,0 6.62221,0.31851 6.62221,0.31851 0,0 0.10844,-1.87609 0.10844,-1.87609 0,0 -5.83175,-0.27683 -5.83175,-0.27683 -0.91719,-0.0467 -1.53422,-0.21013 -1.8394,-0.49362 -0.30852,-0.28516 -0.44193,-0.79714 -0.39857,-1.52923 0,0 0.0517,-0.90888 0.0517,-0.90888 0.0451,-0.73209 0.23515,-1.22403 0.57701,-1.48085 0.3402,-0.25682 0.97057,-0.36189 1.88945,-0.31686 0,0 5.33145,0.25682 5.33145,0.25682 0.9072,0.0434 1.51923,0.20345 1.84107,0.48028 0.31853,0.27183 0.46027,0.7371 0.42526,1.39248 0,0 -0.0154,0.20178 -0.0154,0.20178 0,0 -1.9228,0.28018 -1.9228,0.28018 0,0 0.0533,-0.89053 0.0533,-0.89053 z"
       style="fill:#231f20;fill-opacity:1;fill-rule:nonzero;stroke:none"
       id="path3081" />
    <path
       inkscape:connector-curvature="0"
       d="m 291.20496,980.43905 c 0,0 -5.01294,-0.31018 -5.01294,-0.31018 0,0 -0.16513,2.1796 -0.16513,2.1796 0,0 5.0146,0.30852 5.0146,0.30852 0.37689,0.0217 0.64537,-0.0101 0.79713,-0.10172 0.14669,-0.0917 0.2318,-0.26182 0.25016,-0.49862 0,0 0.0616,-0.85718 0.0616,-0.85718 0.02,-0.23848 -0.0384,-0.41357 -0.17343,-0.52364 -0.13337,-0.10839 -0.38857,-0.17343 -0.77213,-0.19678 z m -7.65949,6.27872 c 0,0 0.61369,-8.10312 0.61369,-8.10312 0,0 8.08474,0.50029 8.08474,0.50029 0.74544,0.0467 1.27075,0.20011 1.58093,0.46528 0.30685,0.26514 0.44358,0.67205 0.4019,1.22571 0,0 -0.13849,1.81772 -0.13849,1.81772 -0.0417,0.55366 -0.23681,0.94057 -0.58701,1.16404 -0.34854,0.22679 -0.89219,0.31351 -1.63095,0.27015 0,0 -5.94848,-0.36689 -5.94848,-0.36689 0,0 -0.23848,3.16182 -0.23848,3.16182 0,0 -2.13791,-0.135 -2.13791,-0.135 z"
       style="fill:#231f20;fill-opacity:1;fill-rule:nonzero;stroke:none"
       id="path3083" />
    <path
       inkscape:connector-curvature="0"
       d="m 298.40085,984.41471 c 0,0 4.1024,0.30352 4.1024,0.30352 0,0 -1.78105,-3.53207 -1.78105,-3.53207 0,0 -2.32135,3.22855 -2.32135,3.22855 z m -4.52766,2.94006 c 0,0 6.04354,-7.71286 6.04354,-7.71286 0,0 2.0979,0.1601 2.0979,0.1601 0,0 4.65773,8.50166 4.65773,8.50166 0,0 -2.44978,-0.1801 -2.44978,-0.1801 0,0 -0.9639,-1.8645 -0.9639,-1.8645 0,0 -5.91846,-0.4402 -5.91846,-0.4402 0,0 -1.29076,1.6977 -1.29076,1.6977 0,0 -2.17627,-0.1618 -2.17627,-0.1618 z"
       style="fill:#231f20;fill-opacity:1;fill-rule:nonzero;stroke:none"
       id="path3085" />
    <path
       inkscape:connector-curvature="0"
       d="m 316.97339,982.5236 c 0,0 -5.87344,-0.52031 -5.87344,-0.52031 0,0 -0.54698,5.06298 -0.54698,5.06298 0,0 5.87511,0.5203 5.87511,0.5203 0,0 0.18176,-1.716 0.18176,-1.716 0,0 2.16628,0.597 2.16628,0.597 0,0 -0.10178,0.9539 -0.10178,0.9539 -0.0833,0.7371 -0.30019,1.2324 -0.65538,1.4759 -0.35188,0.2451 -0.98893,0.3235 -1.90779,0.2451 0,0 -5.58494,-0.4953 -5.58494,-0.4953 -0.89887,-0.083 -1.49254,-0.2701 -1.78938,-0.5687 -0.29184,-0.2985 -0.4019,-0.8221 -0.31686,-1.5675 0,0 0.46527,-4.27753 0.46527,-4.27753 0.0784,-0.72877 0.29184,-1.21738 0.64205,-1.45586 0.3452,-0.23848 0.97224,-0.31351 1.87944,-0.23515 0,0 5.5866,0.49697 5.5866,0.49697 0.92053,0.0834 1.53089,0.27015 1.8244,0.567 0.2935,0.29184 0.3969,0.80547 0.32019,1.53423 0,0 -0.0867,0.79047 -0.0867,0.79047 0,0 -2.23798,0.0967 -2.23798,0.0967 0,0 0.16001,-1.50422 0.16001,-1.50422 z"
       style="fill:#231f20;fill-opacity:1;fill-rule:nonzero;stroke:none"
       id="path3087" />
    <path
       inkscape:connector-curvature="0"
       d="m 321.61778,989.65777 c 0,0 1.02059,-8.06971 1.02059,-8.06971 0,0 9.60897,0.99391 9.60897,0.99391 0,0 -0.17843,1.40917 -0.17843,1.40917 0,0 -7.40101,-0.76379 -7.40101,-0.76379 0,0 -0.22513,1.77771 -0.22513,1.77771 0,0 4.31086,0.44692 4.31086,0.44692 0,0 -0.17511,1.38079 -0.17511,1.38079 0,0 -4.31085,-0.4452 -4.31085,-0.4452 0,0 -0.25016,1.9928 -0.25016,1.9928 0,0 7.50107,0.7771 7.50107,0.7771 0,0 -0.19012,1.5042 -0.19012,1.5042 0,0 -9.71068,-1.0039 -9.71068,-1.0039 z"
       style="fill:#231f20;fill-opacity:1;fill-rule:nonzero;stroke:none"
       id="path3089" />
    <path
       inkscape:connector-curvature="0"
       d="m 353.17293,985.08177 c 0,0 -7.1275,-0.93221 -7.1275,-0.93221 0,0 -0.33687,2.11961 -0.33687,2.11961 0,0 6.78564,0.8838 6.78564,0.8838 1.06229,0.1418 1.75603,0.3969 2.07456,0.7738 0.32352,0.3769 0.41523,1.0106 0.27182,1.8978 0,0 -0.21345,1.3474 -0.21345,1.3474 -0.14345,0.8939 -0.42692,1.4742 -0.85218,1.7561 -0.42524,0.2751 -1.17235,0.3468 -2.23131,0.2067 0,0 -6.72894,-0.8755 -6.72894,-0.8755 -1.06062,-0.1401 -1.74935,-0.3952 -2.07121,-0.7704 -0.31852,-0.3769 -0.40858,-1.0089 -0.27016,-1.8995 0,0 0.0451,-0.2701 0.0451,-0.2701 0,0 2.30801,-0.1284 2.30801,-0.1284 0,0 -0.18678,1.164 -0.18678,1.164 0,0 7.66949,1.0006 7.66949,1.0006 0,0 0.35856,-2.2397 0.35856,-2.2397 0,0 -6.77898,-0.8822 -6.77898,-0.8822 -1.05396,-0.1367 -1.73769,-0.3969 -2.0562,-0.7737 -0.31519,-0.3753 -0.40525,-1.009 -0.2635,-1.90449 0,0 0.17511,-1.09564 0.17511,-1.09564 0.14173,-0.88719 0.42524,-1.46919 0.84715,-1.7527 0.42192,-0.27849 1.16069,-0.34686 2.21464,-0.21179 0,0 6.17696,0.80715 6.17696,0.80715 1.02394,0.13173 1.70432,0.38522 2.04452,0.74876 0.33687,0.36689 0.4436,0.95223 0.31686,1.75441 0,0 -0.0333,0.2034 -0.0333,0.2034 0,0 -2.31636,0.1768 -2.31636,0.1768 0,0 0.17843,-1.104 0.17843,-1.104 z"
       style="fill:#231f20;fill-opacity:1;fill-rule:nonzero;stroke:none"
       id="path3091" />
    <path
       inkscape:connector-curvature="0"
       d="m 360.45553,992.81297 c 0,0 7.12418,1.074 7.12418,1.074 0,0 0.92387,-4.998 0.92387,-4.998 0,0 -7.12417,-1.0773 -7.12417,-1.0773 0,0 -0.92388,5.0013 -0.92388,5.0013 z m -1.32411,-4.9129 c 0.13679,-0.7304 0.38524,-1.2007 0.74545,-1.4175 0.3652,-0.2184 1.00558,-0.2585 1.91945,-0.1201 0,0 6.83733,1.0306 6.83733,1.0306 0.91721,0.1401 1.50757,0.3636 1.76938,0.6771 0.26848,0.3102 0.3302,0.8338 0.19345,1.5626 0,0 -0.77713,4.2225 -0.77713,4.2225 -0.13678,0.7321 -0.38689,1.2057 -0.75543,1.4241 -0.37023,0.2152 -1.0056,0.2585 -1.91112,0.1218 0,0 -6.83902,-1.034 -6.83902,-1.034 -0.91053,-0.1384 -1.50087,-0.3635 -1.76604,-0.6754 -0.26682,-0.3135 -0.33185,-0.8321 -0.19845,-1.5692 0,0 0.78213,-4.2225 0.78213,-4.2225 z"
       style="fill:#231f20;fill-opacity:1;fill-rule:nonzero;stroke:none"
       id="path3093" />
    <path
       inkscape:connector-curvature="0"
       d="m 381.88643,991.10867 c 0,0 -5.83675,-0.994 -5.83675,-0.994 0,0 -1.03562,4.9663 -1.03562,4.9663 0,0 5.8351,0.9972 5.8351,0.9972 0,0 0.35019,-1.6859 0.35019,-1.6859 0,0 2.09123,0.7637 2.09123,0.7637 0,0 -0.19678,0.9356 -0.19678,0.9356 -0.15352,0.7237 -0.4119,1.1924 -0.79046,1.4075 -0.37522,0.2134 -1.01393,0.2418 -1.91779,0.087 0,0 -5.54992,-0.9439 -5.54992,-0.9439 -0.88386,-0.1534 -1.45919,-0.3869 -1.71935,-0.7071 -0.26182,-0.3202 -0.31684,-0.8422 -0.16513,-1.5743 0,0 0.8755,-4.1957 0.8755,-4.1957 0.15181,-0.7305 0.41191,-1.1974 0.78379,-1.4075 0.36689,-0.2135 1.00059,-0.2452 1.89112,-0.09 0,0 5.54657,0.9438 5.54657,0.9438 0.91055,0.1568 1.49921,0.3919 1.7577,0.7138 0.26015,0.3202 0.31519,0.8405 0.16684,1.5676 0,0 -0.16513,0.7738 -0.16513,0.7738 0,0 -2.23131,-0.083 -2.23131,-0.083 0,0 0.31018,-1.4743 0.31018,-1.4743 z"
       style="fill:#231f20;fill-opacity:1;fill-rule:nonzero;stroke:none"
       id="path3095" />
    <path
       inkscape:connector-curvature="0"
       d="m 385.75035,998.55297 c 0,0 1.80106,-7.973 1.80106,-7.973 0,0 2.13626,0.3936 2.13626,0.3936 0,0 -1.80273,7.9747 -1.80273,7.9747 0,0 -2.13459,-0.3953 -2.13459,-0.3953 z"
       style="fill:#231f20;fill-opacity:1;fill-rule:nonzero;stroke:none"
       id="path3097" />
    <path
       inkscape:connector-curvature="0"
       d="m 391.35864,999.58857 c 0,0 1.93446,-7.9396 1.93446,-7.9396 0,0 9.42554,1.8761 9.42554,1.8761 0,0 -0.34187,1.4091 -0.34187,1.4091 0,0 -7.25759,-1.4441 -7.25759,-1.4441 0,0 -0.41691,1.7176 -0.41691,1.7176 0,0 4.23749,0.8439 4.23749,0.8439 0,0 -0.3352,1.3791 -0.3352,1.3791 0,0 -4.24082,-0.8455 -4.24082,-0.8455 0,0 -0.47528,1.9628 -0.47528,1.9628 0,0 7.35764,1.46593 7.35764,1.46593 0,0 -0.35854,1.4708 -0.35854,1.4708 0,0 -9.52892,-1.89613 -9.52892,-1.89613 z"
       style="fill:#231f20;fill-opacity:1;fill-rule:nonzero;stroke:none"
       id="path3099" />
    <path
       inkscape:connector-curvature="0"
       d="m 410.43649,996.68187 c 0,0 -1.74769,6.49723 -1.74769,6.49723 0,0 -2.13626,-0.4686 -2.13626,-0.4686 0,0 1.74602,-6.49723 1.74602,-6.49723 0,0 -4.20579,-0.9222 -4.20579,-0.9222 0,0 0.38023,-1.4125 0.38023,-1.4125 0,0 10.57787,2.3197 10.57787,2.3197 0,0 -0.38023,1.4108 -0.38023,1.4108 0,0 -4.23415,-0.9272 -4.23415,-0.9272 z"
       style="fill:#231f20;fill-opacity:1;fill-rule:nonzero;stroke:none"
       id="path3101" />
    <path
       inkscape:connector-curvature="0"
       d="m 418.48454,1005.4371 c 0,0 1.0406,-3.5254 1.0406,-3.5254 0,0 -3.47203,-5.46993 -3.47203,-5.46993 0,0 2.855,0.6904 2.855,0.6904 0,0 2.23298,3.67383 2.23298,3.67383 0,0 3.99234,-2.17293 3.99234,-2.17293 0,0 2.47979,0.597 2.47979,0.597 0,0 -5.97684,3.15183 -5.97684,3.15183 0,0 -1.04895,3.5605 -1.04895,3.5605 0,0 -2.10289,-0.5053 -2.10289,-0.5053 z"
       style="fill:#231f20;fill-opacity:1;fill-rule:nonzero;stroke:none"
       id="path3103" />
    <path
       inkscape:connector-curvature="0"
       d="m 219.90485,958.42698 c 0,0 1.90444,4.35172 1.90444,4.35172 0,0 -0.78046,2.16127 -0.78046,2.16127 0,0 -4.26749,2.1179 -4.26749,2.1179 0,0 3.14351,-8.63089 3.14351,-8.63089 z"
       style="fill:#ffffff;fill-opacity:1;fill-rule:nonzero;stroke:none"
       id="path3105" />
    <path
       inkscape:connector-curvature="0"
       d="m 219.90485,958.42698 c 0,0 1.90444,4.35172 1.90444,4.35172 0,0 -0.78046,2.16127 -0.78046,2.16127 0,0 -4.26749,2.1179 -4.26749,2.1179 0,0 3.14351,-8.63089 3.14351,-8.63089 z"
       style="fill:none;stroke:#231f20;stroke-width:1.25;stroke-linecap:butt;stroke-linejoin:miter;stroke-miterlimit:4;stroke-opacity:1;stroke-dasharray:none"
       id="path3107" />
    <path
       inkscape:connector-curvature="0"
       d="m 216.196,957.0812 c 0,0 -4.24748,2.11457 -4.24748,2.11457 0,0 -0.79046,2.1621 -0.79046,2.1621 0,0 1.91279,4.35921 1.91279,4.35921 0,0 3.12515,-8.63588 3.12515,-8.63588 z"
       style="fill:#ffffff;fill-opacity:1;fill-rule:nonzero;stroke:none"
       id="path3109" />
    <path
       inkscape:connector-curvature="0"
       d="m 216.196,957.0812 c 0,0 -4.24748,2.11457 -4.24748,2.11457 0,0 -0.79046,2.1621 -0.79046,2.1621 0,0 1.91279,4.35921 1.91279,4.35921 0,0 3.12515,-8.63588 3.12515,-8.63588 z"
       style="fill:none;stroke:#231f20;stroke-width:1.25;stroke-linecap:butt;stroke-linejoin:miter;stroke-miterlimit:4;stroke-opacity:1;stroke-dasharray:none"
       id="path3111" />
    <path
       inkscape:connector-curvature="0"
       d="m 215.86247,969.53099 c 0,0 -3.68799,-1.34913 -3.68799,-1.34913 0,0 21.02481,-57.99648 21.02481,-57.99648 0,0 3.71218,1.34163 3.71218,1.34163 0,0 -21.049,58.00398 -21.049,58.00398 z"
       style="fill:#ffffff;fill-opacity:1;fill-rule:nonzero;stroke:none"
       id="path3113" />
    <path
       inkscape:connector-curvature="0"
       d="m 215.86247,969.53099 c 0,0 -3.68799,-1.34913 -3.68799,-1.34913 0,0 21.02481,-57.99648 21.02481,-57.99648 0,0 3.71218,1.34163 3.71218,1.34163 0,0 -21.049,58.00398 -21.049,58.00398 z"
       style="fill:none;stroke:#231f20;stroke-width:1.25;stroke-linecap:butt;stroke-linejoin:miter;stroke-miterlimit:4;stroke-opacity:1;stroke-dasharray:none"
       id="path3115" />
    <path
       inkscape:connector-curvature="0"
       d="m 233.19929,910.18538 c 0,0 10.36609,-22.77917 10.36609,-22.77917 0,0 -6.65391,24.1208 -6.65391,24.1208 0,0 -3.71218,-1.34163 -3.71218,-1.34163 z"
       style="fill:#ffffff;fill-opacity:1;fill-rule:nonzero;stroke:none"
       id="path3117" />
    <path
       inkscape:connector-curvature="0"
       d="m 233.19929,910.18538 c 0,0 10.36609,-22.77917 10.36609,-22.77917 0,0 -6.65391,24.1208 -6.65391,24.1208 0,0 -3.71218,-1.34163 -3.71218,-1.34163 z"
       style="fill:none;stroke:#231f20;stroke-width:1.25;stroke-linecap:butt;stroke-linejoin:miter;stroke-miterlimit:4;stroke-opacity:1;stroke-dasharray:none"
       id="path3119" />
  </g>
</svg>
