<?xml version="1.0" encoding="UTF-8" standalone="no"?>
<!-- Created with Inkscape (http://www.inkscape.org/) -->

<svg
   xmlns:dc="http://purl.org/dc/elements/1.1/"
   xmlns:cc="http://creativecommons.org/ns#"
   xmlns:rdf="http://www.w3.org/1999/02/22-rdf-syntax-ns#"
   xmlns:svg="http://www.w3.org/2000/svg"
   xmlns="http://www.w3.org/2000/svg"
   xmlns:xlink="http://www.w3.org/1999/xlink"
   xmlns:sodipodi="http://sodipodi.sourceforge.net/DTD/sodipodi-0.dtd"
   xmlns:inkscape="http://www.inkscape.org/namespaces/inkscape"
   width="761.81104"
   height="488.97638"
   id="svg2"
   version="1.1"
   inkscape:version="0.48.3.1 r9886"
   sodipodi:docname="lab84-door.svg">
  <defs
     id="defs4">
    <clipPath
       clipPathUnits="userSpaceOnUse"
       id="clipPath3037">
      <path
         inkscape:connector-curvature="0"
         d="m 254,-144.09961 c 0,0 -252,0 -252,0 C 2,-144.09961 2,0 2,0 c 0,0 252,0 252,0 0,0 0,-144.09961 0,-144.09961 z"
         id="path3039" />
    </clipPath>
    <inkscape:perspective
       sodipodi:type="inkscape:persp3d"
       inkscape:vp_x="0 : 0.5 : 1"
       inkscape:vp_y="0 : 1000 : 0"
       inkscape:vp_z="1 : 0.5 : 1"
       inkscape:persp3d-origin="0.5 : 0.33333333 : 1"
       id="perspective3756" />
    <inkscape:perspective
       sodipodi:type="inkscape:persp3d"
       inkscape:vp_x="0 : 0.5 : 1"
       inkscape:vp_y="0 : 1000 : 0"
       inkscape:vp_z="1 : 0.5 : 1"
       inkscape:persp3d-origin="0.5 : 0.33333333 : 1"
       id="perspective3731" />
    <inkscape:perspective
       sodipodi:type="inkscape:persp3d"
       inkscape:vp_x="0 : 0.5 : 1"
       inkscape:vp_y="0 : 1000 : 0"
       inkscape:vp_z="1 : 0.5 : 1"
       inkscape:persp3d-origin="0.5 : 0.33333333 : 1"
       id="perspective3707" />
    <inkscape:perspective
       sodipodi:type="inkscape:persp3d"
       inkscape:vp_x="0 : 0.5 : 1"
       inkscape:vp_y="0 : 1000 : 0"
       inkscape:vp_z="1 : 0.5 : 1"
       inkscape:persp3d-origin="0.5 : 0.33333333 : 1"
       id="perspective3682" />
    <inkscape:perspective
       sodipodi:type="inkscape:persp3d"
       inkscape:vp_x="0 : 0.5 : 1"
       inkscape:vp_y="0 : 1000 : 0"
       inkscape:vp_z="1 : 0.5 : 1"
       inkscape:persp3d-origin="0.5 : 0.33333333 : 1"
       id="perspective2884" />
    <inkscape:perspective
       id="perspective10"
       inkscape:persp3d-origin="372.04724 : 350.78739 : 1"
       inkscape:vp_z="744.09448 : 526.18109 : 1"
       inkscape:vp_y="0 : 1000 : 0"
       inkscape:vp_x="0 : 526.18109 : 1"
       sodipodi:type="inkscape:persp3d" />
    <inkscape:perspective
       sodipodi:type="inkscape:persp3d"
       inkscape:vp_x="0 : 0.5 : 1"
       inkscape:vp_y="0 : 1000 : 0"
       inkscape:vp_z="1 : 0.5 : 1"
       inkscape:persp3d-origin="0.5 : 0.33333333 : 1"
       id="perspective4263" />
    <inkscape:perspective
       sodipodi:type="inkscape:persp3d"
       inkscape:vp_x="0 : 0.5 : 1"
       inkscape:vp_y="0 : 1000 : 0"
       inkscape:vp_z="1 : 0.5 : 1"
       inkscape:persp3d-origin="0.5 : 0.33333333 : 1"
       id="perspective4132" />
    <inkscape:perspective
       sodipodi:type="inkscape:persp3d"
       inkscape:vp_x="0 : 0.5 : 1"
       inkscape:vp_y="0 : 1000 : 0"
       inkscape:vp_z="1 : 0.5 : 1"
       inkscape:persp3d-origin="0.5 : 0.33333333 : 1"
       id="perspective4672" />
    <inkscape:perspective
       sodipodi:type="inkscape:persp3d"
       inkscape:vp_x="0 : 0.5 : 1"
       inkscape:vp_y="0 : 1000 : 0"
       inkscape:vp_z="1 : 0.5 : 1"
       inkscape:persp3d-origin="0.5 : 0.33333333 : 1"
       id="perspective3609" />
    <inkscape:perspective
       sodipodi:type="inkscape:persp3d"
       inkscape:vp_x="0 : 0.5 : 1"
       inkscape:vp_y="0 : 1000 : 0"
       inkscape:vp_z="1 : 0.5 : 1"
       inkscape:persp3d-origin="0.5 : 0.33333333 : 1"
       id="perspective3540-00" />
    <inkscape:perspective
       sodipodi:type="inkscape:persp3d"
       inkscape:vp_x="0 : 0.5 : 1"
       inkscape:vp_y="0 : 1000 : 0"
       inkscape:vp_z="1 : 0.5 : 1"
       inkscape:persp3d-origin="0.5 : 0.33333333 : 1"
       id="perspective3540-0" />
    <inkscape:perspective
       sodipodi:type="inkscape:persp3d"
       inkscape:vp_x="0 : 0.5 : 1"
       inkscape:vp_y="0 : 1000 : 0"
       inkscape:vp_z="1 : 0.5 : 1"
       inkscape:persp3d-origin="0.5 : 0.33333333 : 1"
       id="perspective3540" />
    <inkscape:perspective
       sodipodi:type="inkscape:persp3d"
       inkscape:vp_x="0 : 0.5 : 1"
       inkscape:vp_y="0 : 1000 : 0"
       inkscape:vp_z="1 : 0.5 : 1"
       inkscape:persp3d-origin="0.5 : 0.33333333 : 1"
       id="perspective3466" />
    <inkscape:perspective
       sodipodi:type="inkscape:persp3d"
       inkscape:vp_x="0 : 0.5 : 1"
       inkscape:vp_y="0 : 1000 : 0"
       inkscape:vp_z="1 : 0.5 : 1"
       inkscape:persp3d-origin="0.5 : 0.33333333 : 1"
       id="perspective3383" />
    <inkscape:perspective
       sodipodi:type="inkscape:persp3d"
       inkscape:vp_x="0 : 0.5 : 1"
       inkscape:vp_y="0 : 1000 : 0"
       inkscape:vp_z="1 : 0.5 : 1"
       inkscape:persp3d-origin="0.5 : 0.33333333 : 1"
       id="perspective3346" />
    <inkscape:perspective
       sodipodi:type="inkscape:persp3d"
       inkscape:vp_x="0 : 0.5 : 1"
       inkscape:vp_y="0 : 1000 : 0"
       inkscape:vp_z="1 : 0.5 : 1"
       inkscape:persp3d-origin="0.5 : 0.33333333 : 1"
       id="perspective3300" />
    <inkscape:perspective
       sodipodi:type="inkscape:persp3d"
       inkscape:vp_x="0 : 0.5 : 1"
       inkscape:vp_y="0 : 1000 : 0"
       inkscape:vp_z="1 : 0.5 : 1"
       inkscape:persp3d-origin="0.5 : 0.33333333 : 1"
       id="perspective3260" />
    <inkscape:perspective
       id="perspective3248"
       inkscape:persp3d-origin="372.04724 : 350.78739 : 1"
       inkscape:vp_z="744.09448 : 526.18109 : 1"
       inkscape:vp_y="0 : 1000 : 0"
       inkscape:vp_x="0 : 526.18109 : 1"
       sodipodi:type="inkscape:persp3d" />
    <inkscape:perspective
       sodipodi:type="inkscape:persp3d"
       inkscape:vp_x="0 : 526.18109 : 1"
       inkscape:vp_y="0 : 1000 : 0"
       inkscape:vp_z="744.09448 : 526.18109 : 1"
       inkscape:persp3d-origin="372.04724 : 350.78739 : 1"
       id="perspective10-0" />
    <inkscape:perspective
       id="perspective2839"
       inkscape:persp3d-origin="0.5 : 0.33333333 : 1"
       inkscape:vp_z="1 : 0.5 : 1"
       inkscape:vp_y="0 : 1000 : 0"
       inkscape:vp_x="0 : 0.5 : 1"
       sodipodi:type="inkscape:persp3d" />
    <inkscape:perspective
       id="perspective2876"
       inkscape:persp3d-origin="0.5 : 0.33333333 : 1"
       inkscape:vp_z="1 : 0.5 : 1"
       inkscape:vp_y="0 : 1000 : 0"
       inkscape:vp_x="0 : 0.5 : 1"
       sodipodi:type="inkscape:persp3d" />
    <inkscape:perspective
       id="perspective2840"
       inkscape:persp3d-origin="0.5 : 0.33333333 : 1"
       inkscape:vp_z="1 : 0.5 : 1"
       inkscape:vp_y="0 : 1000 : 0"
       inkscape:vp_x="0 : 0.5 : 1"
       sodipodi:type="inkscape:persp3d" />
    <inkscape:perspective
       id="perspective2841"
       inkscape:persp3d-origin="0.5 : 0.33333333 : 1"
       inkscape:vp_z="1 : 0.5 : 1"
       inkscape:vp_y="0 : 1000 : 0"
       inkscape:vp_x="0 : 0.5 : 1"
       sodipodi:type="inkscape:persp3d" />
    <inkscape:perspective
       id="perspective2833"
       inkscape:persp3d-origin="0.5 : 0.33333333 : 1"
       inkscape:vp_z="1 : 0.5 : 1"
       inkscape:vp_y="0 : 1000 : 0"
       inkscape:vp_x="0 : 0.5 : 1"
       sodipodi:type="inkscape:persp3d" />
    <inkscape:perspective
       id="perspective2901"
       inkscape:persp3d-origin="0.5 : 0.33333333 : 1"
       inkscape:vp_z="1 : 0.5 : 1"
       inkscape:vp_y="0 : 1000 : 0"
       inkscape:vp_x="0 : 0.5 : 1"
       sodipodi:type="inkscape:persp3d" />
    <inkscape:perspective
       id="perspective2835"
       inkscape:persp3d-origin="0.5 : 0.33333333 : 1"
       inkscape:vp_z="1 : 0.5 : 1"
       inkscape:vp_y="0 : 1000 : 0"
       inkscape:vp_x="0 : 0.5 : 1"
       sodipodi:type="inkscape:persp3d" />
    <inkscape:perspective
       id="perspective2901-2"
       inkscape:persp3d-origin="0.5 : 0.33333333 : 1"
       inkscape:vp_z="1 : 0.5 : 1"
       inkscape:vp_y="0 : 1000 : 0"
       inkscape:vp_x="0 : 0.5 : 1"
       sodipodi:type="inkscape:persp3d" />
    <inkscape:perspective
       id="perspective2923"
       inkscape:persp3d-origin="0.5 : 0.33333333 : 1"
       inkscape:vp_z="1 : 0.5 : 1"
       inkscape:vp_y="0 : 1000 : 0"
       inkscape:vp_x="0 : 0.5 : 1"
       sodipodi:type="inkscape:persp3d" />
    <inkscape:perspective
       id="perspective3824"
       inkscape:persp3d-origin="0.5 : 0.33333333 : 1"
       inkscape:vp_z="1 : 0.5 : 1"
       inkscape:vp_y="0 : 1000 : 0"
       inkscape:vp_x="0 : 0.5 : 1"
       sodipodi:type="inkscape:persp3d" />
    <inkscape:perspective
       id="perspective3824-1"
       inkscape:persp3d-origin="0.5 : 0.33333333 : 1"
       inkscape:vp_z="1 : 0.5 : 1"
       inkscape:vp_y="0 : 1000 : 0"
       inkscape:vp_x="0 : 0.5 : 1"
       sodipodi:type="inkscape:persp3d" />
    <inkscape:perspective
       id="perspective3824-2"
       inkscape:persp3d-origin="0.5 : 0.33333333 : 1"
       inkscape:vp_z="1 : 0.5 : 1"
       inkscape:vp_y="0 : 1000 : 0"
       inkscape:vp_x="0 : 0.5 : 1"
       sodipodi:type="inkscape:persp3d" />
    <inkscape:perspective
       id="perspective3824-5"
       inkscape:persp3d-origin="0.5 : 0.33333333 : 1"
       inkscape:vp_z="1 : 0.5 : 1"
       inkscape:vp_y="0 : 1000 : 0"
       inkscape:vp_x="0 : 0.5 : 1"
       sodipodi:type="inkscape:persp3d" />
    <inkscape:perspective
       id="perspective3824-9"
       inkscape:persp3d-origin="0.5 : 0.33333333 : 1"
       inkscape:vp_z="1 : 0.5 : 1"
       inkscape:vp_y="0 : 1000 : 0"
       inkscape:vp_x="0 : 0.5 : 1"
       sodipodi:type="inkscape:persp3d" />
    <inkscape:perspective
       id="perspective3824-7"
       inkscape:persp3d-origin="0.5 : 0.33333333 : 1"
       inkscape:vp_z="1 : 0.5 : 1"
       inkscape:vp_y="0 : 1000 : 0"
       inkscape:vp_x="0 : 0.5 : 1"
       sodipodi:type="inkscape:persp3d" />
    <inkscape:perspective
       id="perspective3824-17"
       inkscape:persp3d-origin="0.5 : 0.33333333 : 1"
       inkscape:vp_z="1 : 0.5 : 1"
       inkscape:vp_y="0 : 1000 : 0"
       inkscape:vp_x="0 : 0.5 : 1"
       sodipodi:type="inkscape:persp3d" />
    <inkscape:perspective
       id="perspective3824-91"
       inkscape:persp3d-origin="0.5 : 0.33333333 : 1"
       inkscape:vp_z="1 : 0.5 : 1"
       inkscape:vp_y="0 : 1000 : 0"
       inkscape:vp_x="0 : 0.5 : 1"
       sodipodi:type="inkscape:persp3d" />
    <inkscape:perspective
       sodipodi:type="inkscape:persp3d"
       inkscape:vp_x="0 : 0.5 : 1"
       inkscape:vp_y="0 : 1000 : 0"
       inkscape:vp_z="1 : 0.5 : 1"
       inkscape:persp3d-origin="0.5 : 0.33333333 : 1"
       id="perspective3756-7" />
    <inkscape:perspective
       sodipodi:type="inkscape:persp3d"
       inkscape:vp_x="0 : 0.5 : 1"
       inkscape:vp_y="0 : 1000 : 0"
       inkscape:vp_z="1 : 0.5 : 1"
       inkscape:persp3d-origin="0.5 : 0.33333333 : 1"
       id="perspective3731-4" />
    <inkscape:perspective
       sodipodi:type="inkscape:persp3d"
       inkscape:vp_x="0 : 0.5 : 1"
       inkscape:vp_y="0 : 1000 : 0"
       inkscape:vp_z="1 : 0.5 : 1"
       inkscape:persp3d-origin="0.5 : 0.33333333 : 1"
       id="perspective3707-6" />
    <inkscape:perspective
       sodipodi:type="inkscape:persp3d"
       inkscape:vp_x="0 : 0.5 : 1"
       inkscape:vp_y="0 : 1000 : 0"
       inkscape:vp_z="1 : 0.5 : 1"
       inkscape:persp3d-origin="0.5 : 0.33333333 : 1"
       id="perspective3682-5" />
    <inkscape:perspective
       sodipodi:type="inkscape:persp3d"
       inkscape:vp_x="0 : 0.5 : 1"
       inkscape:vp_y="0 : 1000 : 0"
       inkscape:vp_z="1 : 0.5 : 1"
       inkscape:persp3d-origin="0.5 : 0.33333333 : 1"
       id="perspective2884-0" />
    <inkscape:perspective
       id="perspective10-4"
       inkscape:persp3d-origin="372.04724 : 350.78739 : 1"
       inkscape:vp_z="744.09448 : 526.18109 : 1"
       inkscape:vp_y="0 : 1000 : 0"
       inkscape:vp_x="0 : 526.18109 : 1"
       sodipodi:type="inkscape:persp3d" />
  </defs>
  <sodipodi:namedview
     id="base"
     pagecolor="#ffffff"
     bordercolor="#666666"
     borderopacity="1.0"
     inkscape:pageopacity="0.0"
     inkscape:pageshadow="2"
     inkscape:zoom="0.96743151"
     inkscape:cx="380.90552"
     inkscape:cy="244.48819"
     inkscape:document-units="mm"
     inkscape:current-layer="layer2"
     showgrid="true"
     units="mm"
     borderlayer="true"
     inkscape:showpageshadow="false"
     showguides="false"
     inkscape:guide-bbox="true"
     guidecolor="#ff0066"
     guideopacity="0.39215686"
     inkscape:window-width="1280"
     inkscape:window-height="749"
     inkscape:window-x="0"
     inkscape:window-y="27"
     inkscape:window-maximized="1">
    <inkscape:grid
       type="xygrid"
       id="grid2985"
       empspacing="4"
       visible="false"
       enabled="true"
       snapvisiblegridlinesonly="true"
       units="mm"
       spacingx="5mm"
       spacingy="5mm"
       color="#f000ff"
       opacity="0.0627451"
       empcolor="#f000ff"
       empopacity="0.11764706" />
    <sodipodi:guide
       orientation="0,1"
       position="145.27559,471.25984"
       id="guide2987" />
    <sodipodi:guide
       orientation="0,1"
       position="67.322835,14.173228"
       id="guide2989" />
    <sodipodi:guide
       position="35.433071,442.91339"
       orientation="407.48031,0"
       id="guide2993" />
    <sodipodi:guide
       position="35.433071,35.433075"
       orientation="0,690.94486"
       id="guide2995" />
    <sodipodi:guide
       position="726.37793,35.433075"
       orientation="-407.48031,0"
       id="guide2997" />
    <sodipodi:guide
       position="726.37793,442.91339"
       orientation="0,-690.94486"
       id="guide2999" />
    <sodipodi:guide
       orientation="1,0"
       position="380.90551,336.61417"
       id="guide3836" />
  </sodipodi:namedview>
  <metadata
     id="metadata7">
    <rdf:RDF>
      <cc:Work
         rdf:about="">
        <dc:format>image/svg+xml</dc:format>
        <dc:type
           rdf:resource="http://purl.org/dc/dcmitype/StillImage" />
        <dc:title></dc:title>
      </cc:Work>
    </rdf:RDF>
  </metadata>
  <g
     inkscape:label="Layer 1"
     inkscape:groupmode="layer"
     id="layer1"
     transform="translate(0,-563.38581)"
     sodipodi:insensitive="true">
    <path
       style="fill:none;stroke:#000000;stroke-width:1.77165353;stroke-linecap:butt;stroke-linejoin:miter;stroke-miterlimit:4;stroke-opacity:1;stroke-dasharray:none;stroke-dashoffset:0"
       d="M 0,-7.0866127 0,-49.606298"
       id="path3020"
       inkscape:connector-curvature="0"
       transform="translate(0,563.38581)" />
    <path
       style="fill:none;stroke:#000000;stroke-width:1.77165353;stroke-linecap:butt;stroke-linejoin:miter;stroke-miterlimit:4;stroke-opacity:1;stroke-dasharray:none;stroke-dashoffset:0"
       d="m -7.0866142,1.4417753e-6 -35.4330708,0"
       id="path3022"
       inkscape:connector-curvature="0"
       transform="translate(0,563.38581)" />
    <path
       style="fill:none;stroke:#000000;stroke-width:1.77165353;stroke-linecap:butt;stroke-linejoin:miter;stroke-miterlimit:4;stroke-opacity:1;stroke-dasharray:none;stroke-dashoffset:0"
       d="m 761.81103,556.29919 0,-42.51968"
       id="path3020-7"
       inkscape:connector-curvature="0" />
    <path
       style="fill:none;stroke:#000000;stroke-width:1.77165353;stroke-linecap:butt;stroke-linejoin:miter;stroke-miterlimit:4;stroke-opacity:1;stroke-dasharray:none;stroke-dashoffset:0"
       d="m 768.89764,563.38581 35.43307,0"
       id="path3022-0"
       inkscape:connector-curvature="0" />
    <path
       style="fill:none;stroke:#000000;stroke-width:1.77165353;stroke-linecap:butt;stroke-linejoin:miter;stroke-miterlimit:4;stroke-opacity:1;stroke-dasharray:none;stroke-dashoffset:0"
       d="m 761.81102,1059.4488 0,42.5197"
       id="path3020-2"
       inkscape:connector-curvature="0" />
    <path
       style="fill:none;stroke:#000000;stroke-width:1.77165353;stroke-linecap:butt;stroke-linejoin:miter;stroke-miterlimit:4;stroke-opacity:1;stroke-dasharray:none;stroke-dashoffset:0"
       d="m 768.89764,1052.3622 35.43307,0"
       id="path3022-2"
       inkscape:connector-curvature="0" />
    <path
       style="fill:none;stroke:#000000;stroke-width:1.77165353;stroke-linecap:butt;stroke-linejoin:miter;stroke-miterlimit:4;stroke-opacity:1;stroke-dasharray:none;stroke-dashoffset:0"
       d="m 0,1059.4488 0,42.5196"
       id="path3020-1"
       inkscape:connector-curvature="0" />
    <path
       style="fill:none;stroke:#000000;stroke-width:1.77165353;stroke-linecap:butt;stroke-linejoin:miter;stroke-miterlimit:4;stroke-opacity:1;stroke-dasharray:none;stroke-dashoffset:0"
       d="m -7.086649,1052.3621 -35.433,0"
       id="path3022-9"
       inkscape:connector-curvature="0" />
  </g>
  <g
     inkscape:groupmode="layer"
     id="layer2"
     inkscape:label="face">
    <rect
       style="fill:#6a7f10;fill-opacity:1;stroke:none"
       id="rect3838"
       width="797.24414"
       height="212.59842"
       x="-17.716536"
       y="-7.0866127" />
    <text
       xml:space="preserve"
       style="font-size:35px;font-style:normal;font-variant:normal;font-weight:normal;font-stretch:normal;text-align:center;line-height:125%;letter-spacing:2.58999999999999986px;word-spacing:0px;writing-mode:lr-tb;text-anchor:middle;fill:#ffffff;fill-opacity:1;stroke:none;font-family:Futura LT Medium;-inkscape-font-specification:'Futura LT Medium,'"
       x="380.03052"
       y="152.36221"
       id="text3832"
       sodipodi:linespacing="125%"><tspan
         sodipodi:role="line"
         id="tspan3834"
         x="380.90552"
         y="152.36221"
         style="letter-spacing:2.58999999999999986px;fill:#ffffff;fill-opacity:1">PORTLAND STATE AEROSPACE SOCIETY</tspan></text>
    <g
       id="g3189"
       transform="matrix(0.70043166,0,0,0.70043166,287.84415,-47.463952)">
      <g
         transform="matrix(0.41228002,0,0,0.38408783,147.01562,287.59852)"
         id="g3668">
        <path
           inkscape:connector-curvature="0"
           id="path2830-5"
           style="fill:none;stroke:#000000;stroke-width:3.58775449px;stroke-linecap:butt;stroke-linejoin:miter;stroke-opacity:1"
           d="m 307.99176,587.3761 c 14.75945,0 15.6021,13.42347 15.6021,13.42347 l 0.50895,423.82483 -5.59842,0 10e-6,14.3778 -21.27975,0.1274 10e-6,-14.3777 -5.59842,0 0.50895,-423.82511 c 0,0 1.22436,-13.55068 15.85657,-13.55069 z"
           sodipodi:nodetypes="cccccccccz" />
        <path
           inkscape:connector-curvature="0"
           style="fill:none;stroke:#000000;stroke-width:3.58775449px;stroke-linecap:butt;stroke-linejoin:miter;stroke-opacity:1"
           d="M 307.91253,47.077534 307.78529,16.795228"
           id="path2855"
           transform="translate(0,540.36218)" />
        <g
           id="g2891"
           style="stroke:#a3a3a3;stroke-width:3.58775449;stroke-opacity:1">
          <path
             inkscape:connector-curvature="0"
             transform="translate(0,540.36218)"
             id="path2857"
             d="m 292.26243,61.582504 31.17296,-0.254473"
             style="fill:none;stroke:#a3a3a3;stroke-width:3.58775449px;stroke-linecap:butt;stroke-linejoin:miter;stroke-opacity:1" />
          <path
             inkscape:connector-curvature="0"
             transform="translate(0,540.36218)"
             id="path2859"
             d="m 292.00795,166.93439 31.42744,-0.12723"
             style="fill:none;stroke:#a3a3a3;stroke-width:3.58775449px;stroke-linecap:butt;stroke-linejoin:miter;stroke-opacity:1" />
          <path
             inkscape:connector-curvature="0"
             transform="translate(0,540.36218)"
             id="path2861"
             d="m 291.62624,364.91451 32.57257,0.50895"
             style="fill:none;stroke:#a3a3a3;stroke-width:3.58775449px;stroke-linecap:butt;stroke-linejoin:miter;stroke-opacity:1" />
        </g>
        <path
           inkscape:connector-curvature="0"
           style="fill:none;stroke:#000000;stroke-width:3.58775449px;stroke-linecap:butt;stroke-linejoin:miter;stroke-opacity:1"
           d="m 297.20282,484.4642 21.3667,-0.23265"
           id="path2863"
           transform="translate(0,540.36218)"
           sodipodi:nodetypes="cc" />
        <path
           inkscape:connector-curvature="0"
           style="fill:none;stroke:#000000;stroke-width:3.58775449px;stroke-linecap:butt;stroke-linejoin:miter;stroke-opacity:1"
           d="m 291.49901,428.27833 -24.04772,9.16103 -0.12723,18.83102 24.17495,10.4334"
           id="path2865"
           transform="translate(0,540.36218)" />
        <path
           inkscape:connector-curvature="0"
           style="fill:none;stroke:#000000;stroke-width:3.58775449px;stroke-linecap:butt;stroke-linejoin:miter;stroke-opacity:1"
           d="m 324.3817,968.51324 24.04772,9.16103 0.12723,18.83102 -24.17495,10.43371"
           id="path2865-2" />
        <path
           inkscape:connector-curvature="0"
           style="fill:none;stroke:#000000;stroke-width:3.58775449px;stroke-linecap:butt;stroke-linejoin:miter;stroke-opacity:1"
           d="m 307.91253,427.00596 -0.12724,40.20676"
           id="path2889"
           transform="translate(0,540.36218)" />
      </g>
      <g
         id="g3738"
         style="display:inline"
         transform="matrix(0.3054739,0,0,0.28458525,456.68024,430.67316)">
        <path
           inkscape:connector-curvature="0"
           id="path2893-9"
           style="fill:none;stroke:#000000;stroke-width:4.84218121px;stroke-linecap:butt;stroke-linejoin:miter;stroke-opacity:1;display:inline"
           d="m 164.39998,896.67389 -137.230233,-0.0722 -0.4605,-351.36469 23.94621,-122.95462 0,-254.65881 C 50.791847,142.68815 66.589687,32.557295 96.705877,33.192477 123.9308,32.743587 141.67644,134.9683 140.91427,167.69584 l 0,254.65881 23.94622,122.95462 -0.46051,351.36466 0,-4e-5 z"
           sodipodi:nodetypes="ccccccccccc" />
        <g
           id="g2961"
           style="stroke:#9c9c9c;stroke-width:4.84218121;stroke-opacity:1">
          <path
             inkscape:connector-curvature="0"
             sodipodi:nodetypes="cc"
             id="path2918"
             d="m 141.37479,422.51259 -90.25882,0"
             style="fill:none;stroke:#9c9c9c;stroke-width:4.84218121px;stroke-linecap:butt;stroke-linejoin:miter;stroke-opacity:1" />
          <path
             inkscape:connector-curvature="0"
             id="path2920"
             d="M 165.55126,545.92772 26.47899,545.46721"
             style="fill:none;stroke:#9c9c9c;stroke-width:4.84218121px;stroke-linecap:butt;stroke-linejoin:miter;stroke-opacity:1" />
          <path
             inkscape:connector-curvature="0"
             id="path2922"
             d="m 141.83529,269.85545 -90.25881,0.46051"
             style="fill:none;stroke:#9c9c9c;stroke-width:4.84218121px;stroke-linecap:butt;stroke-linejoin:miter;stroke-opacity:1" />
        </g>
      </g>
      <g
         transform="matrix(0.52894227,0,0,0.49277259,249.6399,173.07104)"
         id="g3740">
        <path
           inkscape:connector-curvature="0"
           sodipodi:nodetypes="cc"
           style="fill:none;stroke:#bebebe;stroke-width:2.79644799px;stroke-linecap:butt;stroke-linejoin:miter;stroke-opacity:1"
           d="m 233.35189,597.87311 13.74155,0.19086"
           id="path2891" />
        <path
           inkscape:connector-curvature="0"
           style="fill:none;stroke:#bebebe;stroke-width:2.79644799px;stroke-linecap:butt;stroke-linejoin:miter;stroke-opacity:1"
           d="m 232.84294,721.03812 15.01392,0"
           id="path2893" />
        <path
           inkscape:connector-curvature="0"
           style="fill:none;stroke:#bebebe;stroke-width:2.79644799px;stroke-linecap:butt;stroke-linejoin:miter;stroke-opacity:1"
           d="m 233.35189,730.45363 14.2505,0"
           id="path2895" />
        <path
           inkscape:connector-curvature="0"
           style="fill:none;stroke:#bebebe;stroke-width:2.79644799px;stroke-linecap:butt;stroke-linejoin:miter;stroke-opacity:1"
           d="m 233.05376,753.28168 15.05757,0.0745"
           id="path2897"
           sodipodi:nodetypes="cc" />
        <path
           inkscape:connector-curvature="0"
           sodipodi:nodetypes="cc"
           style="fill:none;stroke:#bebebe;stroke-width:2.79644799px;stroke-linecap:butt;stroke-linejoin:miter;stroke-opacity:1"
           d="m 232.58847,847.51118 c 0.63619,0.12723 15.45924,-0.0635 15.45924,-0.0635"
           id="path2901" />
        <path
           inkscape:connector-curvature="0"
           sodipodi:nodetypes="cc"
           style="fill:none;stroke:#bebebe;stroke-width:2.79644799px;stroke-linecap:butt;stroke-linejoin:miter;stroke-opacity:1"
           d="m 231.06163,886.95463 18.95825,-0.0636"
           id="path2903" />
        <path
           inkscape:connector-curvature="0"
           sodipodi:nodetypes="cc"
           style="fill:none;stroke:#bebebe;stroke-width:5.59289598;stroke-linecap:butt;stroke-linejoin:miter;stroke-miterlimit:4;stroke-opacity:1;stroke-dasharray:none"
           d="m 230.29821,983.86524 20.35785,0.0437"
           id="path2905" />
        <path
           inkscape:connector-curvature="0"
           style="fill:none;stroke:#bebebe;stroke-width:2.79644799px;stroke-linecap:butt;stroke-linejoin:miter;stroke-opacity:1"
           d="m 232.75032,761.45634 15.23751,0.0745"
           id="path2897-5"
           sodipodi:nodetypes="cc" />
        <path
           inkscape:connector-curvature="0"
           id="path2832-6"
           style="fill:none;stroke:#000000;stroke-width:2.79644799px;stroke-linecap:butt;stroke-linejoin:miter;stroke-opacity:1"
           d="m 230.04374,1040.9109 c 0,0 20.73955,0.2186 20.73955,0.2186 l -0.50894,-156.75535 -2.54474,-5.8529 -0.25447,-2.0358 0.76342,-2.7992 -0.76342,-280.17495 -6.55268,-43.36979 -7.57057,43.15109 -0.76342,280.17495 0.76342,2.7992 -0.25447,2.03579 -2.54474,5.85288 c 0,0 -0.50894,156.75548 -0.50894,156.75548 z"
           sodipodi:nodetypes="cccccccccccccc" />
        <path
           inkscape:connector-curvature="0"
           style="fill:none;stroke:#000000;stroke-width:2.79644799px;stroke-linecap:butt;stroke-linejoin:miter;stroke-opacity:1"
           d="m 232.58847,302.82306 -22.90259,19.33996 -0.50894,19.84891 22.90258,-11.45129"
           id="path2857-1"
           transform="translate(0,540.36218)" />
        <path
           inkscape:connector-curvature="0"
           style="fill:none;stroke:#000000;stroke-width:2.79644799px;stroke-linecap:butt;stroke-linejoin:miter;stroke-opacity:1"
           d="m 248.11133,302.82306 22.90259,20.61233 0.25447,19.08548 -23.15706,-12.21471"
           id="path2859-2"
           transform="translate(0,540.36218)" />
        <path
           inkscape:connector-curvature="0"
           style="fill:none;stroke:#000000;stroke-width:2.79644799px;stroke-linecap:butt;stroke-linejoin:miter;stroke-opacity:1"
           d="m 250.65606,460.85089 25.44732,10.68788 0,19.08548 -25.44732,8.90657"
           id="path2861-97"
           transform="translate(0,540.36218)" />
        <path
           inkscape:connector-curvature="0"
           style="fill:none;stroke:#000000;stroke-width:2.79644799px;stroke-linecap:butt;stroke-linejoin:miter;stroke-opacity:1"
           d="m 229.28032,1000.9586 -25.44732,10.6879 0,19.0855 25.44732,8.9066"
           id="path2861-9" />
        <path
           inkscape:connector-curvature="0"
           style="fill:none;stroke:#000000;stroke-width:2.79644799px;stroke-linecap:butt;stroke-linejoin:miter;stroke-opacity:1"
           d="m 239.45925,460.34195 0.50894,37.66202"
           id="path2887"
           transform="translate(0,540.36218)"
           sodipodi:nodetypes="cc" />
        <path
           inkscape:connector-curvature="0"
           style="fill:none;stroke:#000000;stroke-width:2.79644799px;stroke-linecap:butt;stroke-linejoin:miter;stroke-opacity:1"
           d="m 239.45924,883.392 0.50895,-40.46123 0,0"
           id="path2889-3"
           sodipodi:nodetypes="ccc" />
      </g>
      <g
         style="stroke-width:1.49263752;stroke-miterlimit:4;stroke-dasharray:none"
         id="g3975"
         transform="matrix(0.38447216,0,0,0.35818151,525.94067,357.32416)">
        <path
           inkscape:connector-curvature="0"
           style="fill:none;stroke:#bdbdbd;stroke-width:3.84724808;stroke-linecap:butt;stroke-linejoin:miter;stroke-miterlimit:4;stroke-opacity:1;stroke-dasharray:none"
           d="m 135.44511,460.13432 25.20357,-11.15883"
           id="path3897" />
        <path
           inkscape:connector-curvature="0"
           style="fill:none;stroke:#bdbdbd;stroke-width:3.84724808;stroke-linecap:butt;stroke-linejoin:miter;stroke-miterlimit:4;stroke-opacity:1;stroke-dasharray:none"
           d="M 213.07594,459.55714 187.87237,448.39831"
           id="path3897-8" />
        <path
           inkscape:connector-curvature="0"
           style="fill:none;stroke:#bdbdbd;stroke-width:3.84724808;stroke-linecap:butt;stroke-linejoin:miter;stroke-miterlimit:4;stroke-opacity:1;stroke-dasharray:none"
           d="m 155.64644,293.52143 c 37.32437,0.1924 37.32437,0.38479 37.32437,0.38479 l 0,0"
           id="path3921" />
        <path
           inkscape:connector-curvature="0"
           style="fill:none;stroke:#bdbdbd;stroke-width:3.84724808;stroke-linecap:butt;stroke-linejoin:miter;stroke-miterlimit:4;stroke-opacity:1;stroke-dasharray:none"
           d="m 161.80304,264.66239 24.81878,0"
           id="path3923" />
        <path
           inkscape:connector-curvature="0"
           style="fill:none;stroke:#bdbdbd;stroke-width:3.84724808;stroke-linecap:butt;stroke-linejoin:miter;stroke-miterlimit:4;stroke-opacity:1;stroke-dasharray:none"
           d="m 161.61065,115.17254 25.39596,0"
           id="path3927" />
        <path
           inkscape:connector-curvature="0"
           style="fill:none;stroke:#bdbdbd;stroke-width:3.84724808;stroke-linecap:butt;stroke-linejoin:miter;stroke-miterlimit:4;stroke-opacity:1;stroke-dasharray:none"
           d="m 161.41825,159.03829 25.58836,0"
           id="path3925" />
        <path
           inkscape:connector-curvature="0"
           style="fill:none;stroke:#bdbdbd;stroke-width:3.84724808;stroke-linecap:butt;stroke-linejoin:miter;stroke-miterlimit:4;stroke-opacity:1;stroke-dasharray:none"
           d="m 161.41825,476.48778 26.35793,-0.1924"
           id="path3929" />
        <path
           inkscape:connector-curvature="0"
           style="fill:none;stroke:#bdbdbd;stroke-width:3.84724808;stroke-linecap:butt;stroke-linejoin:miter;stroke-miterlimit:4;stroke-opacity:1;stroke-dasharray:none"
           d="m 121.01559,892.4428 41.74942,-16.93064"
           id="path3931" />
        <path
           inkscape:connector-curvature="0"
           style="fill:none;stroke:#bdbdbd;stroke-width:3.84724808;stroke-linecap:butt;stroke-linejoin:miter;stroke-miterlimit:4;stroke-opacity:1;stroke-dasharray:none"
           d="M 227.50547,892.4428 185.75605,875.51216"
           id="path3931-7" />
        <path
           inkscape:connector-curvature="0"
           id="path3870-3"
           style="fill:none;stroke:#000000;stroke-width:3.84724808;stroke-linecap:butt;stroke-linejoin:miter;stroke-miterlimit:4;stroke-opacity:1;stroke-dasharray:none"
           d="m 210.55644,630.76261 0.15731,207.63539 m -17.45736,-207.66938 0.052,207.49933 m 0.97978,-209.60797 -6.3e-4,-1.64637 16.25142,-19.27337 0.016,21.12376 m 0.16043,211.64868 0.016,21.18714 0,0 m -16.36235,-23.32983 -0.08,-207.49933 m -0.98055,209.71002 0.002,7.1422 m -5.66613,-4.30044 -1.73154,31.93733 0.38479,34.05367 -0.57718,0.76958 2.30872,7.50336 39.44069,0 0,-42.90378 -39.82548,-31.36016 z m 6.73378,5.19462 c -0.002,-2.69012 0.0813,-5.38023 -0.007,-8.07035 m -7.99242,69.21177 -12.0398,-10e-6 0,0 m 13.30545,-483.25303 -0.38478,22.12527 0,27.89708 25.97314,0 0.19239,-30.59059 -25.78075,-19.43176 z m 5.57333,49.91434 0.0382,152.24018 M 174.3389,49.470115 c 1.06335,0 2.01731,0.98952 2.92492,3.17846 1.73934,4.19486 10.06717,27.07253 10.06717,27.07253 l -0.13604,184.882205 5.98588,28.84108 0.0341,137.10595 m -18.87615,200.14093 c 0,0 33.97024,0 36.08657,0 1.84425,0 1.60718,-1.90159 0.0564,-1.92394 -1.36028,-0.0196 -36.14292,-0.19239 -36.14292,-0.19239 m -5e-5,211.92158 c 0,0 34.481,0.0501 36.59673,0 1.43612,-0.034 1.30108,-2.13967 0.0563,-2.128 -1.36036,0.0127 -36.65308,0.0117 -36.65308,0.0117 M 138.12124,630.7626 137.96393,838.39799 m 17.45736,-207.66938 -0.052,207.49933 m -0.97978,-209.60797 6.3e-4,-1.64637 -16.25142,-19.27337 -0.016,21.12376 m -0.16043,211.64868 -0.016,21.18715 0,0 m 16.36235,-23.32983 0.08,-207.49933 m 0.98055,209.71002 -0.002,7.14219 m 5.66613,-4.30044 1.73154,31.93734 -0.38479,34.05367 0.57718,0.76957 -2.30872,7.50336 -39.44069,0 0,-42.90378 39.82548,-31.36016 z m -6.73378,5.19462 c 0.002,-2.69012 -0.0813,-5.38023 0.007,-8.07035 m 7.99242,69.21177 12.0398,-10e-6 0,0 m -13.30545,-483.25303 0.38478,22.12527 0,27.89708 -25.97314,0 -0.19239,-30.59059 25.78075,-19.43176 z m -5.57333,49.91434 -0.0382,152.24018 m 18.917,-579.149835 c -1.06335,0 -2.01731,0.989519 -2.92492,3.178462 -1.73934,4.194862 -10.06717,27.072525 -10.06717,27.072525 l 0.13604,184.882218 -5.98588,28.84108 -0.0341,137.10594 m 18.87615,200.14093 c 0,0 -33.97024,0 -36.08657,0 -1.84425,0 -1.60718,-1.90159 -0.0564,-1.92394 1.36028,-0.0196 36.14292,-0.19239 36.14292,-0.19239 m 5e-5,211.92158 c 0,0 -34.481,0.0501 -36.59673,0 -1.43612,-0.034 -1.30108,-2.13967 -0.0563,-2.128 1.36036,0.0127 36.65308,0.0117 36.65308,0.0117" />
      </g>
      <g
         transform="matrix(0.14264231,0,0,0.13286474,-41.789027,581.4903)"
         style="stroke-width:4.02354956;stroke-miterlimit:4;stroke-dasharray:none;display:inline"
         id="g3879">
        <path
           inkscape:connector-curvature="0"
           style="fill:none;stroke:#000000;stroke-width:10.37063122;stroke-linecap:butt;stroke-linejoin:miter;stroke-miterlimit:4;stroke-opacity:1;stroke-dasharray:none;display:inline"
           d="m 1562.4199,720.60525 -20.9747,12.50904 0.1263,28.17695 20.5957,10.36102"
           id="path2943-2" />
        <path
           inkscape:connector-curvature="0"
           style="fill:none;stroke:#000000;stroke-width:10.37063122;stroke-linecap:butt;stroke-linejoin:miter;stroke-miterlimit:4;stroke-opacity:1;stroke-dasharray:none"
           d="m 1582.646,772.02391 c 0,0 -0.5723,-291.87892 -0.2571,-333.32183 0.5054,-66.4622 -9.6139,-141.00404 -9.6139,-141.00404 l -0.3759,-1.47232 -0.3758,1.35363 c 0,0 -10.0996,74.54184 -9.5942,141.00404 0.3152,41.44291 -0.2571,333.32183 -0.2571,333.32183 l 3.2837,0 0,19.92427 13.8868,0.11869 0,-19.92427 3.3035,0 z"
           id="path2890"
           sodipodi:nodetypes="cscccscccccc" />
        <path
           inkscape:connector-curvature="0"
           style="fill:none;stroke:#000000;stroke-width:10.37063122;stroke-linecap:butt;stroke-linejoin:miter;stroke-miterlimit:4;stroke-opacity:1;stroke-dasharray:none"
           d="m 1582.5102,574.9191 5.1805,8.84478 -5.1805,-0.12636"
           id="path2917" />
        <path
           inkscape:connector-curvature="0"
           style="fill:none;stroke:#000000;stroke-width:10.37063122;stroke-linecap:butt;stroke-linejoin:miter;stroke-miterlimit:4;stroke-opacity:1;stroke-dasharray:none;display:inline"
           d="m 1562.4831,575.04545 -5.1805,8.84478 5.1805,-0.12636"
           id="path2917-0" />
        <path
           inkscape:connector-curvature="0"
           style="fill:none;stroke:#000000;stroke-width:10.37063122;stroke-linecap:butt;stroke-linejoin:miter;stroke-miterlimit:4;stroke-opacity:1;stroke-dasharray:none"
           d="m 1572.5282,574.66639 0,8.33936"
           id="path2941" />
        <path
           inkscape:connector-curvature="0"
           style="fill:none;stroke:#000000;stroke-width:10.37063122;stroke-linecap:butt;stroke-linejoin:miter;stroke-miterlimit:4;stroke-opacity:1;stroke-dasharray:none"
           d="m 1582.6366,720.60525 20.9747,12.50904 -0.1263,28.17695 -20.5957,10.36102"
           id="path2943" />
        <path
           inkscape:connector-curvature="0"
           style="fill:none;stroke:#000000;stroke-width:10.37063122;stroke-linecap:butt;stroke-linejoin:miter;stroke-miterlimit:4;stroke-opacity:1;stroke-dasharray:none"
           d="m 1572.6546,720.4789 0,51.29971"
           id="path2967" />
        <path
           inkscape:connector-curvature="0"
           style="fill:none;stroke:#000000;stroke-width:10.37063122;stroke-linecap:butt;stroke-linejoin:miter;stroke-miterlimit:4;stroke-opacity:1;stroke-dasharray:none"
           d="m 1579.373,771.99431 -13.9129,-0.06"
           id="path2969"
           sodipodi:nodetypes="cc" />
        <path
           inkscape:connector-curvature="0"
           style="fill:none;stroke:#9d9d9d;stroke-width:10.37063122;stroke-linecap:butt;stroke-linejoin:miter;stroke-miterlimit:4;stroke-opacity:1;stroke-dasharray:none"
           d="m 1582.1467,442.46705 -19.4774,0"
           id="path2971" />
      </g>
      <path
         inkscape:connector-curvature="0"
         sodipodi:nodetypes="csssssssssscssssssccssssssssssssssssssssssssssssscssssssssscsscsssssssssssssscccc"
         id="path6862"
         d="m 115.26022,687.17123 c -0.81591,-0.19006 -0.81591,-0.19006 -0.40797,-0.71252 0.40797,-0.52255 0.25498,-0.19006 0.91789,-0.66499 0.66293,-0.47501 0.76491,-0.095 0.61193,-0.71252 -0.15299,-0.61745 -0.15299,-0.91299 -0.20397,-1.42495 -0.0661,-0.66379 -0.102,-0.61745 -0.15298,-1.18745 -0.051,-0.57 -0.25498,-1.13992 -0.25498,-2.04241 0,-0.90249 0.15298,-0.0478 -0.051,-1.09246 -0.20397,-1.04493 -0.8159,-4.98731 -0.8669,-5.69983 -0.051,-0.71243 -0.10198,-0.9024 -0.15299,-1.42487 -0.0509,-0.52255 -0.20396,-0.90249 -0.20396,-1.32997 0,-0.42748 0,-0.57 0,-0.57 0,0 -0.56094,-0.0478 -0.66292,-0.61745 -0.10198,-0.57 -0.051,-0.52246 -0.20397,-0.99747 -0.15299,-0.47502 -0.20398,-0.61745 -0.15299,-0.80751 0.051,-0.18997 0,-0.23751 0,-0.75997 0,-0.52247 -0.0509,-0.37994 0.15299,-0.90241 0.20397,-0.52246 0.051,-0.52246 0.15298,-1.09246 0.10199,-0.57 0.35695,-1.37742 0.35695,-1.37742 l -0.20398,-0.90249 c 0,0 0.30597,-0.47502 0.40796,-0.9025 0.10199,-0.42747 -0.30596,-0.33249 0.20397,-0.66498 0.50994,-0.33249 1.37683,-0.52247 1.98876,-0.94994 0.61192,-0.42748 1.07086,-0.23751 1.22385,-0.99748 0.15299,-0.75997 0.21673,-1.06874 0.10199,-1.17559 -0.31019,-0.28888 -0.25498,-0.20183 -0.30597,-0.62931 -0.051,-0.42748 -0.3187,-0.77192 -0.11474,-1.24685 0.20398,-0.47501 0.21673,-0.79564 0.62469,-1.03306 0.40795,-0.23751 0.52178,-0.22531 1.1346,-0.26123 0.80888,-0.0478 1.19836,0.0478 1.40233,0.28495 0.20398,0.23751 0.3763,0.19142 0.31871,0.59373 -0.051,0.35621 -0.26771,0.39189 -0.11473,0.72438 0.15299,0.33249 0.15299,0.23742 0.10199,0.47493 -0.051,0.23751 -0.14024,0.0358 -0.14024,0.36808 0,0.33249 -0.0127,0.93816 -0.11473,1.24685 -0.10498,0.31781 -0.16556,0.22026 -0.28047,0.40375 -0.0892,0.14252 -0.3187,0.48688 0.19122,0.6294 0.50994,0.14243 1.63181,0.56991 2.24373,0.80742 0.61193,0.2375 0.8159,0.14252 0.8159,0.57 0,0.42748 0.45894,0.90249 0.40795,1.14 -0.051,0.23742 -0.30596,0.23742 -0.10199,0.75988 0.20398,0.52255 0.10199,0.57 0.35696,1.37751 0.25496,0.8075 0,1.09246 0,1.56739 0,0.47501 -0.10198,0.52246 0,0.90249 0.10198,0.37994 0.051,0.37994 -0.051,0.71244 -0.10198,0.33249 -0.10198,0.2375 -0.10198,0.66498 0,0.42748 -0.15298,0.61745 -0.30597,0.95003 -0.15298,0.33241 -0.10198,-0.23751 -0.20398,0.42748 -0.10197,0.6649 -0.0509,0.61745 -0.25495,0.80742 -0.20399,0.18997 -0.76492,0.47501 -0.76492,0.47501 0,0 -0.25496,-0.38003 -0.20397,0.37995 0.051,0.75997 0.50994,2.89744 0.45894,3.27739 -0.051,0.38002 -0.051,1.47249 -0.051,1.70999 0,0.23743 -0.15298,0.90241 -0.15298,1.18745 0,0.28496 0,0.47493 0.051,0.85496 0.051,0.38003 0.25498,2.27991 0.30596,2.70739 0.051,0.42748 0.15298,0.94994 0.15298,1.42496 0,0.47492 0.30596,2.13739 0.25498,2.51733 -0.051,0.38003 0.0509,0.61754 -0.10199,0.80751 -0.15299,0.18997 -0.15299,0.18997 -0.15299,0.18997 0,0 0.102,0.42748 0.25498,0.71252 0.15298,0.28496 0.45895,0.57 0.25496,0.66498 -0.20398,0.095 -2.03975,0.0478 -2.03975,0.0478 0,0 -0.25497,0 -0.40795,-0.3325 -0.15297,-0.33249 -0.051,-0.1426 0,-0.47501 0.051,-0.33249 0.25497,-0.38003 0,-0.71252 -0.25496,-0.33249 -0.25496,0.61745 -0.45894,-0.75997 -0.20398,-1.37742 -0.30596,-2.61241 -0.35696,-3.03989 -0.051,-0.42747 -0.40794,-1.75744 -0.56092,-2.84982 -0.15299,-1.09255 -0.25497,-0.85504 -0.40795,-1.66247 -0.15298,-0.8075 -0.61192,-2.32744 -0.66292,-2.61249 -0.051,-0.28495 -0.30597,1.42496 -0.30597,1.75745 0,0.3325 0.10198,0.90249 0.15298,1.23499 0.051,0.33249 0.40795,1.13991 0.25497,1.32997 -0.15298,0.18997 -0.051,0.37994 -0.10198,0.71243 -0.051,0.3325 0.051,2.94499 0.051,3.79986 0,0.85504 -0.20398,0.99748 -0.102,1.32997 0.102,0.33249 0.25498,1.04501 0.25498,1.04501 l 0.20397,0.57 -2.70267,0.52238 -1.22385,-0.0478 z"
         style="fill:#d6d6d6;fill-opacity:1;stroke:none;display:inline" />
      <text
         transform="scale(1.0361752,0.96508776)"
         sodipodi:linespacing="125%"
         id="text3812"
         y="729.32434"
         x="101.79575"
         style="font-size:8.84292984px;font-style:normal;font-variant:normal;font-weight:normal;font-stretch:normal;text-align:start;line-height:125%;writing-mode:lr-tb;text-anchor:start;fill:#000000;fill-opacity:1;stroke:none;font-family:Futura LT Book;-inkscape-font-specification:'Futura LT Book,'"
         xml:space="preserve"><tspan
           y="729.32434"
           x="101.79575"
           id="tspan4937"
           sodipodi:role="line">Astronaut</tspan></text>
      <text
         transform="scale(1.0361752,0.96508776)"
         inkscape:transform-center-y="-2.7499858"
         inkscape:transform-center-x="-22.836094"
         sodipodi:linespacing="125%"
         id="text3812-3"
         y="729.3244"
         x="169.06335"
         style="font-size:8.84292984px;font-style:normal;font-variant:normal;font-weight:normal;font-stretch:normal;text-align:start;line-height:125%;writing-mode:lr-tb;text-anchor:start;fill:#000000;fill-opacity:1;stroke:none;font-family:Futura LT Book;-inkscape-font-specification:'Futura LT Book,'"
         xml:space="preserve"><tspan
           y="729.3244"
           x="169.06335"
           id="tspan3860"
           sodipodi:role="line">LV2</tspan><tspan
           y="740.37805"
           x="169.06335"
           id="tspan3862"
           sodipodi:role="line">(PSAS)</tspan></text>
      <text
         transform="scale(1.0361752,0.96508776)"
         sodipodi:linespacing="125%"
         id="text3812-4"
         y="728.98181"
         x="242.01328"
         style="font-size:8.84292984px;font-style:normal;font-variant:normal;font-weight:normal;font-stretch:normal;text-align:start;line-height:125%;writing-mode:lr-tb;text-anchor:start;fill:#000000;fill-opacity:1;stroke:none;font-family:Futura LT Book;-inkscape-font-specification:'Futura LT Book,'"
         xml:space="preserve"><tspan
           y="728.98181"
           x="242.01328"
           id="tspan3856"
           sodipodi:role="line">Tycho Brahe</tspan><tspan
           y="740.03546"
           x="242.01328"
           id="tspan3858"
           sodipodi:role="line">(Copenhagen Suborbitals)</tspan></text>
      <text
         transform="scale(1.0361752,0.96508776)"
         sodipodi:linespacing="125%"
         id="text3812-5"
         y="729.32434"
         x="339.28644"
         style="font-size:8.84292984px;font-style:normal;font-variant:normal;font-weight:normal;font-stretch:normal;text-align:start;line-height:125%;writing-mode:lr-tb;text-anchor:start;fill:#000000;fill-opacity:1;stroke:none;font-family:Futura LT Book;-inkscape-font-specification:'Futura LT Book,'"
         xml:space="preserve"><tspan
           y="729.32434"
           x="339.28644"
           id="tspan3875"
           sodipodi:role="line">Terrier Orion</tspan></text>
      <text
         transform="scale(1.0361752,0.96508776)"
         sodipodi:linespacing="125%"
         id="text3812-50"
         y="729.32434"
         x="443.88763"
         style="font-size:8.84292984px;font-style:normal;font-variant:normal;font-weight:normal;font-stretch:normal;text-align:start;line-height:125%;writing-mode:lr-tb;text-anchor:start;fill:#000000;fill-opacity:1;stroke:none;font-family:Futura LT Book;-inkscape-font-specification:'Futura LT Book,'"
         xml:space="preserve"><tspan
           y="729.32434"
           x="443.88763"
           id="tspan3888"
           sodipodi:role="line">Black Arrow</tspan></text>
      <text
         transform="scale(1.0361752,0.96508776)"
         sodipodi:linespacing="125%"
         id="text3812-33"
         y="729.32434"
         x="554.75238"
         style="font-size:8.84292984px;font-style:normal;font-variant:normal;font-weight:normal;font-stretch:normal;text-align:start;line-height:125%;writing-mode:lr-tb;text-anchor:start;fill:#000000;fill-opacity:1;stroke:none;font-family:Futura LT Book;-inkscape-font-specification:'Futura LT Book,'"
         xml:space="preserve"><tspan
           y="729.32434"
           x="554.75238"
           id="tspan3901"
           sodipodi:role="line">Lambda 4S</tspan></text>
    </g>
    <g
       inkscape:label="Layer 1"
       id="layer1-1"
       transform="matrix(0.33704972,0,0,0.33704972,13.074095,81.519269)"
       style="display:none">
      <image
         y="540.36218"
         x="-1.0099487"
         id="image2886"
         height="513.00995"
         width="513.00995"
         xlink:href="file:///home/natronics/Dropbox/PSAS/psas-logo.jpg" />
    </g>
    <g
       id="layer2-2"
       inkscape:label="Logo"
       style="display:inline"
       transform="matrix(0.44972327,0,0,0.44972327,36.623281,236.42396)">
      <path
         inkscape:connector-curvature="0"
         style="fill:#000000;fill-opacity:1;stroke:none"
         d="m 204.90278,377.37922 c -55.03669,2.39136 -116.88821,7.61484 -204.54290061,13.45849 0,-8 -0.22819694,-15.14856 -0.22819694,-23.14856 C 91.774987,361.5796 158.48779,355.29648 214.90427,353.07057 m 18.4775,-0.62161 C 243.97704,352.15917 254.1531,352 264,352 c 56,0 176,7.19758 248,15.19758 0.47278,10.42155 0,14.92037 0,22.92037 C 440,382.11795 320,376 264,376 c -12.52946,0 -25.04803,0.20707 -37.81244,0.59129"
         id="path2892"
         sodipodi:nodetypes="cccscsccss" />
      <g
         id="g3773"
         transform="matrix(-0.26376487,0.69092095,-0.52458238,-0.15615512,421.55405,-6.1115719)"
         inkscape:transform-center-x="34.109663"
         inkscape:transform-center-y="-21.159432" />
      <text
         xml:space="preserve"
         style="font-size:120px;font-style:normal;font-variant:normal;font-weight:normal;font-stretch:normal;text-align:start;line-height:125%;writing-mode:lr-tb;text-anchor:start;fill:#000000;fill-opacity:1;stroke:none;font-family:Futura LT ExtraBold;-inkscape-font-specification:'Futura LT ExtraBold,'"
         id="text3779"
         sodipodi:linespacing="125%"><textPath
           xlink:href="#path2830"
           id="textPath2833"><tspan
   style="font-size:120px;font-style:normal;font-variant:normal;font-weight:normal;font-stretch:normal;text-align:start;line-height:125%;letter-spacing:25.44728851;writing-mode:lr-tb;text-anchor:start;font-family:Futura LT ExtraBold;-inkscape-font-specification:'Futura LT ExtraBold,'"
   id="tspan3781"
   dx="0 -22.312511 2.8790355 -9.7167454">PSAS</tspan></textPath></text>
      <path
         inkscape:connector-curvature="0"
         style="fill:none;stroke:none"
         d="m 55.102737,354.37284 c 63.264973,-4.74932 149.591713,-8.55321 190.077093,-8.93365 40.4804,-0.38039 154.82175,3.26879 189.10246,7.71042"
         id="path2830"
         sodipodi:nodetypes="css" />
      <path
         inkscape:connector-curvature="0"
         id="path3611"
         style="fill:none;stroke:#000000;stroke-width:1.57577217;stroke-linecap:butt;stroke-linejoin:round;stroke-miterlimit:4;stroke-opacity:1;stroke-dasharray:none"
         d="m 325.8168,73.663638 9.71675,3.598794 M 259.95887,269.43803 193.74106,485.00578 154.51421,484.64591 254.56068,267.27875 m 0.0484,-5.14011 -6.03201,-8.41611 6.33036,-16.5821 10.50344,-3.02888 m -2.22492,30.58021 10.57108,-3.47378 6.33035,-16.5821 -6.2832,-8.02585 M 334.99767,76.316368 351.9022,19.793451 326.60436,73.817886 252.75019,267.27575 l 8.39332,2.49848 73.85416,-193.457862 z m -65.39011,159.044422 -10.55059,27.63684" />
    </g>
  </g>
</svg>
